<?xml version="1.0" encoding="UTF-8"?>
<svg width="42px" height="42px" viewBox="0 0 42 42" version="1.1" xmlns="http://www.w3.org/2000/svg" xmlns:xlink="http://www.w3.org/1999/xlink">
    <title>Art and culture icon</title>
    <g id="LOCATION-PROFILE-PAGE-(Edinburgh)" stroke="none" stroke-width="1" fill="none" fill-rule="evenodd">
        <g id="4.2-Location-profile-page-(Edinburgh)-neighorhood-hover" transform="translate(-221.000000, -5995.000000)">
            <g id="Group-12" transform="translate(188.000000, 5959.000000)">
                <g id="Art-and-culture-icon" transform="translate(34.000000, 37.000000)">
                    <g>
                        <circle id="Oval" stroke="#FFFFFF" stroke-width="0.85" opacity="0.557268415" cx="19.975" cy="19.975" r="19.975"></circle>
                        <g id="museum" transform="translate(10.200000, 7.650000)" fill="#FFFFFF" fill-rule="nonzero">
                            <path d="M0.383072029,5.86993314 C0.37550497,5.91192871 0.371239897,5.95448609 0.369864087,5.99704344 L0.369864087,6.8712253 C0.370964749,7.23148825 0.590134015,7.55354785 0.920745303,7.68009634 L0.920745303,8.96636845 C0.922258722,9.3969985 1.25397064,9.75094103 1.67524895,9.77130676 L1.67524895,17.2022739 C1.25397064,17.2227801 0.922258722,17.5767227 0.920745303,18.0072123 L0.920745303,19.2896921 C0.589446111,19.4196115 0.370414418,19.7440588 0.369864087,20.1061476 L0.369864087,20.9612278 C0.369864087,21.1206424 0.496715339,21.25 0.652871736,21.25 L19.7344945,21.25 C19.8906509,21.25 20.0173646,21.1206424 20.0173646,20.9612278 L20.0173646,20.1061476 C20.0168143,19.7439184 19.7977826,19.4194711 19.4666209,19.2896921 L19.4666209,17.9996278 C19.4651076,17.5689977 19.133258,17.2150552 18.7121173,17.1946895 L18.7121173,9.77130676 C19.133258,9.75094103 19.4651076,9.3969985 19.4666209,8.96636845 L19.4666209,7.68009634 C19.7970947,7.55354785 20.0162639,7.23148825 20.0173646,6.8712253 L20.0173646,6.00280206 C20.0161263,5.96024467 20.0117237,5.91768729 20.0041566,5.87569172 C20.1464172,5.94001938 20.3127547,5.87456809 20.3757676,5.72933931 C20.4387805,5.58425097 20.3746669,5.41444284 20.232544,5.34997473 L10.3238364,0.0333928122 C10.2411492,-0.0111309374 10.1423648,-0.0111309374 10.0596776,0.0333928122 L0.151107543,5.34421611 C0.0128369171,5.41879687 -0.0401324218,5.59338043 0.0326488289,5.73453608 C0.099238866,5.8634723 0.249479198,5.92161998 0.383072029,5.86993314 Z M1.48662303,8.1806722 L1.48662303,7.73585636 L4.74980999,7.73585636 L4.74980999,8.17687995 L1.48662303,8.1806722 Z M8.75250413,9.77327313 L8.75250413,17.2022739 C8.33122582,17.2227801 7.9995139,17.5767227 7.99800048,18.0072123 L7.99800048,19.235758 L5.31183543,19.235758 L5.31183543,18.0072123 C5.31032201,17.5767227 4.97861007,17.2227801 4.55733179,17.2022739 L4.55733179,9.77130676 C4.97861007,9.75094103 5.31032201,9.3969985 5.31183543,8.96636845 L5.31183543,7.73585636 L7.99414817,7.73585636 L7.99414817,8.96454253 C7.99483607,9.39587488 8.32682317,9.75066014 8.74878938,9.77130676 L8.75250413,9.77327313 Z M8.56387821,8.1806722 L8.56387821,7.73585636 L11.8272028,7.73585636 L11.8272028,8.17687995 L8.56387821,8.1806722 Z M15.8298969,9.77327313 L15.8298969,17.2022739 C15.4086186,17.2227801 15.0767691,17.5767227 15.0752557,18.0072123 L15.0752557,19.235758 L12.3892282,19.235758 L12.3892282,18.0072123 C12.3877148,17.5767227 12.0558652,17.2227801 11.6347245,17.2022739 L11.6347245,9.77130676 C12.0558652,9.75094103 12.3877148,9.3969985 12.3892282,8.96636845 L12.3892282,7.73585636 L15.0715409,7.73585636 L15.0715409,8.96454253 C15.0720913,9.39587488 15.4040783,9.75066014 15.8260446,9.77130676 L15.8298969,9.77327313 Z M15.641271,8.1806722 L15.641271,7.73585636 L18.904458,7.73585636 L18.904458,8.17687995 L15.641271,8.1806722 Z M18.904458,18.7948749 L18.904458,19.235758 L15.6374186,19.235758 L15.6374186,18.7948749 L18.904458,18.7948749 Z M11.8272028,18.7948749 L11.8272028,19.235758 L8.56016346,19.235758 L8.56016346,18.7948749 L11.8272028,18.7948749 Z M9.03165946,9.19938058 L8.78648707,9.19938058 C8.66142435,9.19938058 8.56016346,9.09600689 8.56016346,8.96833478 L8.56016346,8.758357 L11.8233505,8.758357 L11.8233505,8.96833478 C11.8233505,9.09600689 11.7220896,9.19938058 11.5970269,9.19938058 L9.03165946,9.19938058 Z M11.070773,9.77706538 L11.070773,17.1984817 L9.31466711,17.1984817 L9.31466711,9.77706538 C9.31466711,9.77706538 11.070773,9.77706538 11.070773,9.77706538 Z M9.03165946,17.7761665 L11.5970269,17.7761665 C11.7220896,17.7761665 11.8233505,17.8795402 11.8233505,18.0072123 L11.8233505,18.2171901 L8.56016346,18.2171901 L8.56016346,18.0072123 C8.56016346,17.8795402 8.66142435,17.7761665 8.78648707,17.7761665 L9.03165946,17.7761665 Z M4.74609528,18.7948749 L4.74609528,19.235758 L1.48277071,19.235758 L1.48277071,18.7948749 L4.74609528,18.7948749 Z M1.48276155,8.97409339 L1.48276155,8.758357 L4.74609528,8.758357 L4.74609528,8.96833478 C4.74609528,9.09600689 4.6448344,9.19938058 4.51963411,9.19938058 L1.7034534,9.19938058 C1.57990409,9.19629063 1.48167005,9.09249557 1.48276155,8.96636845 L1.48276155,8.97409339 Z M3.99159164,9.78282396 L3.99159164,17.1984817 L2.23727435,17.1984817 L2.23727435,9.77706538 L3.99159164,9.78282396 Z M1.48277071,18.0131113 C1.48277071,17.8852987 1.58403159,17.7819251 1.70909428,17.7819251 L4.51963411,17.7819251 C4.6448344,17.7819251 4.74609528,17.8852987 4.74609528,18.0131113 L4.74609528,18.2229487 L1.48277071,18.2229487 L1.48277071,18.0131113 Z M19.4514869,20.1178053 L19.4514869,20.6838324 L0.932027069,20.6838324 L0.932027069,20.1178053 C0.932027069,19.952913 1.06286825,19.8192014 1.22439034,19.8192014 L19.1591236,19.8192014 C19.3183068,19.8192014 19.44846,19.9494017 19.4514869,20.1119062 C19.4514869,20.1119062 19.4514869,20.1178053 19.4514869,20.1178053 Z M18.9007432,18.0131113 L18.9007432,18.2229487 L15.6374186,18.2229487 L15.6374186,18.0131113 C15.6374186,17.8852987 15.7386795,17.7819251 15.8637422,17.7819251 L18.6800605,17.7819251 C18.8007206,17.785015 18.8977164,17.8840347 18.9007432,18.0072123 L18.9007432,18.0131113 Z M16.3919223,17.2042403 L16.3919223,9.77706538 L18.1480281,9.77706538 L18.1480281,17.1984817 L16.3919223,17.2042403 Z M18.9007432,8.97409339 C18.9007432,9.10176551 18.7994823,9.2051392 18.6744196,9.2051392 L15.8656684,9.2051392 C15.7406057,9.2051392 15.6393448,9.10176551 15.6393448,8.97409339 L15.6393448,8.758357 L18.9025318,8.758357 L18.9007432,8.97409339 Z M10.191757,0.61107757 L18.6177356,5.13241245 L1.76577836,5.13241245 L10.191757,0.61107757 Z M0.932027069,6.00280206 C0.932027069,5.84338746 1.05874078,5.7140299 1.21489714,5.7140299 L19.1686168,5.7140299 C19.3247731,5.7140299 19.4514869,5.84338746 19.4514869,6.00280206 L19.4514869,6.87712436 C19.4514869,7.03653896 19.3247731,7.16589652 19.1686168,7.16589652 L1.21489714,7.16589652 C1.05874078,7.16589652 0.932027069,7.03653896 0.932027069,6.87712436 L0.932027069,6.00280206 Z" id="Shape"></path>
                        </g>
                    </g>
                </g>
            </g>
        </g>
    </g>
</svg>