<svg xmlns="http://www.w3.org/2000/svg" width="48" height="48" viewBox="0 0 48 48">
  <g id="Group_4" data-name="Group 4" transform="translate(-16.5 -16.5)">
    <g id="FLEXIBLE-MODEL-BENEFITS-PAGE" transform="translate(16 16)">
      <g id="_21.3-Flexible-model-benefits-page" data-name="21.3-Flexible-model-benefits-page" transform="translate(-1331 -43)">
        <g id="Close-icon-with-circle" transform="translate(1332 44)">
          <g id="Group_3" data-name="Group 3">
            <g id="Group-3" opacity="0.598">
              <circle id="Oval" cx="23.5" cy="23.5" r="23.5" fill="none" stroke="#a9a577" stroke-width="1"/>
            </g>
            <g id="close-_1_" data-name="close-(1)" transform="translate(15 15)">
              <path id="Path" d="M9.5,8.5l7.287-7.287A.708.708,0,0,0,15.8.2l-.017.017L8.5,7.5,1.208.216a.708.708,0,0,0-1,1L7.494,8.5.207,15.792a.708.708,0,0,0,1,1L8.5,9.506l7.287,7.287a.708.708,0,0,0,1-1Z" fill="#fff"/>
            </g>
          </g>
        </g>
      </g>
    </g>
  </g>
</svg>
