<?xml version="1.0" encoding="UTF-8"?>
<svg width="49px" height="49px" viewBox="0 0 49 49" version="1.1" xmlns="http://www.w3.org/2000/svg" xmlns:xlink="http://www.w3.org/1999/xlink">
    <title>Close icon with circle</title>
    <g id="FLEXIBLE-MODEL-BENEFITS-PAGE" stroke="none" stroke-width="1" fill="none" fill-rule="evenodd">
        <g id="21.3-Flexible-model-benefits-page" transform="translate(-1331.000000, -43.000000)">
            <g id="Close-icon-with-circle" transform="translate(1332.000000, 44.000000)">
                <g>
                    <g id="Group-3" opacity="0.598042806" stroke="#93908F">
                        <circle id="Oval" cx="23.5" cy="23.5" r="23.5"></circle>
                    </g>
                    <g id="close-(1)" transform="translate(15.000000, 15.000000)" fill="#3B3D48" fill-rule="nonzero">
                        <path d="M9.49666227,8.50444077 L16.7838489,1.21722302 C17.0651034,0.945591454 17.0729021,0.497407671 16.8012717,0.216152021 C16.5296413,-0.0651036299 16.0814595,-0.0729024591 15.800205,0.198729104 C15.7943144,0.204412294 15.7885068,0.210219932 15.7827822,0.216152021 L8.49555406,7.50336977 L1.20836743,0.216110538 C0.92711298,-0.0555210258 0.478931111,-0.0477221966 0.207300708,0.233533454 C-0.0576924227,0.507902904 -0.0576924227,0.942853567 0.207300708,1.21722302 L7.49448734,8.50444077 L0.207300708,15.7916585 C-0.0691002359,16.0681021 -0.0691002359,16.5162859 0.207300708,16.7927295 C0.483743134,17.0690902 0.931925003,17.0690902 1.20836743,16.7927295 L8.49555406,9.50551177 L15.7827407,16.7927295 C16.0639951,17.0643611 16.512177,17.0565623 16.7838074,16.7753066 C17.0487591,16.5009372 17.0487591,16.0659865 16.7838074,15.7916585 L9.49666227,8.50444077 Z" id="Path"></path>
                    </g>
                </g>
            </g>
        </g>
    </g>
</svg>