<?xml version="1.0" encoding="UTF-8"?>
<svg width="49px" height="49px" viewBox="0 0 49 49" version="1.1" xmlns="http://www.w3.org/2000/svg" xmlns:xlink="http://www.w3.org/1999/xlink">
    <title>Facebook cream logo</title>
    <g id="LOCATION-PROFILE-PAGE-(Edinburgh)" stroke="none" stroke-width="1" fill="none" fill-rule="evenodd">
        <g id="4.1-Location-profile-page-(Edinburgh)" transform="translate(-1048.000000, -7990.000000)">
            <g id="Group-6" transform="translate(833.000000, 7611.000000)">
                <g id="Facebook-cream-logo" transform="translate(216.000000, 380.000000)">
                    <g>
                        <circle id="Oval" stroke="#3B3D48" opacity="0.20203218" cx="23.5" cy="23.5" r="23.5"></circle>
                        <path d="M31.7777778,14 L16.2222222,14 C15,14 14,15 14,16.2222222 L14,31.7777778 C14,33.0011111 15,34 16.2222222,34 L24,34 L24,26.2222222 L21.7777778,26.2222222 L21.7777778,23.4722222 L24,23.4722222 L24,21.1944444 C24,18.79 25.3466666,17.1011111 28.1844444,17.1011111 L30.1877778,17.1033333 L30.1877778,19.9977778 L28.8577778,19.9977778 C27.7533334,19.9977778 27.3333334,20.8266667 27.3333334,21.5955556 L27.3333334,23.4733334 L30.1866666,23.4733334 L29.5555556,26.2222222 L27.3333334,26.2222222 L27.3333334,34 L31.7777778,34 C33,34 34,33.0011111 34,31.7777778 L34,16.2222222 C34,15 33,14 31.7777778,14 Z" id="Path" fill="#C7BFBA" fill-rule="nonzero"></path>
                    </g>
                </g>
            </g>
        </g>
    </g>
</svg>