<?xml version="1.0" encoding="UTF-8"?>
<svg width="17px" height="18px" viewBox="0 0 17 18" version="1.1" xmlns="http://www.w3.org/2000/svg" xmlns:xlink="http://www.w3.org/1999/xlink">
    <title>3B497375-0B6D-4CBA-94A8-C9E762BD03CD</title>
    <g id="ARTICLE/EVENT-PAGE" stroke="none" stroke-width="1" fill="none" fill-rule="evenodd">
        <g id="8.1-Article/Event-page" transform="translate(-1348.000000, -260.000000)" fill="#FFFFFF" fill-rule="nonzero">
            <g id="Group-9" transform="translate(1342.000000, 197.000000)">
                <g id="Group-6" transform="translate(5.000000, 0.000000)">
                    <g id="Group-11" transform="translate(0.000000, 32.800000)">
                        <g id="Facebook-icon-white" transform="translate(1.600000, 31.200000)">
                            <g transform="translate(0.000000, 0.000000)" id="Path">
                                <path d="M14.2222222,0 L1.77777778,0 C0.8,0 0,0.8 0,1.77777778 L0,14.2222222 C0,15.2008889 0.8,16 1.77777778,16 L8,16 L8,9.77777779 L6.22222222,9.77777779 L6.22222222,7.57777779 L8,7.57777779 L8,5.75555555 C8,3.832 9.07733331,2.48088889 11.3475555,2.48088889 L12.9502222,2.48266667 L12.9502222,4.79822222 L11.8862222,4.79822222 C11.0026667,4.79822222 10.6666667,5.46133333 10.6666667,6.07644445 L10.6666667,7.57866669 L12.9493333,7.57866669 L12.4444445,9.77777779 L10.6666667,9.77777779 L10.6666667,16 L14.2222222,16 C15.2,16 16,15.2008889 16,14.2222222 L16,1.77777778 C16,0.8 15.2,0 14.2222222,0 Z"></path>
                            </g>
                        </g>
                    </g>
                </g>
            </g>
        </g>
    </g>
</svg>