<?xml version="1.0" encoding="UTF-8"?>
<svg width="21px" height="22px" viewBox="0 0 21 22" version="1.1" xmlns="http://www.w3.org/2000/svg" xmlns:xlink="http://www.w3.org/1999/xlink">
    <title>use-location-icon</title>
    <g id="HOMEPAGE" stroke="none" stroke-width="1" fill="none" fill-rule="evenodd">
        <g id="1.1-Clockwise-homepage" transform="translate(-128.000000, -531.000000)" fill="#A9A577">
            <g id="LANDING-SECTION">
                <g id="Location-section" transform="translate(128.000000, 527.000000)">
                    <g id="use-location-icon" transform="translate(0.000000, 4.800000)">
                        <g id="use-location">
                            <path d="M7.79084823,7.8375 C8.53727974,7.09106849 9.42365479,6.71785719 10.45,6.71785719 C11.4763452,6.71785719 12.3549455,7.08329369 13.0858244,7.8141756 C13.8167063,8.54505454 14.1821428,9.42365479 14.1821428,10.45 C14.1821428,11.4763452 13.8167063,12.3549455 13.0858244,13.0858244 C12.3549455,13.8167063 11.4763452,14.1821428 10.45,14.1821428 C9.42365479,14.1821428 8.54505454,13.8167063 7.8141756,13.0858244 C7.08329369,12.3549455 6.71785719,11.4763452 6.71785719,10.45 C6.71785719,9.42365479 7.07551581,8.55283231 7.79084823,7.8375 Z M19.360491,9.4703125 L20.9,9.4703125 L20.9,11.4296875 L19.360491,11.4296875 C19.1427818,13.5134772 18.2875059,15.3017767 16.7946428,16.7946428 C15.3017798,18.2875075 13.5134772,19.1427818 11.4296875,19.360491 L11.4296875,20.9 L9.4703125,20.9 L9.4703125,19.360491 C7.38652277,19.1427818 5.59822329,18.2875075 4.10535719,16.7946428 C2.61249252,15.3017767 1.75721821,13.5134772 1.53950896,11.4296875 L0,11.4296875 L0,9.4703125 L1.53950896,9.4703125 C1.75721821,7.38652277 2.61249252,5.59822329 4.10535719,4.10535719 C5.59822329,2.61249109 7.38652277,1.75721821 9.4703125,1.53950896 L9.4703125,0 L11.4296875,0 L11.4296875,1.53950896 C13.5134772,1.75721821 15.3017798,2.61249109 16.7946428,4.10535719 C18.2875059,5.59822329 19.1427818,7.38652277 19.360491,9.4703125 Z M5.50491073,15.3950893 C6.87337101,16.7324475 8.52171529,17.401116 10.45,17.401116 C12.3782847,17.401116 14.0188542,16.7246727 15.3717649,15.3717649 C16.7246727,14.0188542 17.401116,12.3782847 17.401116,10.45 C17.401116,8.52171529 16.7246727,6.88114581 15.3717649,5.52823513 C14.0188542,4.17532731 12.3782847,3.49888396 10.45,3.49888396 C8.52171529,3.49888396 6.88114581,4.17532731 5.52823513,5.52823513 C4.17532731,6.88114581 3.49888396,8.52171529 3.49888396,10.45 C3.49888396,12.3782847 4.16755251,14.026629 5.50491073,15.3950893 Z" id="Fill-1" fill-rule="nonzero"></path>
                        </g>
                    </g>
                </g>
            </g>
        </g>
    </g>
</svg>