<?xml version="1.0" encoding="UTF-8"?>
<svg width="49px" height="49px" viewBox="0 0 49 49" version="1.1" xmlns="http://www.w3.org/2000/svg" xmlns:xlink="http://www.w3.org/1999/xlink">
    <title>Instagram cream logo</title>
    <g id="LOCATION-PROFILE-PAGE-(Edinburgh)" stroke="none" stroke-width="1" fill="none" fill-rule="evenodd">
        <g id="4.1-Location-profile-page-(Edinburgh)" transform="translate(-976.000000, -7990.000000)">
            <g id="Group-6" transform="translate(833.000000, 7611.000000)">
                <g id="Instagram-cream-logo" transform="translate(144.000000, 380.000000)">
                    <g>
                        <circle id="Oval" stroke="#3B3D48" opacity="0.20203218" cx="23.5" cy="23.5" r="23.5"></circle>
                        <g id="instagram" transform="translate(14.000000, 14.000000)" fill="#C7BFBA">
                            <path d="M9.99998015,0 C7.28416306,0 6.94357942,0.0115115681 5.87701279,0.0601777148 C4.81258969,0.108724776 4.0856937,0.277786048 3.44958032,0.525006897 C2.79203161,0.780524015 2.23431598,1.12245728 1.67838663,1.67838663 C1.12241759,2.23435568 0.780524015,2.79203161 0.524967202,3.44958032 C0.277746353,4.0856937 0.108724776,4.81258969 0.0601380197,5.87701279 C0.0114718731,6.94361912 0,7.28412336 0,9.99998015 C0,12.7158369 0.0114718731,13.0563809 0.0601380197,14.1229872 C0.108724776,15.1873706 0.277746353,15.9143063 0.524967202,16.55038 C0.780524015,17.2079287 1.12241759,17.7656443 1.67838663,18.3215737 C2.23431598,18.8775427 2.79203161,19.2194363 3.44958032,19.4750328 C4.0856937,19.722214 4.81258969,19.8912752 5.87701279,19.939862 C6.94357942,19.9884884 7.28416306,20 9.99998015,20 C12.7158369,20 13.0563412,19.9884884 14.1229475,19.939862 C15.1873706,19.8912752 15.9142666,19.722214 16.55038,19.4750328 C17.2079684,19.2194363 17.7656443,18.8775427 18.3215737,18.3215737 C18.8775427,17.7656443 19.2194363,17.2079684 19.4749931,16.55038 C19.722214,15.9143063 19.8912752,15.1873706 19.9398223,14.1229872 C19.9884884,13.0563809 20,12.7158369 20,9.99998015 C20,7.28416306 19.9884884,6.94361912 19.9398223,5.87701279 C19.8912752,4.81258969 19.722214,4.0856937 19.4749931,3.44958032 C19.2194363,2.79203161 18.8775427,2.23435568 18.3215737,1.67838663 C17.7656443,1.12245728 17.2079684,0.780524015 16.55038,0.525006897 C15.9142666,0.277786048 15.1873706,0.108724776 14.1229475,0.0601777148 C13.0563412,0.0115115681 12.7158369,0 9.99998015,0 M9.99998015,1.80179858 C12.6701082,1.80179858 12.9863588,1.81196052 14.0408184,1.86007094 C15.0158086,1.9045691 15.545301,2.06747764 15.8976741,2.2044256 C16.3644483,2.38583204 16.697609,2.60252738 17.0475209,2.95243936 C17.3974329,3.30239103 17.6141283,3.635512 17.7955744,4.10228624 C17.9324827,4.45465931 18.0953912,4.98415175 18.1398894,5.95914187 C18.1879601,7.01360151 18.1981617,7.32989177 18.1981617,9.99998015 C18.1981617,12.6701082 18.1879601,12.9863985 18.1398894,14.0408184 C18.0953912,15.0158483 17.9324827,15.5453407 17.7955744,15.8977138 C17.6141283,16.3644483 17.3974329,16.697609 17.0475209,17.0475209 C16.697609,17.3974726 16.3644483,17.614168 15.8976741,17.7955744 C15.545301,17.9324827 15.0158086,18.0954309 14.0408184,18.1398894 C12.9865176,18.1879998 12.6703067,18.1982014 9.99998015,18.1982014 C7.3296536,18.1982014 7.01344273,18.1879998 5.95914187,18.1398894 C4.98415175,18.0954309 4.45461961,17.9324827 4.10224654,17.7955744 C3.635512,17.614168 3.30235134,17.3974726 2.95243936,17.0475209 C2.60252738,16.697609 2.38579234,16.3644483 2.20438591,15.8977138 C2.06747764,15.5453407 1.9045691,15.0158483 1.86007094,14.0408581 C1.81196052,12.9863985 1.80179858,12.6701082 1.80179858,9.99998015 C1.80179858,7.32989177 1.81196052,7.01360151 1.86007094,5.95914187 C1.9045691,4.98415175 2.06747764,4.45465931 2.20438591,4.10228624 C2.38579234,3.635512 2.60252738,3.30239103 2.95243936,2.95247906 C3.30235134,2.60252738 3.635512,2.38583204 4.10224654,2.2044256 C4.45461961,2.06747764 4.98415175,1.9045691 5.95910218,1.86007094 C7.01360151,1.81196052 7.32985208,1.80179858 9.99998015,1.80179858" id="Fill-1"></path>
                            <path d="M10.0000201,13.3754407 C8.13582706,13.3754407 6.62455929,11.8641729 6.62455929,9.9999799 C6.62455929,8.13578687 8.13582706,6.62455929 10.0000201,6.62455929 C11.8642131,6.62455929 13.3754809,8.13578687 13.3754809,9.9999799 C13.3754809,11.8641729 11.8642131,13.3754407 10.0000201,13.3754407 M10.0000201,4.8 C7.12814103,4.8 4.8,7.12810083 4.8,9.9999799 C4.8,12.8718992 7.12814103,15.2 10.0000201,15.2 C12.8718992,15.2 15.2,12.8718992 15.2,9.9999799 C15.2,7.12810083 12.8718992,4.8 10.0000201,4.8" id="Fill-4"></path>
                            <path d="M16.8,4.4 C16.8,5.06275885 16.2627677,5.6 15.6000198,5.6 C14.937272,5.6 14.4,5.06275885 14.4,4.4 C14.4,3.73724115 14.937272,3.2 15.6000198,3.2 C16.2627677,3.2 16.8,3.73724115 16.8,4.4" id="Fill-6"></path>
                        </g>
                    </g>
                </g>
            </g>
        </g>
    </g>
</svg>