<?xml version="1.0" encoding="UTF-8"?>
<svg width="49px" height="49px" viewBox="0 0 49 49" version="1.1" xmlns="http://www.w3.org/2000/svg" xmlns:xlink="http://www.w3.org/1999/xlink">
    <title>Instagram icon white</title>
    <g id="CONTACT-PAGE" stroke="none" stroke-width="1" fill="none" fill-rule="evenodd">
        <g id="9.1-Contact-page" transform="translate(-273.000000, -557.000000)">
            <g id="Instagram-icon-white" transform="translate(274.000000, 558.000000)">
                <g id="Group-3">
                    <circle id="Oval" stroke="#FFFFFF" opacity="0.295712426" cx="23.5" cy="23.5" r="23.5"></circle>
                    <g id="instagram" transform="translate(14.000000, 14.000000)" fill="#74767D">
                        <path d="M9.99998015,0 C7.28416306,0 6.94357942,0.0115115681 5.87701279,0.0601777148 C4.81258969,0.108724776 4.0856937,0.277786048 3.44958032,0.525006897 C2.79203161,0.780524015 2.23431598,1.12245728 1.67838663,1.67838663 C1.12241759,2.23435568 0.780524015,2.79203161 0.524967202,3.44958032 C0.277746353,4.0856937 0.108724776,4.81258969 0.0601380197,5.87701279 C0.0114718731,6.94361912 0,7.28412336 0,9.99998015 C0,12.7158369 0.0114718731,13.0563809 0.0601380197,14.1229872 C0.108724776,15.1873706 0.277746353,15.9143063 0.524967202,16.55038 C0.780524015,17.2079287 1.12241759,17.7656443 1.67838663,18.3215737 C2.23431598,18.8775427 2.79203161,19.2194363 3.44958032,19.4750328 C4.0856937,19.722214 4.81258969,19.8912752 5.87701279,19.939862 C6.94357942,19.9884884 7.28416306,20 9.99998015,20 C12.7158369,20 13.0563412,19.9884884 14.1229475,19.939862 C15.1873706,19.8912752 15.9142666,19.722214 16.55038,19.4750328 C17.2079684,19.2194363 17.7656443,18.8775427 18.3215737,18.3215737 C18.8775427,17.7656443 19.2194363,17.2079684 19.4749931,16.55038 C19.722214,15.9143063 19.8912752,15.1873706 19.9398223,14.1229872 C19.9884884,13.0563809 20,12.7158369 20,9.99998015 C20,7.28416306 19.9884884,6.94361912 19.9398223,5.87701279 C19.8912752,4.81258969 19.722214,4.0856937 19.4749931,3.44958032 C19.2194363,2.79203161 18.8775427,2.23435568 18.3215737,1.67838663 C17.7656443,1.12245728 17.2079684,0.780524015 16.55038,0.525006897 C15.9142666,0.277786048 15.1873706,0.108724776 14.1229475,0.0601777148 C13.0563412,0.0115115681 12.7158369,0 9.99998015,0 M9.99998015,1.80179858 C12.6701082,1.80179858 12.9863588,1.81196052 14.0408184,1.86007094 C15.0158086,1.9045691 15.545301,2.06747764 15.8976741,2.2044256 C16.3644483,2.38583204 16.697609,2.60252738 17.0475209,2.95243936 C17.3974329,3.30239103 17.6141283,3.635512 17.7955744,4.10228624 C17.9324827,4.45465931 18.0953912,4.98415175 18.1398894,5.95914187 C18.1879601,7.01360151 18.1981617,7.32989177 18.1981617,9.99998015 C18.1981617,12.6701082 18.1879601,12.9863985 18.1398894,14.0408184 C18.0953912,15.0158483 17.9324827,15.5453407 17.7955744,15.8977138 C17.6141283,16.3644483 17.3974329,16.697609 17.0475209,17.0475209 C16.697609,17.3974726 16.3644483,17.614168 15.8976741,17.7955744 C15.545301,17.9324827 15.0158086,18.0954309 14.0408184,18.1398894 C12.9865176,18.1879998 12.6703067,18.1982014 9.99998015,18.1982014 C7.3296536,18.1982014 7.01344273,18.1879998 5.95914187,18.1398894 C4.98415175,18.0954309 4.45461961,17.9324827 4.10224654,17.7955744 C3.635512,17.614168 3.30235134,17.3974726 2.95243936,17.0475209 C2.60252738,16.697609 2.38579234,16.3644483 2.20438591,15.8977138 C2.06747764,15.5453407 1.9045691,15.0158483 1.86007094,14.0408581 C1.81196052,12.9863985 1.80179858,12.6701082 1.80179858,9.99998015 C1.80179858,7.32989177 1.81196052,7.01360151 1.86007094,5.95914187 C1.9045691,4.98415175 2.06747764,4.45465931 2.20438591,4.10228624 C2.38579234,3.635512 2.60252738,3.30239103 2.95243936,2.95247906 C3.30235134,2.60252738 3.635512,2.38583204 4.10224654,2.2044256 C4.45461961,2.06747764 4.98415175,1.9045691 5.95910218,1.86007094 C7.01360151,1.81196052 7.32985208,1.80179858 9.99998015,1.80179858" id="Fill-1"></path>
                        <path d="M10.0000201,13.3754407 C8.13582706,13.3754407 6.62455929,11.8641729 6.62455929,9.9999799 C6.62455929,8.13578687 8.13582706,6.62455929 10.0000201,6.62455929 C11.8642131,6.62455929 13.3754809,8.13578687 13.3754809,9.9999799 C13.3754809,11.8641729 11.8642131,13.3754407 10.0000201,13.3754407 M10.0000201,4.8 C7.12814103,4.8 4.8,7.12810083 4.8,9.9999799 C4.8,12.8718992 7.12814103,15.2 10.0000201,15.2 C12.8718992,15.2 15.2,12.8718992 15.2,9.9999799 C15.2,7.12810083 12.8718992,4.8 10.0000201,4.8" id="Fill-4"></path>
                        <path d="M16.8,4.4 C16.8,5.06275885 16.2627677,5.6 15.6000198,5.6 C14.937272,5.6 14.4,5.06275885 14.4,4.4 C14.4,3.73724115 14.937272,3.2 15.6000198,3.2 C16.2627677,3.2 16.8,3.73724115 16.8,4.4" id="Fill-6"></path>
                    </g>
                    <path d="M23.9999802,14 C21.2841631,14 20.9435794,14.0115116 19.8770128,14.0601777 C18.8125897,14.1087248 18.0856937,14.277786 17.4495803,14.5250069 C16.7920316,14.780524 16.234316,15.1224573 15.6783866,15.6783866 C15.1224176,16.2343557 14.780524,16.7920316 14.5249672,17.4495803 C14.2777464,18.0856937 14.1087248,18.8125897 14.060138,19.8770128 C14.0114719,20.9436191 14,21.2841234 14,23.9999802 C14,26.7158369 14.0114719,27.0563809 14.060138,28.1229872 C14.1087248,29.1873706 14.2777464,29.9143063 14.5249672,30.55038 C14.780524,31.2079287 15.1224176,31.7656443 15.6783866,32.3215737 C16.234316,32.8775427 16.7920316,33.2194363 17.4495803,33.4750328 C18.0856937,33.722214 18.8125897,33.8912752 19.8770128,33.939862 C20.9435794,33.9884884 21.2841631,34 23.9999802,34 C26.7158369,34 27.0563412,33.9884884 28.1229475,33.939862 C29.1873706,33.8912752 29.9142666,33.722214 30.55038,33.4750328 C31.2079684,33.2194363 31.7656443,32.8775427 32.3215737,32.3215737 C32.8775427,31.7656443 33.2194363,31.2079684 33.4749931,30.55038 C33.722214,29.9143063 33.8912752,29.1873706 33.9398223,28.1229872 C33.9884884,27.0563809 34,26.7158369 34,23.9999802 C34,21.2841631 33.9884884,20.9436191 33.9398223,19.8770128 C33.8912752,18.8125897 33.722214,18.0856937 33.4749931,17.4495803 C33.2194363,16.7920316 32.8775427,16.2343557 32.3215737,15.6783866 C31.7656443,15.1224573 31.2079684,14.780524 30.55038,14.5250069 C29.9142666,14.277786 29.1873706,14.1087248 28.1229475,14.0601777 C27.0563412,14.0115116 26.7158369,14 23.9999802,14 M23.9999802,15.8017986 C26.6701082,15.8017986 26.9863588,15.8119605 28.0408184,15.8600709 C29.0158086,15.9045691 29.545301,16.0674776 29.8976741,16.2044256 C30.3644483,16.385832 30.697609,16.6025274 31.0475209,16.9524394 C31.3974329,17.302391 31.6141283,17.635512 31.7955744,18.1022862 C31.9324827,18.4546593 32.0953912,18.9841517 32.1398894,19.9591419 C32.1879601,21.0136015 32.1981617,21.3298918 32.1981617,23.9999802 C32.1981617,26.6701082 32.1879601,26.9863985 32.1398894,28.0408184 C32.0953912,29.0158483 31.9324827,29.5453407 31.7955744,29.8977138 C31.6141283,30.3644483 31.3974329,30.697609 31.0475209,31.0475209 C30.697609,31.3974726 30.3644483,31.614168 29.8976741,31.7955744 C29.545301,31.9324827 29.0158086,32.0954309 28.0408184,32.1398894 C26.9865176,32.1879998 26.6703067,32.1982014 23.9999802,32.1982014 C21.3296536,32.1982014 21.0134427,32.1879998 19.9591419,32.1398894 C18.9841517,32.0954309 18.4546196,31.9324827 18.1022465,31.7955744 C17.635512,31.614168 17.3023513,31.3974726 16.9524394,31.0475209 C16.6025274,30.697609 16.3857923,30.3644483 16.2043859,29.8977138 C16.0674776,29.5453407 15.9045691,29.0158483 15.8600709,28.0408581 C15.8119605,26.9863985 15.8017986,26.6701082 15.8017986,23.9999802 C15.8017986,21.3298918 15.8119605,21.0136015 15.8600709,19.9591419 C15.9045691,18.9841517 16.0674776,18.4546593 16.2043859,18.1022862 C16.3857923,17.635512 16.6025274,17.302391 16.9524394,16.9524791 C17.3023513,16.6025274 17.635512,16.385832 18.1022465,16.2044256 C18.4546196,16.0674776 18.9841517,15.9045691 19.9591022,15.8600709 C21.0136015,15.8119605 21.3298521,15.8017986 23.9999802,15.8017986" id="Fill-1" fill="#FFFFFF"></path>
                    <path d="M24.0000193,27.2456161 C22.207526,27.2456161 20.7543839,25.792474 20.7543839,23.9999807 C20.7543839,22.2074874 22.207526,20.7543839 24.0000193,20.7543839 C25.7925126,20.7543839 27.2456547,22.2074874 27.2456547,23.9999807 C27.2456547,25.792474 25.7925126,27.2456161 24.0000193,27.2456161 M24.0000193,19 C21.2385971,19 19,21.2385585 19,23.9999807 C19,26.7614415 21.2385971,29 24.0000193,29 C26.7614415,29 29,26.7614415 29,23.9999807 C29,21.2385585 26.7614415,19 24.0000193,19" id="Fill-4" fill="#FFFFFF"></path>
                </g>
            </g>
        </g>
    </g>
</svg>