<?xml version="1.0" encoding="UTF-8"?>
<svg width="18px" height="17px" viewBox="0 0 18 17" version="1.1" xmlns="http://www.w3.org/2000/svg" xmlns:xlink="http://www.w3.org/1999/xlink">
    <title>D7DAB5AF-7483-4D61-8554-0E39A7B89166</title>
    <g id="ARTICLE/EVENT-PAGE" stroke="none" stroke-width="1" fill="none" fill-rule="evenodd">
        <g id="8.1-Article/Event-page" transform="translate(-1348.000000, -197.000000)" fill="#FFFFFF" fill-rule="nonzero">
            <g id="Group-9" transform="translate(1342.000000, 197.000000)">
                <g id="Group-6" transform="translate(5.000000, 0.000000)">
                    <g id="linkedin-logo-ehite" transform="translate(1.600000, 0.000000)">
                        <g transform="translate(0.000000, 0.000000)" id="Shape">
                            <path d="M15.12,0 L1.68,0 C0.756,0 0,0.756 0,1.68 L0,15.12 C0,16.044 0.756,16.8 1.68,16.8 L15.12,16.8 C16.044,16.8 16.8,16.044 16.8,15.12 L16.8,1.68 C16.8,0.756 16.044,0 15.12,0 Z M5.04,14.28 L2.52,14.28 L2.52,6.72 L5.04,6.72 L5.04,14.28 Z M3.78,5.292 C2.94,5.292 2.268,4.62 2.268,3.78 C2.268,2.94 2.94,2.268 3.78,2.268 C4.62,2.268 5.292,2.94 5.292,3.78 C5.292,4.62 4.62,5.292 3.78,5.292 Z M14.28,14.28 L11.76,14.28 L11.76,9.828 C11.76,9.15603294 11.172,8.568 10.5,8.568 C9.828,8.568 9.24,9.15603294 9.24,9.828 L9.24,14.28 L6.72,14.28 L6.72,6.72 L9.24,6.72 L9.24,7.728 C9.66,7.056 10.584,6.552 11.34,6.552 C12.936,6.552 14.28,7.896 14.28,9.492 L14.28,14.28 Z"></path>
                        </g>
                    </g>
                </g>
            </g>
        </g>
    </g>
</svg>