<?xml version="1.0" encoding="UTF-8"?>
<svg width="49px" height="49px" viewBox="0 0 49 49" version="1.1" xmlns="http://www.w3.org/2000/svg" xmlns:xlink="http://www.w3.org/1999/xlink">
    <title>LinkedIn cream logo</title>
    <g id="LOCATION-PROFILE-PAGE-(Edinburgh)" stroke="none" stroke-width="1" fill="none" fill-rule="evenodd">
        <g id="4.1-Location-profile-page-(Edinburgh)" transform="translate(-832.000000, -7990.000000)">
            <g id="Group-6" transform="translate(833.000000, 7611.000000)">
                <g id="LinkedIn-cream-logo" transform="translate(0.000000, 380.000000)">
                    <g>
                        <circle id="Oval" stroke="#3B3D48" opacity="0.20203218" cx="23.5" cy="23.5" r="23.5"></circle>
                        <g id="Group-24" transform="translate(14.000000, 14.000000)" fill="#C7BFBA">
                            <polygon id="Path" points="4.356 18.876 0.396 18.876 0.396 6.996 4.356 6.996"></polygon>
                            <path d="M2.376,4.752 C1.056,4.752 3.84039467e-12,3.696 3.84039467e-12,2.376 C3.84039467e-12,1.056 1.056,-5.251799e-13 2.376,-5.251799e-13 C3.696,-5.251799e-13 4.752,1.056 4.752,2.376 C4.752,3.696 3.696,4.752 2.376,4.752 Z" id="Path"></path>
                            <path d="M18.876,18.876 L14.916,18.876 L14.916,11.88 C14.916,10.8240518 13.992,9.9 12.936,9.9 C11.88,9.9 10.956,10.8240518 10.956,11.88 L10.956,18.876 L6.996,18.876 L6.996,6.996 L10.956,6.996 L10.956,8.58 C11.616,7.524 13.068,6.732 14.256,6.732 C16.764,6.732 18.876,8.844 18.876,11.352 L18.876,18.876 Z" id="Path"></path>
                        </g>
                    </g>
                </g>
            </g>
        </g>
    </g>
</svg>