<?xml version="1.0" encoding="UTF-8"?>
<svg width="46px" height="51px" viewBox="0 0 46 51" version="1.1" xmlns="http://www.w3.org/2000/svg" xmlns:xlink="http://www.w3.org/1999/xlink">
    <title>Clockwise icon navy</title>
    <g id="FLEXIBLE-MODEL-BENEFITS-PAGE" stroke="none" stroke-width="1" fill="none" fill-rule="evenodd">
        <g id="21.3-Flexible-model-benefits-page" transform="translate(-50.000000, -45.000000)" fill="#3B3D48">
            <g id="Clockwise-icon-navy" transform="translate(50.000000, 45.000000)">
                <g>
                    <path d="M25.014718,50.08 C11.2215277,50.08 0,38.8469146 0,25.0399117 C0,11.2327321 11.2215277,0 25.014718,0 C33.3618996,0 41.1285995,4.14558129 45.7906315,11.0896287 L43.4649985,12.654049 C39.3243234,6.48682328 32.4270223,2.80482627 25.014718,2.80482627 C12.7665373,2.80482627 2.80198446,12.7794853 2.80198446,25.0399117 C2.80198446,37.300338 12.7665373,47.2751737 25.014718,47.2751737 C32.5106794,47.2751737 39.4510446,43.5285152 43.5798947,37.2528136 L45.92,38.79568 C41.2710284,45.8614537 33.4561462,50.08 25.014718,50.08" id="Fill-1"></path>
                    <polyline id="Fill-4" points="27.7672242 29.1957709 27.7672242 22.2776598 24.9668897 22.2776598 20.8803345 22.2834883 20.8803345 11.84 18.08 11.84 18.08 25.0506268 18.0801764 25.0506268 18.0801764 25.0875408 24.9668897 25.0875408 24.9668897 32 38.16 32 38.16 29.1957709 27.7672242 29.1957709"></polyline>
                </g>
            </g>
        </g>
    </g>
</svg>