<?xml version="1.0" encoding="UTF-8"?>
<svg width="26px" height="28px" viewBox="0 0 26 28" version="1.1" xmlns="http://www.w3.org/2000/svg" xmlns:xlink="http://www.w3.org/1999/xlink">
    <title>C icon white</title>
    <defs>
        <polygon id="path-1" points="0 0.0570694444 25.7864286 0.0570694444 25.7864286 27.9992611 0 27.9992611"></polygon>
    </defs>
    <g id="HOMEPAGE" stroke="none" stroke-width="1" fill="none" fill-rule="evenodd">
        <g id="1.1-Clockwise-homepage" transform="translate(-385.000000, -3896.000000)">
            <g id="Map-section" transform="translate(0.000000, 3751.000000)">
                <g id="C-icon-white" transform="translate(385.000000, 145.000000)">
                    <g id="Group-6">
                        <g id="Group-3">
                            <mask id="mask-2" fill="white">
                                <use xlink:href="#path-1"></use>
                            </mask>
                            <g id="Clip-2"></g>
                            <path d="M24.4734286,20.841275 C22.1538571,24.3436083 18.2575714,26.4346639 14.0492857,26.4346639 C7.17228571,26.4346639 1.57671429,20.8708306 1.57671429,14.0287194 C1.57671429,7.18660833 7.17228571,1.622775 14.0492857,1.622775 C18.2111429,1.622775 22.0851429,3.67503889 24.4102857,7.11641389 L25.714,6.244525 C23.0972857,2.36905278 18.7348571,0.0563305556 14.0492857,0.0563305556 C6.30314286,0.0563305556 0,6.32580278 0,14.0287194 C0,21.7316361 6.30314286,27.9992611 14.0492857,27.9992611 C18.7868571,27.9992611 23.1771429,25.6477472 25.7864286,21.7039278 L24.4734286,20.841275 Z" id="Fill-1" fill="#FDF3E8" mask="url(#mask-2)"></path>
                        </g>
                        <polygon id="Fill-4" fill="#FDF3E8" points="14.0263175 17.8888889 21.2727273 17.8888889 21.2727273 16.373167 15.564205 16.373167 15.564205 12.6374845 14.0263175 12.6374845 11.7803118 12.6392719 11.7803118 7 10.2424242 7 10.2424242 14.1353323 10.2424242 14.1567812 14.0263175 14.1567812 14.0263175 17.1310279"></polygon>
                    </g>
                </g>
            </g>
        </g>
    </g>
</svg>