<svg xmlns="http://www.w3.org/2000/svg" width="49.472" height="70.086" viewBox="0 0 49.472 70.086">
  <g id="LOCATION-SUBLAND" transform="translate(0)">
    <g id="_3.1-Clockwise-Locations-subland" data-name="3.1-Clockwise-Locations-subland">
      <g id="Pin-icon" transform="translate(0)">
        <g id="Group_1" data-name="Group 1" transform="translate(0)">
          <path id="Fill-3" d="M42.235,7.189a24.883,24.883,0,0,0-34.99,0c-8.643,8.581-9.72,24.718-2.325,34.5l19.823,28.4L44.528,41.727c7.426-9.821,6.348-25.958-2.293-34.538" transform="translate(0 0)" fill="#3b3e48"/>
          <path id="Fill-1" d="M12.248,18.133a5.89,5.89,0,1,1,5.89-5.89,5.894,5.894,0,0,1-5.89,5.89M12.248,4a8.245,8.245,0,1,0,8.243,8.243A8.255,8.255,0,0,0,12.248,4" transform="translate(12.491 12.491)" fill="#f9f0e3"/>
        </g>
      </g>
    </g>
  </g>
</svg>
