<?xml version="1.0" encoding="UTF-8"?>
<svg width="35px" height="35px" viewBox="0 0 35 35" version="1.1" xmlns="http://www.w3.org/2000/svg" xmlns:xlink="http://www.w3.org/1999/xlink">
    <title>Map zoom icon</title>
    <g id="LOCATION-PROFILE-PAGE-(Edinburgh)" stroke="none" stroke-width="1" fill="none" fill-rule="evenodd">
        <g id="4.1-Location-profile-page-(Edinburgh)" transform="translate(-657.000000, -7960.000000)">
            <g id="Map-zoom-icon" transform="translate(651.000000, 7954.000000)">
                <g>
                    <g id="Group-3" transform="translate(23.500000, 23.500000) rotate(-45.000000) translate(-23.500000, -23.500000) translate(7.000000, 7.000000)" opacity="0.550432478" stroke="#FFFFFF" stroke-width="0.7">
                        <circle id="Oval" cx="16.45" cy="16.45" r="16.45"></circle>
                    </g>
                    <g id="close-(1)" transform="translate(23.500000, 23.500000) rotate(-45.000000) translate(-23.500000, -23.500000) translate(17.500000, 17.500000)" fill="#FFFFFF" fill-rule="nonzero">
                        <path d="M6.64766359,5.95310854 L11.7486942,0.852056112 C11.9455723,0.661914018 11.9510315,0.34818537 11.7608902,0.151306414 C11.5707489,-0.0455725409 11.2570216,-0.0510317214 11.0601435,0.139110373 C11.0560201,0.143088606 11.0519548,0.147153953 11.0479475,0.151306414 L5.94688784,5.25235884 L0.845857201,0.151277376 C0.648979086,-0.0388647181 0.335251778,-0.0334055376 0.145110495,0.163473418 C-0.0403846959,0.355532033 -0.0403846959,0.659997497 0.145110495,0.852056112 L5.24614114,5.95310854 L0.145110495,11.054161 C-0.0483701651,11.2476715 -0.0483701651,11.5614001 0.145110495,11.7549107 C0.338620194,11.9483631 0.652347502,11.9483631 0.845857201,11.7549107 L5.94688784,6.65385824 L11.0479185,11.7549107 C11.2447966,11.9450528 11.5585239,11.9395936 11.7486652,11.7427146 C11.9341313,11.550656 11.9341313,11.2461905 11.7486652,11.054161 L6.64766359,5.95310854 Z" id="Path"></path>
                    </g>
                </g>
            </g>
        </g>
    </g>
</svg>