<?xml version="1.0" encoding="UTF-8"?>
<svg width="12px" height="17px" viewBox="0 0 12 17" version="1.1" xmlns="http://www.w3.org/2000/svg" xmlns:xlink="http://www.w3.org/1999/xlink">
    <title>Pin icon</title>
    <g id="LOCATION-SUBLAND" stroke="none" stroke-width="1" fill="none" fill-rule="evenodd">
        <g id="3.1-Clockwise-Locations-subland" transform="translate(-81.000000, -1271.000000)">
            <g id="Pin-icon" transform="translate(81.000000, 1271.000000)">
                <g>
                    <path d="M10.2443961,1.7436594 C9.11089437,0.620157515 7.60425232,0 6.00139168,0 C4.39735765,0 2.89110671,0.620157515 1.75721384,1.7436594 C-0.339255905,3.82495148 -0.600532358,7.73916219 1.1932009,10.1115169 L6.00139168,17 L10.8005865,10.121219 C12.6017512,7.73916219 12.3404748,3.82495148 10.2443961,1.7436594" id="Fill-3" fill="#3B3E48" fill-rule="nonzero"></path>
                    <path d="M6.00053576,7.42816323 C5.2122511,7.42816323 4.57183677,6.7877489 4.57183677,5.99946424 C4.57183677,5.2122511 5.2122511,4.57076525 6.00053576,4.57076525 C6.7877489,4.57076525 7.42923475,5.2122511 7.42923475,5.99946424 C7.42923475,6.7877489 6.7877489,7.42816323 6.00053576,7.42816323 M6.00053576,4 C4.89722297,4 4,4.89722297 4,5.99946424 C4,7.10277703 4.89722297,8 6.00053576,8 C7.10277703,8 8,7.10277703 8,5.99946424 C8,4.89722297 7.10277703,4 6.00053576,4" id="Fill-1" fill="#F9F0E3" fill-rule="nonzero"></path>
                </g>
            </g>
        </g>
    </g>
</svg>