<?xml version="1.0" encoding="UTF-8"?>
<svg width="14px" height="15px" viewBox="0 0 14 15" version="1.1" xmlns="http://www.w3.org/2000/svg" xmlns:xlink="http://www.w3.org/1999/xlink">
    <title>reset icon</title>
    <g id="COMMUNITY-PAGE" stroke="none" stroke-width="1" fill="none" fill-rule="evenodd" opacity="0.482606434">
        <g id="7.2-Community-page-events-tab" transform="translate(-1142.000000, -1007.000000)" fill="#3B3D48">
            <g id="reset-icon" transform="translate(1142.000000, 1007.000000)">
                <g id="refresh">
                    <g transform="translate(7.000000, 7.500000) scale(-1, 1) translate(-7.000000, -7.500000) " fill-rule="nonzero">
                        <path d="M13.9020189,6.61138969 C13.8546898,6.30666667 13.5758145,6.09907656 13.2791549,6.14769213 C12.9824954,6.19630769 12.7803984,6.48276306 12.8277275,6.78748608 C12.8282374,6.79082533 12.8287792,6.79413184 12.829353,6.79743836 C13.383279,10.1468708 11.1889289,13.3233498 7.9281277,13.892332 C4.66732657,14.4613142 1.57490238,12.2073197 1.02097638,8.85788717 C0.467050371,5.50845472 2.66143238,2.33197579 5.92220164,1.7629936 C7.92752215,1.41309248 9.96866613,2.13260286 11.3422306,3.67360174 L8.93258872,4.4982658 C8.64753035,4.59569336 8.49336803,4.91200555 8.58818567,5.20481203 C8.58821754,5.20487751 8.58824941,5.20497573 8.58828128,5.2050412 C8.68313079,5.49784768 8.99107281,5.65620021 9.27613118,5.55880538 C9.27622679,5.55877265 9.27629053,5.55873991 9.27635427,5.55873991 L12.5399919,4.44130211 C12.7621998,4.36528504 12.9120913,4.15167118 12.9120594,3.91108142 L12.9120594,0.558735271 C12.9120594,0.250149188 12.6685296,0 12.3681092,0 C12.0676888,0 11.8241589,0.250149188 11.8241589,0.558735271 L11.8241589,2.59973789 C9.02291243,-0.137007506 4.59217367,-0.0229819043 1.92784695,2.85440489 C-0.736479769,5.73179168 -0.625503339,10.2829617 2.17577505,13.0197398 C4.97705344,15.756518 9.40776033,15.6424923 12.0721189,12.7650728 C13.5913996,11.1242565 14.2694331,8.84417008 13.9020189,6.61138969 Z" id="Path" transform="translate(7.000000, 7.500000) scale(-1, 1) translate(-7.000000, -7.500000) "></path>
                    </g>
                </g>
            </g>
        </g>
    </g>
</svg>