<?xml version="1.0" encoding="UTF-8"?>
<svg width="25px" height="21px" viewBox="0 0 25 21" version="1.1" xmlns="http://www.w3.org/2000/svg" xmlns:xlink="http://www.w3.org/1999/xlink">
    <title>Quote marks icon</title>
    <g id="LOCATION-SUBLAND" stroke="none" stroke-width="1" fill="none" fill-rule="evenodd">
        <g id="3.1-Clockwise-Locations-subland" transform="translate(-711.000000, -4074.000000)" fill="#ADA8A4" fill-rule="nonzero">
            <g id="Quote-marks-icon" transform="translate(711.000000, 4074.000000)">
                <path d="M10.0543478,21 L10.0543478,11.1132743 L5.17836711,11.1132743 L5.17836711,10.4070796 C5.17836711,8.52389381 5.56264983,7.08053097 6.33121527,6.07699115 C7.0997807,5.07345133 8.34082489,4.43539823 10.0543478,4.16283186 L10.0543478,4.16283186 L10.0543478,0 C3.35144928,0 0,3.72920354 0,11.1876106 L0,11.1876106 L0,21 L10.0543478,21 Z M25,21 L25,11.1132743 L20.1056194,11.1132743 L20.1056194,10.4070796 C20.1056194,6.66548673 21.7370796,4.5840708 25,4.16283186 L25,4.16283186 L25,0 C18.2971014,0 14.9456522,3.72920354 14.9456522,11.1876106 L14.9456522,11.1876106 L14.9456522,21 L25,21 Z" id="“"></path>
            </g>
        </g>
    </g>
</svg>