<?xml version="1.0" encoding="UTF-8"?>
<svg width="49px" height="49px" viewBox="0 0 49 49" version="1.1" xmlns="http://www.w3.org/2000/svg" xmlns:xlink="http://www.w3.org/1999/xlink">
    <title>Twitter icon white</title>
    <g id="CONTACT-PAGE" stroke="none" stroke-width="1" fill="none" fill-rule="evenodd">
        <g id="9.1-Contact-page" transform="translate(-201.000000, -557.000000)">
            <g id="Twitter-icon-white" transform="translate(202.000000, 558.000000)">
                <g id="Group-3">
                    <circle id="Oval" stroke="#FFFFFF" opacity="0.295712426" cx="23.5" cy="23.5" r="23.5"></circle>
                    <path d="M33.1727417,17.0040448 C34.1898222,16.4111954 34.9702412,15.4711448 35.3365029,14.3513182 C34.3842226,14.9002528 33.3319246,15.2996027 32.2091918,15.5136873 C31.3132594,14.5818707 30.0313435,14 28.6156013,14 C25.8982215,14 23.6921993,16.1477068 23.6921993,18.7963164 C23.6921993,19.1723366 23.7344603,19.5373781 23.8189822,19.8886963 C19.7281211,19.6883351 16.100722,17.7807873 13.6707167,14.8755507 C13.2466984,15.5864211 13.0044022,16.4111954 13.0044022,17.2894908 C13.0044022,18.9527627 13.8735693,20.4211629 15.1949287,21.2816179 C14.3877443,21.2582882 13.627047,21.0400867 12.9635499,20.6832792 L12.9635499,20.7422896 C12.9635499,23.0670278 14.6596232,25.0061394 16.9135411,25.4452871 C16.5007924,25.5578187 16.0655045,25.6140845 15.6161296,25.6140845 C15.2991724,25.6140845 14.9892587,25.5852654 14.6906145,25.5289996 C15.3160768,27.4338028 17.1347068,28.8226074 19.2886071,28.8582882 C17.6038035,30.1455399 15.4808945,30.9126761 13.1748547,30.9126761 C12.776193,30.9126761 12.3845747,30.8907187 12,30.8468039 C14.1792569,32.2054171 16.7670364,33 19.5478077,33 C28.6057404,33 33.5559077,25.6923077 33.5559077,19.353485 C33.5559077,19.1448898 33.5516816,18.9362947 33.5432294,18.7318165 C34.5053707,18.0552546 35.3421377,17.2098953 36,16.2492597 C35.1167459,16.6307692 34.167283,16.8887685 33.1727417,17.0040448 Z" id="Path" fill="#FFFFFF" fill-rule="nonzero"></path>
                </g>
            </g>
        </g>
    </g>
</svg>