<?xml version="1.0" encoding="UTF-8"?>
<svg width="20px" height="17px" viewBox="0 0 20 17" version="1.1" xmlns="http://www.w3.org/2000/svg" xmlns:xlink="http://www.w3.org/1999/xlink">
    <title>46E40B07-74A7-4417-BBF0-AD60799F2B57</title>
    <g id="ARTICLE/EVENT-PAGE" stroke="none" stroke-width="1" fill="none" fill-rule="evenodd">
        <g id="8.1-Article/Event-page" transform="translate(-1347.000000, -229.000000)" fill="#FFFFFF" fill-rule="nonzero">
            <g id="Group-9" transform="translate(1342.000000, 197.000000)">
                <g id="Group-6" transform="translate(5.000000, 0.000000)">
                    <g id="Group-11" transform="translate(0.000000, 32.800000)">
                        <g id="Twitter-white">
                            <g id="Path">
                                <path d="M16.9381934,2.40323582 C17.7518578,1.9289563 18.376193,1.17691586 18.6692023,0.281054532 C17.9073781,0.720202239 17.0655397,1.03968219 16.1673534,1.2109498 C15.4506075,0.465496569 14.4250748,0 13.292481,0 C11.1185772,0 9.35375944,1.7181654 9.35375944,3.83705309 C9.35375944,4.13786926 9.38756824,4.42990249 9.45518576,4.71095702 C6.18249692,4.55066811 3.28057757,3.02462983 1.33657334,0.700440592 C0.997358688,1.26913687 0.803521744,1.9289563 0.803521744,2.63159263 C0.803521744,3.96221018 1.49885543,5.1369303 2.55594294,5.82529433 C1.91019546,5.80663055 1.30163762,5.63206934 0.770839937,5.34662333 L0.770839937,5.39383171 C0.770839937,7.25362225 2.12769854,8.80491152 3.9308329,9.15622968 C3.60063391,9.24625496 3.25240359,9.2912676 2.89290368,9.2912676 C2.63933791,9.2912676 2.39140694,9.26821232 2.15249163,9.22319968 C2.65286142,10.7470422 4.10776545,11.8580859 5.83088572,11.8866306 C4.48304279,12.9164319 2.78471562,13.5301409 0.939883784,13.5301409 C0.620954394,13.5301409 0.307659799,13.512575 0,13.4774431 C1.74340553,14.5643337 3.81362916,15.2 6.03824617,15.2 C13.2845923,15.2 17.2447262,9.35384616 17.2447262,4.28278801 C17.2447262,4.11591188 17.2413453,3.94903575 17.2345835,3.78545323 C18.0042966,3.24420368 18.6737102,2.56791622 19.2,1.79940773 C18.4933967,2.10461538 17.7338264,2.31101481 16.9381934,2.40323582 Z"></path>
                            </g>
                        </g>
                    </g>
                </g>
            </g>
        </g>
    </g>
</svg>