<?xml version="1.0" encoding="utf-8"?>
<!-- Generator: Adobe Illustrator 25.0.1, SVG Export Plug-In . SVG Version: 6.00 Build 0)  -->
<svg version="1.1" id="Layer_1" xmlns="http://www.w3.org/2000/svg" xmlns:xlink="http://www.w3.org/1999/xlink" x="0px" y="0px"
	 viewBox="0 0 480 480" style="enable-background:new 0 0 480 480;" xml:space="preserve">
<style type="text/css">
	.st0{fill:#3B3D48;}
</style>
<path class="st0" d="M474.2,229.9C474.2,229.9,474.2,229.9,474.2,229.9c-5.4-22.6-23.3-41-45.8-46.8c-12.9-3.1-25.3-2.8-36.9,1.1
	c-9.9,3.4-20,5.8-28.8,7.6V75.4c0-3.9-3.2-7.1-7.1-7.1H15.1c-3.9,0-7.1,3.2-7.1,7.1v340c0,3.9,3.2,7.1,7.1,7.1h124.6
	c2.1,0,4-0.9,5.4-2.5c1.3-1.6,1.9-3.6,1.6-5.7c-2.1-13.5-5.2-25.8-9.4-37.5c-3-9-3.3-19-0.8-28.9c4.6-17.4,18.9-31.3,36.3-35.5
	c15.6-3.6,31.4-0.1,43.5,9.6c12,9.6,18.9,23.9,18.9,39.4c0,5.4-0.8,10.3-2.5,15.5c-3.6,11.3-6.7,23.4-9.3,37.1
	c-0.4,2.1,0.1,4.2,1.5,5.8c1.3,1.7,3.4,2.6,5.5,2.6h124.6c3.9,0,7.1-3.2,7.1-7.1V298.8c11.3,2.4,20.6,4.8,29.3,7.7
	c24.7,8.3,53.7-0.2,70.4-21C474.2,270,478.7,249.7,474.2,229.9z M450.8,276.6c-13,16.3-35.5,23-54.8,16.4
	c-11.4-3.8-23.7-6.8-39.6-9.8c-2.1-0.6-4.2,0.2-5.8,1.5c-1.6,1.3-2.6,3.3-2.6,5.4v118H239.1c2.1-9.8,4.4-18.5,7.1-27
	c2.1-6.5,3.2-13,3.2-19.9c0-19.7-8.9-38.1-24.3-50.5c-15.5-12.3-35.7-16.9-55.6-12.3c-22.5,5.4-40.9,23.3-46.8,45.8
	c-3.1,12.6-2.7,25.3,1.2,37c3.1,8.5,5.5,17.4,7.3,26.8H22.2V82.4h326.3v118c0,2.1,1,4.1,2.6,5.5c1.6,1.3,3.7,1.9,5.8,1.5
	c10.9-2,25.1-5,39.1-9.8c9-3,18.7-3.3,28.9-0.8c17.4,4.5,31.3,18.8,35.5,36.3C463.9,248.7,460.5,264.5,450.8,276.6z"/>
</svg>
