<?xml version="1.0" encoding="utf-8"?>
<!-- Generator: Adobe Illustrator 25.0.1, SVG Export Plug-In . SVG Version: 6.00 Build 0)  -->
<svg version="1.1" id="Layer_1" xmlns="http://www.w3.org/2000/svg" xmlns:xlink="http://www.w3.org/1999/xlink" x="0px" y="0px"
	 viewBox="0 0 480 480" style="enable-background:new 0 0 480 480;" xml:space="preserve">
<style type="text/css">
	.st0{fill:#3B3D48;}
</style>
<path class="st0" d="M383,357.9c-49.2,0-89.2-40-89.2-89.2c0-37.3,23.1-69.4,55.7-82.7l-15.9-45.3l-80.4,130.7
	c-0.1,0.2-0.3,0.5-0.4,0.8c-0.5,0.8-1.1,1.5-1.9,2.1l0,0l0,0c-0.7,0.5-1.4,0.8-2.2,1.1c0,0,0,0,0,0l0,0c-0.6,0.2-0.8,0.3-1.9,0.2
	h-58.6c-3.5,46-42.1,82.4-89,82.4c-49.2,0-89.2-40-89.2-89.2s40-89.2,89.2-89.2c12.4,0,24.2,2.5,35,7.1l28.7-49.7L152,118.2
	c-0.1-0.2-0.2-0.4-0.3-0.7h-11.3c-3.8,0-6.9-3.1-6.9-6.9s3.1-6.9,6.9-6.9h35.1c3.8,0,6.9,3.1,6.9,6.9s-3.1,6.9-6.9,6.9h-8.1
	l7.1,12.2h153.3c0.7,0,1.3,0.1,1.9,0.3l-6-17.1c-0.8-2.1-0.4-4.4,0.9-6.2c1.3-1.8,3.4-2.9,5.6-2.9h35.1c3.8,0,6.9,3.1,6.9,6.9
	s-3.1,6.9-6.9,6.9H340l22.6,64.2c6.6-1.6,13.4-2.4,20.5-2.4c49.2,0,89.2,40,89.2,89.2S432.2,357.9,383,357.9z M354,198.9
	c-27.3,11.4-46.5,38.4-46.5,69.7c0,41.6,33.9,75.5,75.5,75.5s75.5-33.9,75.5-75.5s-33.9-75.5-75.5-75.5c-5.5,0-10.8,0.6-15.9,1.7
	l22.4,63.7c1.2,3.6-0.6,7.5-4.2,8.7c-3.7,1.2-7.5-0.6-8.8-4.2L354,198.9z M99.1,193.1c-41.6,0-75.5,33.9-75.5,75.5
	s33.9,75.5,75.5,75.5c39.3,0,71.7-30.2,75.2-68.7H94.6c-2.4,0-4.7-1.3-5.9-3.4c-1.2-2.1-1.2-4.7,0-6.9l38.5-66.7
	C118.5,195,109,193.1,99.1,193.1z M188.1,261.8h46.8l-64.3-111.3l-24.4,42.4C169.7,207.5,185.9,232.7,188.1,261.8z M106.5,261.8
	h67.8c-2.2-24-15.6-44.8-35-57L106.5,261.8z M182.6,143.6L247,255.1l68.6-111.6H182.6z"/>
</svg>
