<?xml version="1.0" encoding="utf-8"?>
<!-- Generator: Adobe Illustrator 25.0.0, SVG Export Plug-In . SVG Version: 6.00 Build 0)  -->
<svg version="1.1" xmlns="http://www.w3.org/2000/svg" xmlns:xlink="http://www.w3.org/1999/xlink" x="0px" y="0px"
	 viewBox="0 0 480 480" style="enable-background:new 0 0 480 480;" xml:space="preserve">
<style type="text/css">
	.st0{display:none;}
	.st1{display:inline;}
	.st2{fill:#3B3D48;}
</style>
<g id="Capa_1" class="st0">
	<g class="st1">
		<g>
			<path class="st2" d="M468.6,138.2l-13.1,13.1C397.1,95.7,320.9,65.2,240,65.2S82.9,95.7,24.5,151.3l-13.1-13.1
				c61.9-59,142.8-91.5,228.6-91.5S406.7,79.1,468.6,138.2z"/>
		</g>
		<g>
			<path class="st2" d="M403.5,203.3l-13.1,13.1c-41-38.2-94.1-59.1-150.4-59.1s-109.4,20.9-150.4,59.1l-13.1-13.1
				c44.4-41.7,102.2-64.6,163.5-64.6C301.2,138.7,359,161.6,403.5,203.3z"/>
		</g>
		<g>
			<path class="st2" d="M338.3,268.3l-13.1,13.1c-48.5-42.9-121.9-42.9-170.5,0l-13.1-13.1C197.5,218.3,282.5,218.3,338.3,268.3z"/>
		</g>
		<g>
			<path class="st2" d="M240,322.8c-30.5,0-55.3,24.8-55.3,55.3c0,30.5,24.8,55.3,55.3,55.3s55.3-24.8,55.3-55.3
				C295.3,347.6,270.5,322.8,240,322.8z M240,414.8c-20.3,0-36.8-16.5-36.8-36.8s16.5-36.8,36.8-36.8s36.8,16.5,36.8,36.8
				S260.3,414.8,240,414.8z"/>
		</g>
	</g>
</g>
<g id="Cafe_icon">
	<path class="st2" d="M345.2,466.5H66c-2.1,0-4.1-0.8-5.6-2.3l-25.1-25H11.1c-4.4,0-7.9-3.5-7.9-7.9c0-4.4,3.5-7.9,7.9-7.9h98.5
		C3.2,382.4,3.2,267.4,3.2,178.8c0-4.4,3.5-7.9,7.9-7.9h389c4.4,0,7.9,3.5,7.9,7.9c0,10.7,0,21.9-0.2,33.2
		c41,2.9,68.9,28.8,68.9,65.1c0,35.1-41.4,64.8-90.6,65.3c-15.2,34.8-40.9,64.1-84.6,81h98.5c4.4,0,7.9,3.5,7.9,7.9
		c0,4.4-3.5,7.9-7.9,7.9H376l-25.2,25C349.3,465.7,347.3,466.5,345.2,466.5z M69.3,450.7H342l11.6-11.5H57.7L69.3,450.7z M19,186.7
		c0.1,107.4,4.5,236.3,186.5,236.3c182.1,0,186.5-128.9,186.6-236.3H19z M407.4,227.9c-1.2,33.2-4.7,67.5-15.1,98.6
		c36.8-2.7,68.6-25,68.6-49.3C461,249.5,439.7,230.4,407.4,227.9z M188.1,146.6c-2.4,0-4.8-1.1-6.4-3.2c-2.6-3.5-1.8-8.5,1.7-11
		c9.7-7.1,16.9-17.9,18.3-27.5c0.8-5.2-0.2-9.8-3-13.5c-18.3-24.3-19.6-49.4-3.6-72.5c2.5-3.6,7.4-4.5,11-2c3.6,2.5,4.5,7.4,2,11
		c-12.2,17.7-11.2,34.8,3.2,53.9c5.4,7.1,7.5,15.8,6.1,25.3c-2,13.8-11.5,28.4-24.7,38C191.3,146.2,189.7,146.6,188.1,146.6z
		 M138.8,146.6c-2.4,0-4.8-1.1-6.4-3.2c-2.6-3.5-1.8-8.5,1.7-11c9.7-7.1,16.9-17.9,18.3-27.5c0.8-5.3-0.2-9.8-3-13.5
		C131.1,67,129.9,42,145.9,18.9c2.5-3.6,7.5-4.5,11-2c3.6,2.5,4.5,7.4,2,11c-12.3,17.7-11.2,34.8,3.2,53.9c5.4,7.1,7.4,15.9,6,25.3
		c-2,13.8-11.5,28.3-24.6,37.9C142,146.2,140.4,146.6,138.8,146.6z M89.5,146.6c-2.4,0-4.8-1.1-6.4-3.2c-2.6-3.5-1.8-8.5,1.7-11
		c9.7-7.1,16.9-17.8,18.4-27.5c0.8-5.3-0.2-9.8-3-13.5C81.8,67.1,80.5,42,96.5,18.9c2.5-3.6,7.5-4.5,11-2c3.6,2.5,4.5,7.4,2,11
		c-12.2,17.7-11.2,34.8,3.2,53.9c5.4,7.1,7.4,15.9,6,25.4c-2,13.8-11.5,28.3-24.7,37.9C92.7,146.2,91.1,146.6,89.5,146.6z"/>
</g>
</svg>
