<?xml version="1.0" encoding="utf-8"?>
<!-- Generator: Adobe Illustrator 25.0.1, SVG Export Plug-In . SVG Version: 6.00 Build 0)  -->
<svg version="1.1" id="Layer_1" xmlns="http://www.w3.org/2000/svg" xmlns:xlink="http://www.w3.org/1999/xlink" x="0px" y="0px"
	 viewBox="0 0 480 480" style="enable-background:new 0 0 480 480;" xml:space="preserve">
<style type="text/css">
	.st0{fill:#3B3D48;}
</style>
<path class="st0" d="M240,459.5c-4.4,0-8.8-1.7-11.7-4.6c-5.9-6.1-142.2-147.4-142.2-278.2c0-86.1,69.1-156.1,153.9-156.1
	s153.9,70,153.9,156.1c0,130.9-136.3,272.1-142.1,278.1C248.9,457.7,244.5,459.5,240,459.5z M240,37.6
	c-75.5,0-136.9,62.4-136.9,139.1c0,124,131.7,260.4,137.3,266.2c4.8-5.8,136.5-142.2,136.5-266.2C376.9,100,315.5,37.6,240,37.6z
	 M240,260.3c-45.3,0-82.1-37.3-82.1-83.3c0-45.9,36.8-83.2,82.1-83.2c45.3,0,82.1,37.3,82.1,83.2C322.1,223,285.3,260.3,240,260.3z
	 M240,110.9c-35.9,0-65.1,29.7-65.1,66.1c0,36.5,29.2,66.2,65.1,66.2s65-29.7,65-66.2C305,140.6,275.9,110.9,240,110.9z"/>
</svg>
