<?xml version="1.0" encoding="utf-8"?>
<!-- Generator: Adobe Illustrator 25.0.0, SVG Export Plug-In . SVG Version: 6.00 Build 0)  -->
<svg version="1.1" xmlns="http://www.w3.org/2000/svg" xmlns:xlink="http://www.w3.org/1999/xlink" x="0px" y="0px"
	 viewBox="0 0 480 480" style="enable-background:new 0 0 480 480;" xml:space="preserve">
<style type="text/css">
	.st0{display:none;}
	.st1{display:inline;}
	.st2{fill:#3B3D48;}
	.st3{display:inline;fill:#3B3D48;}
</style>
<g id="Wifi" class="st0">
	<g class="st1">
		<g>
			<path class="st2" d="M468.6,138.2l-13.1,13.1C397.1,95.7,320.9,65.2,240,65.2S82.9,95.7,24.5,151.3l-13.1-13.1
				c61.9-59,142.8-91.5,228.6-91.5S406.7,79.1,468.6,138.2z"/>
		</g>
		<g>
			<path class="st2" d="M403.5,203.3l-13.1,13.1c-41-38.2-94.1-59.1-150.4-59.1s-109.4,20.9-150.4,59.1l-13.1-13.1
				c44.4-41.7,102.2-64.6,163.5-64.6C301.2,138.7,359,161.6,403.5,203.3z"/>
		</g>
		<g>
			<path class="st2" d="M338.3,268.3l-13.1,13.1c-48.5-42.9-121.9-42.9-170.5,0l-13.1-13.1C197.5,218.3,282.5,218.3,338.3,268.3z"/>
		</g>
		<g>
			<path class="st2" d="M240,322.8c-30.5,0-55.3,24.8-55.3,55.3c0,30.5,24.8,55.3,55.3,55.3s55.3-24.8,55.3-55.3
				C295.3,347.6,270.5,322.8,240,322.8z M240,414.8c-20.3,0-36.8-16.5-36.8-36.8s16.5-36.8,36.8-36.8s36.8,16.5,36.8,36.8
				S260.3,414.8,240,414.8z"/>
		</g>
	</g>
</g>
<g id="Shower" class="st0">
	<g class="st1">
		<path class="st2" d="M429.9,45.7H225.2c-5,0-9.1,4.1-9.1,9.1V79c-3.7-0.3-7.3-0.5-11-0.5s-7.3,0.2-11,0.5V34.7c0-6,4.9-11,11-11
			h224.8c5,0,9.1-4.1,9.1-9.1s-4.1-9.1-9.1-9.1H205.1c-16.1,0-29.2,13.2-29.2,29.2v47C117.2,94.5,72.4,145,68.3,206.5H53.4
			c-5,0-9.1,4.1-9.1,9.1v40.2c0,5,4.1,9.1,9.1,9.1h303.4c5,0,9.1-4.1,9.1-9.1v-40.2c0-5-4.1-9.1-9.1-9.1h-14.9
			C337.8,145,293,94.5,234.3,81.7V63.9h195.6c5,0,9.1-4.1,9.1-9.1S434.9,45.7,429.9,45.7z M347.6,224.8v21.9H62.5v-21.9h183.8h82.2
			H347.6z M323.5,206.5h-77.2H86.6c4.7-61.2,56-109.7,118.4-109.7S318.8,145.3,323.5,206.5z"/>
		<path class="st2" d="M103.5,330l-18.9-26c-1.7-2.4-4.5-3.7-7.4-3.7s-5.7,1.4-7.4,3.7l-18.9,26c-9.5,13.1-8,30.8,3.3,42.1
			c6.3,6.3,14.7,9.5,23,9.5s16.6-3.2,23-9.5C111.6,360.7,113,343,103.5,330z M87.2,359.2c-5.6,5.6-14.6,5.6-20.2,0
			c-5-5-5.6-12.8-1.5-18.5l11.6-15.9l11.5,15.9C92.9,346.5,92.2,354.3,87.2,359.2z"/>
		<path class="st2" d="M231.6,330l-18.9-26c-1.7-2.4-4.5-3.7-7.4-3.7c-2.9,0-5.7,1.4-7.4,3.7l-18.9,26c-9.5,13.1-8,30.8,3.3,42.1
			c6.3,6.3,14.7,9.5,23,9.5s16.6-3.2,23-9.5C239.6,360.7,241,343,231.6,330z M215.3,359.2c-5.6,5.6-14.6,5.6-20.2,0
			c-5-5-5.6-12.8-1.5-18.5l11.5-15.9l11.5,15.9C220.9,346.5,220.2,354.3,215.3,359.2z"/>
		<path class="st2" d="M340.6,303.9c-1.7-2.4-4.5-3.7-7.4-3.7s-5.7,1.4-7.4,3.7l-18.9,26c-9.5,13.1-8,30.8,3.3,42.1
			c6.3,6.3,14.7,9.5,23,9.5s16.6-3.2,23-9.5c11.4-11.4,12.8-29.2,3.3-42.1L340.6,303.9z M343.3,359.2L343.3,359.2
			c-5.6,5.6-14.6,5.6-20.2,0c-5-5-5.6-12.8-1.5-18.5l11.5-15.9l11.5,15.9C348.9,346.5,348.4,354.3,343.3,359.2z"/>
		<path class="st2" d="M148.4,395.6c-1.7-2.4-4.5-3.7-7.4-3.7s-5.7,1.4-7.4,3.7l-18.9,26c-9.5,13.1-8,30.8,3.3,42.1
			c6.1,6.1,14.3,9.5,23,9.5s16.9-3.4,23-9.5c11.4-11.4,12.8-29.2,3.3-42.1L148.4,395.6z M151.2,450.8c-2.7,2.7-6.3,4.2-10.1,4.2
			c-3.8,0-7.4-1.5-10.1-4.2c-5-5-5.6-12.8-1.5-18.5l11.5-15.9l11.5,15.9C156.7,438.1,156.1,445.9,151.2,450.8z"/>
		<path class="st2" d="M276.5,395.6c-1.7-2.4-4.5-3.7-7.4-3.7s-5.7,1.4-7.4,3.7l-18.9,26c-9.5,13.1-8,30.8,3.3,42.1
			c6.1,6.1,14.3,9.5,23,9.5s16.9-3.4,23-9.5c11.4-11.4,12.8-29.2,3.3-42.1L276.5,395.6z M279.2,450.8L279.2,450.8
			c-2.7,2.7-6.3,4.2-10.1,4.2c-3.8,0-7.4-1.5-10.1-4.2c-5-5-5.6-12.8-1.5-18.5l11.5-15.9l11.5,15.9
			C284.8,438.1,284.2,445.9,279.2,450.8z"/>
	</g>
</g>
<g id="Parking" class="st0">
	<g class="st1">
		<g>
			<path class="st2" d="M393,84.3h-22.3c-3.3,0-5.4,2.1-5.4,4.4h0v72.1c0,3,3.5,4.5,7.2,4.5c3.5,0,7.2-1.6,7.2-4.5v-25.7h12.4
				c14.6,0,26.1-7,26.1-25.2v-0.7C418.2,91.1,407.1,84.3,393,84.3z M403.8,111c0,8.6-4.4,12.8-11.6,12.8h-12.4V96.9h12.4
				c7.2,0,11.6,4.1,11.6,12.8L403.8,111L403.8,111z"/>
		</g>
	</g>
	<g class="st1">
		<g>
			<path class="st2" d="M331.4,292.4c-2.8-1.5-5.6-3.2-8.3-5l-43-29.1c-13.1-8.8-28.3-13.5-44-13.5h-79c-21,0-40.7,8.1-55.5,22.9
				c-7.6,7.6-16.3,14-25.8,18.9c-5.6,2.9-9.1,8.7-9.1,15c0,9.3,7.6,16.9,16.9,16.9h26.9c3.6,0,6.5-2.9,6.5-6.5
				c0-3.6-2.9-6.5-6.5-6.5H83.5c-2.2,0-3.9-1.8-3.9-3.9c0-1.5,0.8-2.8,2.1-3.5c10.7-5.6,20.5-12.7,29-21.2
				c12.4-12.3,28.9-19.2,46.4-19.2h17.7v47.8h-21.6c-3.6,0-6.5,2.9-6.5,6.5c0,3.6,2.9,6.5,6.5,6.5h178.4c5.3,0,9.7-4.4,9.7-9.7
				C341.3,302.1,337.5,295.7,331.4,292.4z M187.8,305.6v-47.8h48.3c13.2,0,25.9,3.9,36.8,11.3l43,29.1c3,2,6.1,3.9,9.3,5.7
				c0.8,0.5,1.5,1.1,2,1.8H187.8z"/>
		</g>
	</g>
	<g class="st1">
		<g>
			<path class="st2" d="M203.9,328.5h-20.1c-3.6,0-6.5,2.9-6.5,6.5s2.9,6.5,6.5,6.5h20.1c3.6,0,6.5-2.9,6.5-6.5
				C210.4,331.4,207.5,328.5,203.9,328.5z"/>
		</g>
	</g>
	<g class="st1">
		<g>
			<path class="st2" d="M462.3,323l-2.1-3.4c-7.7-12.9-20.6-21.9-35.3-24.8l-16.8-3.3v-85.1h43.5c8.9,0,16.2-7.3,16.2-16.2V63.4
				c0-8.9-7.3-16.2-16.2-16.2H324.9c-8.9,0-16.2,7.3-16.2,16.2v48.1c0,3.6,2.9,6.5,6.5,6.5s6.5-2.9,6.5-6.5V63.4
				c0-1.8,1.4-3.2,3.2-3.2h126.7c1.8,0,3.2,1.4,3.2,3.2v126.7c0,1.8-1.4,3.2-3.2,3.2H324.9c-1.8,0-3.2-1.4-3.2-3.2v-36.3
				c0-3.6-2.9-6.5-6.5-6.5s-6.5,2.9-6.5,6.5v36.3c0,8.9,7.3,16.2,16.2,16.2h49.3v78.4l-8.6-1.7c-11.9-2.4-23.5-9.6-31.2-14.8
				l-43-29.1c-16.4-11.1-35.5-16.9-55.2-16.9h-79c-26.3,0-51,10.2-69.6,28.8c-11.8,11.7-26.6,19.7-42.9,23.1l-9.3,2
				c-13.9,2.9-24,15.3-24,29.5v63c0,7.5,4.4,14.3,11.3,17.4l25.9,11.5c1.6,8.2,5.5,16,11.8,22.3c8.4,8.4,19.5,12.6,30.5,12.6
				s22.1-4.2,30.5-12.6c5.4-5.4,9.1-11.9,11-18.8h216c1.9,6.9,5.6,13.4,11,18.8c8.2,8.2,19,12.6,30.5,12.6
				c11.5,0,22.4-4.5,30.5-12.6c5.4-5.4,9.1-11.9,11-18.8h12.3c13.3,0,24.1-10.8,24.1-24.1v-33.7C467.9,336.1,466,329.1,462.3,323z
				 M387.2,206.3h7.9v82.5l-7.9-1.6V206.3z M112.2,410.7c-5.7,5.7-13.3,8.8-21.3,8.8s-15.6-3.1-21.3-8.8
				c-9.1-9.1-11.2-22.7-6.1-33.8c0-0.1,0.1-0.2,0.1-0.3c0.2-0.3,0.3-0.7,0.5-1c0.1-0.2,0.2-0.3,0.2-0.5c0.2-0.3,0.3-0.6,0.5-0.8
				c0.1-0.2,0.2-0.4,0.3-0.6c0.1-0.2,0.3-0.5,0.5-0.7c0.1-0.2,0.3-0.4,0.4-0.6c0.1-0.2,0.3-0.4,0.4-0.6c0.2-0.2,0.4-0.5,0.5-0.7
				c0.1-0.2,0.3-0.4,0.4-0.6c0.2-0.3,0.4-0.5,0.7-0.8c0.1-0.1,0.2-0.3,0.4-0.4c0.3-0.4,0.7-0.7,1-1.1c0,0,0.1-0.1,0.1-0.1
				c0.1-0.1,0.1-0.1,0.2-0.2c0.3-0.3,0.6-0.6,0.9-0.9c0.1-0.1,0.2-0.1,0.2-0.2c0.3-0.3,0.6-0.5,0.9-0.8c0,0,0.1,0,0.1-0.1
				c11-8.9,26.9-8.9,37.9,0c0,0,0,0,0,0c0.3,0.3,0.7,0.6,1,0.9c0.1,0.1,0.1,0.1,0.2,0.2c0.4,0.3,0.7,0.7,1.1,1.1
				c0.4,0.4,0.8,0.8,1.1,1.2c0.2,0.2,0.3,0.4,0.5,0.5c0.2,0.2,0.4,0.4,0.6,0.7c0.2,0.3,0.4,0.5,0.6,0.8c0.1,0.1,0.2,0.3,0.3,0.4
				c0.2,0.3,0.5,0.7,0.7,1c0,0.1,0.1,0.1,0.1,0.2C123.8,384.5,122.5,400.4,112.2,410.7z M411.3,410.7c-5.7,5.7-13.3,8.8-21.3,8.8
				s-15.6-3.1-21.3-8.8c-10.3-10.3-11.6-26.1-3.9-37.8c0-0.1,0.1-0.1,0.1-0.2c0.2-0.3,0.5-0.7,0.7-1c0.1-0.1,0.2-0.3,0.3-0.4
				c0.2-0.3,0.4-0.5,0.6-0.8c0.2-0.2,0.4-0.4,0.6-0.7c0.2-0.2,0.3-0.4,0.5-0.6c0.4-0.4,0.7-0.8,1.1-1.2c5.7-5.7,13.3-8.8,21.3-8.8
				s15.6,3.1,21.3,8.8c0.4,0.4,0.8,0.8,1.1,1.2c0.2,0.2,0.3,0.4,0.5,0.5c0.2,0.2,0.4,0.4,0.6,0.7c0.2,0.3,0.4,0.5,0.6,0.8
				c0.1,0.1,0.2,0.3,0.3,0.4c0.2,0.3,0.5,0.7,0.7,1c0,0.1,0.1,0.1,0.1,0.2C422.8,384.5,421.5,400.4,411.3,410.7z M454.9,377
				L454.9,377c0,6.1-5,11.1-11.1,11.1h-10.7c-0.3-9.4-3.6-18.4-9.6-25.8c0,0-0.1-0.1-0.1-0.2c-0.4-0.5-0.8-0.9-1.1-1.3
				c-0.1-0.1-0.2-0.2-0.3-0.3c-0.4-0.5-0.8-0.9-1.3-1.3c-0.1-0.1-0.1-0.2-0.2-0.2c-5.6-5.6-12.5-9.5-20-11.3
				c-3.4-0.9-6.9-1.3-10.5-1.3c-2.9,0-5.7,0.3-8.5,0.8c-8.3,1.6-15.9,5.7-22,11.8c-0.1,0.1-0.1,0.1-0.2,0.2
				c-0.4,0.4-0.9,0.9-1.3,1.3c-0.1,0.1-0.2,0.2-0.3,0.3c-0.4,0.4-0.8,0.9-1.2,1.3c0,0-0.1,0.1-0.1,0.1c-6,7.4-9.3,16.4-9.6,25.8H134
				c-0.3-9.5-3.6-18.5-9.6-25.9c0,0-0.1-0.1-0.1-0.1c-0.4-0.5-0.8-0.9-1.2-1.4c-0.1-0.1-0.1-0.2-0.2-0.3c-0.5-0.5-1-1.1-1.5-1.6
				c-2.1-2.1-4.4-3.9-6.8-5.5c-7.2-4.7-15.5-7.1-23.8-7.1c-11.1,0-22.1,4.2-30.5,12.6c-0.5,0.5-0.9,1-1.4,1.5
				c-0.1,0.1-0.3,0.3-0.4,0.4c-0.3,0.4-0.6,0.7-0.9,1.1c-0.1,0.2-0.3,0.3-0.4,0.5c-0.3,0.4-0.6,0.8-0.9,1.2
				c-0.1,0.1-0.2,0.3-0.3,0.4c-0.8,1.1-1.6,2.3-2.3,3.4c0,0,0,0.1-0.1,0.1c-0.3,0.6-0.7,1.2-1,1.8c0,0,0,0,0,0.1
				c-2.3,4.3-3.8,9-4.5,13.8l-20.3-9c-2.2-1-3.6-3.1-3.6-5.5v-63c0-8.1,5.7-15.1,13.6-16.8l9.3-2c18.7-3.9,35.8-13.1,49.4-26.7
				c16.2-16.1,37.6-25,60.4-25h79c17.1,0,33.7,5.1,47.9,14.7l43,29.1c8.6,5.8,21.8,13.9,36,16.7l59.4,11.8
				c11.1,2.2,20.9,9.1,26.7,18.8l2.1,3.4c2.4,4.1,3.7,8.7,3.7,13.5V377z"/>
		</g>
	</g>
	<g class="st1">
		<g>
			<path class="st2" d="M104.9,375.4c-3.7-3.7-8.7-5.8-14-5.8c-5.3,0-10.2,2.1-14,5.8c-3.7,3.7-5.8,8.7-5.8,14
				c0,5.3,2.1,10.2,5.8,14c3.7,3.7,8.7,5.8,14,5.8c5.3,0,10.2-2.1,14-5.8C112.6,395.6,112.6,383.1,104.9,375.4z M95.7,394.1
				c-1.3,1.3-3,2-4.8,2c-1.8,0-3.5-0.7-4.8-2c-1.3-1.3-2-3-2-4.8c0-1.8,0.7-3.5,2-4.8c1.3-1.3,3-2,4.8-2c1.8,0,3.5,0.7,4.8,2
				C98.3,387.2,98.3,391.5,95.7,394.1z"/>
		</g>
	</g>
	<g class="st1">
		<g>
			<path class="st2" d="M403.9,375.4c-3.7-3.7-8.7-5.8-14-5.8c-5.3,0-10.2,2.1-14,5.8c-7.7,7.7-7.7,20.2,0,27.9
				c3.7,3.7,8.7,5.8,14,5.8c5.3,0,10.2-2.1,14-5.8c3.7-3.7,5.8-8.7,5.8-14C409.7,384.1,407.7,379.1,403.9,375.4z M394.7,394.1
				c-1.3,1.3-3,2-4.8,2c-1.8,0-3.5-0.7-4.8-2c-2.6-2.6-2.6-6.9,0-9.5c1.3-1.3,3-2,4.8-2c1.8,0,3.5,0.7,4.8,2c1.3,1.3,2,3,2,4.8
				C396.7,391.2,396,392.9,394.7,394.1z"/>
		</g>
	</g>
</g>
<g id="Office_services" class="st0">
	<path class="st3" d="M270.6,468.9h-57.4c-15.7,0-28.9-12.4-30.1-28.2l-1.4-19.8c-1.2-14.8-9.8-28.4-22.6-35.3
		c-0.4-0.1-1.4-0.7-2.3-1.3c-13.7-8.1-29.3-8.6-43-2.2l-17.9,8.4c-14.7,7-32.1,1.6-39.7-12.4l-28.6-49.2
		c-8.4-13.5-4.4-31.4,9.1-40.4L53,277.4c12.4-8.5,19.6-22.7,19.6-38.9c0-16.9-7.3-31.5-19.5-39.9l-16.5-11.3
		c-12.8-9-16.7-26.2-9.1-40.2l28.8-50C64.7,83.3,82.1,78.1,96,85l18.3,8.9c13.3,6.4,29.2,5.8,41.7-1.5c2.2-1.3,3.2-1.9,4-2.3
		c12.5-6.8,20.9-20.1,22.1-35.2l1.4-19.7C184.1,19.6,197.4,7,213.7,7h57.8c15.7,0,28.9,12.4,30.2,28.2l1.4,19.8
		c1.2,15,9.7,28.2,22.6,35.3c0.1,0.1,1.9,1.1,2,1.1c14,8.3,29.6,8.9,43.3,2.4l17.9-8.4c14.5-7.1,32-1.6,39.7,12.3l28.6,49.2
		c8.4,13.5,4.4,31.4-9.1,40.4l-16.3,11.2c-12.4,8.5-19.5,22.7-19.5,38.9c0,16.9,7.3,31.5,19.5,39.9c0,0,0,0,0,0l15.5,10.8
		c12.8,9,16.6,26.2,9,40.2l-28.8,50c-8.6,13.8-25.8,19.1-39.8,12.1l-17.6-8.3c-13.4-6.5-29.4-5.9-41.8,1.4c-2.1,1.3-3.1,1.9-3.9,2.3
		c-12.4,6.7-21,20.3-22.2,35.2l-1.4,19.7C300.1,456.5,286.8,468.9,270.6,468.9z M166.3,371.2c18.2,9.9,29.8,28,31.4,48.5l1.4,19.8
		c0.6,7.4,6.7,13.2,14,13.2h57.4c7.5,0,13.7-5.7,14-13l1.4-20c1.7-20.6,13.3-38.7,31-48.4l5.9,6l-2.6-7.9c16.8-10,38.7-10.8,56.8-2
		l17.8,8.4c6.7,3.3,14.7,0.7,18.8-5.8l28.5-49.6c3.5-6.6,1.8-14.7-4.2-19l-15.5-10.8c-16.6-11.4-26.5-30.9-26.5-52.3
		c0-22.6,9.7-41.7,26.6-53.2l16.4-11.3c6.2-4.2,8.1-12.5,4.3-18.7l-28.8-49.6c-3.6-6.7-11.6-9-18.6-5.7l-18,8.5
		c-18.5,8.7-39.8,7.9-56.9-2.2c0,0-1.8-1-1.8-1c-19-10.4-30.6-28.5-32.3-49l-1.4-19.8c-0.6-7.2-6.9-13.2-14-13.2h-57.8
		c-7.6,0-13.7,5.7-14,12.9l-1.4,20c-1.7,20.6-13.2,38.7-31,48.4c0,0-3.4,1.9-3.4,2c-16.8,9.9-38.6,10.7-56.7,2l-18.3-9
		c-6.5-3.2-14.7-0.6-18.7,5.9l-28.5,49.6c-3.6,6.5-1.8,14.7,4.2,18.9l16.4,11.3c16.6,11.4,26.6,30.9,26.6,52.3
		c0,22.6-9.7,41.6-26.6,53.2l-16.4,11.3c-6.2,4.2-8.1,12.5-4.3,18.7l28.8,49.5c3.6,6.7,11.6,8.9,18.6,5.7l18-8.5
		c18.5-8.8,39.8-8,57,2.2l-1,8.8L166.3,371.2z M242.4,356.6c-65.4,0-118.6-53.2-118.6-118.6c0-65.4,53.2-118.5,118.6-118.5
		S360.9,172.6,360.9,238C360.9,303.4,307.7,356.6,242.4,356.6z M242.4,135.6C185.9,135.6,140,181.6,140,238
		c0,56.4,45.9,102.4,102.4,102.4c56.4,0,102.4-46,102.4-102.4C344.7,181.6,298.8,135.6,242.4,135.6z"/>
</g>
<g id="_x32_4_x2F_7_acccess" class="st0">
	<g class="st1">
		<path class="st2" d="M240,105.2c-4.9,0-8.9,4-8.9,8.9v130.8c0,2.8,1.3,5.4,3.5,7.1l84.5,64.2c1.6,1.3,3.5,1.8,5.4,1.8
			c2.7,0,5.3-1.2,7-3.5c3-3.9,2.2-9.5-1.7-12.4l-81-61.6V114.1C248.8,109.2,244.9,105.2,240,105.2z"/>
		<path class="st2" d="M455.4,210.4c-0.8-4.8-5-8.2-10.1-7.3c-4.8,0.8-8.1,5.3-7.3,10.1c9,56.5-6.6,114.4-42.7,158.6
			c-33.9,41.5-81.9,67.3-135.2,72.7c-53.2,5.4-105.5-10.4-147-44.3c-85.6-70-98.3-196.6-28.4-282.2c59.5-72.7,161.3-93.8,244-53
			l-28.4,9.1c-1.1,0.4-1.9,1.4-2,2.6c-0.1,1.2,0.5,2.3,1.6,2.9L324.1,92c0.4,0.2,0.9,0.3,1.3,0.3c0.3,0,0.6,0,0.9-0.1l43.2-13.9
			c1.5-0.5,2.4-2.2,1.9-3.7l-13.9-43.2c-0.3-0.8-0.8-1.4-1.5-1.7l-24.3-12.5c-1.1-0.6-2.3-0.4-3.3,0.4c-0.9,0.8-1.2,2-0.9,3.2
			l9.2,28.6C247,4.7,135.8,27.6,71,106.9C-5.2,200,8.7,337.8,101.9,414c40.4,33.1,89.3,49.2,137.9,49.2
			c63.3,0,126.1-27.4,169.2-80.1C448.4,334.9,465.3,271.9,455.4,210.4z"/>
	</g>
</g>
<g id="CoVid_safe" class="st0">
	<path class="st3" d="M262.6,450.3h-41.8c-15.8,0-28.7-12.9-28.7-28.7c0-13.1,8.8-24.2,20.9-27.6v-9.2c-20.7-4-40.4-12.1-57.8-24
		l-6.5,6.5c6.1,10.9,4.5,25-4.8,34.3c-10.8,10.9-29.9,10.8-40.7,0l-29.5-29.5c-11.2-11.2-11.2-29.5,0-40.7
		c8.8-8.9,23.5-10.8,34.3-4.8l6.5-6.5c-11.8-17.4-20-37.2-24-57.8h-9.1c-3.4,12-14.5,20.9-27.7,20.9c-15.8,0-28.7-12.9-28.7-28.7
		v-41.8c0-15.8,12.9-28.7,28.7-28.7c13.2,0,24.3,8.8,27.7,20.9h9.2c3.9-20.6,12.1-40.4,23.9-57.9l-6.4-6.4
		c-10.8,5.9-25.5,4.1-34.3-4.8c-11.2-11.2-11.2-29.4,0-40.6l29.5-29.5c11.2-11.2,29.5-11.2,40.6,0c9.3,9.3,10.9,23.4,4.8,34.3
		l6.5,6.5c17.4-11.8,37.2-20,57.9-24v-9.1c-12-3.4-20.9-14.6-20.9-27.7c0-15.8,12.9-28.7,28.7-28.7h41.8c15.8,0,28.7,12.9,28.7,28.7
		c0,13.1-8.8,24.2-20.9,27.7v9.1c20.7,3.9,40.4,12.1,57.8,23.9l6.5-6.5c-2.3-4.2-3.6-9-3.6-14c0-7.7,3-15,8.4-20.4
		c11.2-11.2,29.4-11.2,40.6,0l29.5,29.5c11.2,11.2,11.2,29.4,0,40.6c-9.3,9.3-23.4,10.9-34.3,4.8L369,147
		c11.8,17.4,20,37.2,23.9,57.9h9.1c3.4-12,14.5-20.9,27.7-20.9c15.8,0,28.7,12.9,28.7,28.7v41.8c0,15.8-12.9,28.7-28.7,28.7
		c-13.1,0-24.2-8.8-27.7-20.9h-9.2c-3.9,20.7-12.1,40.4-24,57.8l6.5,6.5c10.9-6.1,25-4.5,34.3,4.8c11.2,11.3,11.2,29.5,0,40.7
		l-29.5,29.5c-10.9,10.8-29.9,10.8-40.7,0c-5.4-5.4-8.4-12.6-8.4-20.3c0-5,1.3-9.8,3.6-14l-6.4-6.4c-17.4,11.8-37.2,20-57.9,24v9.1
		c12,3.4,20.9,14.5,20.9,27.6C291.4,437.4,278.5,450.3,262.6,450.3z M154.3,342.7c1.6,0,3.3,0.5,4.7,1.6
		c18.5,13.7,40.2,22.8,63,26.1c3.9,0.5,6.7,3.9,6.7,7.8v22.6c0,4.3-3.5,7.8-7.8,7.8c-7.1,0-13,6-13,13c0,7.1,6,13,13,13h41.8
		c7.1,0,13-6,13-13c0-7.1-6-13-13-13c-4.3,0-7.8-3.5-7.8-7.8v-22.5c0-3.9,2.8-7.2,6.7-7.8c22.8-3.3,44.6-12.4,63-26.2
		c3.1-2.3,7.5-2,10.3,0.7l15.9,15.9c1.5,1.5,2.3,3.5,2.3,5.6c0,2.1-0.8,4.1-2.3,5.6c-2.4,2.4-3.8,5.7-3.8,9.2c0,3.5,1.4,6.8,3.8,9.2
		c4.9,4.9,13.5,4.9,18.5,0l29.5-29.5c5-5,5-13.4,0-18.4c-5-5-13.4-5-18.4,0c-3,3.1-8,3.1-11.1,0l-16-15.9c-2.8-2.8-3.1-7.1-0.7-10.3
		c13.8-18.4,22.8-40.2,26.1-63c0.6-3.9,3.9-6.7,7.8-6.7h22.6c4.3,0,7.8,3.5,7.8,7.8c0,7.1,6,13,13,13s13-6,13-13v-41.8
		c0-7.1-6-13-13-13s-13,6-13,13c0,4.3-3.5,7.8-7.8,7.8h-22.5c-3.9,0-7.2-2.8-7.8-6.7c-3.3-22.8-12.3-44.6-26.1-63
		c-2.3-3.1-2-7.5,0.7-10.2l15.9-15.9c1.5-1.5,3.5-2.3,5.5-2.3l0,0c2.1,0,4.1,0.8,5.6,2.3c4.9,4.9,13.4,4.9,18.4,0
		c2.4-2.4,3.7-5.7,3.7-9.2s-1.3-6.8-3.7-9.2l-29.5-29.5c-5.1-5-13.5-5-18.5,0c-2.5,2.5-3.8,5.7-3.8,9.2s1.3,6.8,3.8,9.2
		c1.5,1.5,2.3,3.5,2.3,5.5c0,2.1-0.8,4.1-2.3,5.6l-16,16c-2.8,2.7-7.1,3.1-10.3,0.7c-18.4-13.8-40.2-22.8-62.9-26
		c-3.9-0.6-6.7-3.9-6.7-7.8V66.5c0-4.3,3.5-7.8,7.8-7.8c7.1,0,13-6,13-13.1c0-7.1-6-13-13-13h-41.8c-7.1,0-13,6-13,13
		c0,7.1,6,13.1,13,13.1c4.3,0,7.8,3.5,7.8,7.8V89c0,3.9-2.8,7.2-6.7,7.8c-22.8,3.3-44.6,12.3-63,26.1c-3.1,2.4-7.5,2.1-10.3-0.7
		l-15.9-16c-3-3.1-3-8,0-11.1c5-5,5-13.4,0-18.4c-4.8-4.8-13.6-4.8-18.4,0l-29.5,29.5c-2.4,2.4-3.7,5.7-3.7,9.2s1.3,6.8,3.7,9.2
		c4.9,4.8,13.6,4.8,18.4,0c1.5-1.5,3.5-2.3,5.6-2.3l0,0c2.1,0,4.1,0.8,5.5,2.3l15.9,15.9c2.8,2.7,3.1,7.1,0.7,10.2
		c-13.8,18.5-22.8,40.3-26,63c-0.6,3.9-3.9,6.7-7.8,6.7H74.6c-4.3,0-7.8-3.5-7.8-7.8c0-7.2-5.9-13-13.1-13c-7.1,0-13,6-13,13v41.8
		c0,7.1,6,13,13,13c7.2,0,13.1-5.9,13.1-13c0-4.3,3.5-7.8,7.8-7.8h22.5c3.9,0,7.2,2.8,7.8,6.7c3.3,22.8,12.3,44.5,26.1,63
		c2.3,3.1,2,7.5-0.7,10.2l-15.9,16c-1.5,1.5-3.5,2.3-5.6,2.3l0,0c-2.1,0-4.1-0.8-5.6-2.3c-4.9-4.9-13.6-4.9-18.4,0
		c-5,5-5,13.4,0,18.4l29.5,29.5c4.9,4.9,13.6,4.9,18.4,0c5-5,5-13.4,0-18.4c-3.1-3.1-3.1-8,0-11.1l15.9-16
		C150.2,343.5,152.3,342.7,154.3,342.7z M301.2,277.1c-19.7,0-35.7-16-35.7-35.7c0-19.7,16-35.7,35.7-35.7c19.7,0,35.7,16,35.7,35.7
		C336.9,261.1,320.9,277.1,301.2,277.1z M301.2,221.4c-11,0-20,9-20,20c0,11,9,20,20,20c11,0,20-9,20-20
		C321.2,230.4,312.3,221.4,301.2,221.4z M193,234.4c-27.4,0-49.6-22.2-49.6-49.5c0-27.4,22.2-49.6,49.6-49.6
		c27.4,0,49.6,22.3,49.6,49.6C242.6,212.2,220.4,234.4,193,234.4z M193,151c-18.7,0-33.9,15.2-33.9,34c0,18.7,15.2,33.8,33.9,33.8
		s33.9-15.2,33.9-33.8C226.9,166.2,211.7,151,193,151z"/>
</g>
<g id="Desk" class="st0">
	<path class="st3" d="M454.8,439.7h-34.4c-4.6,0-8.3-3.7-8.3-8.3V221.3H71.4v210.1c0,4.6-3.7,8.3-8.3,8.3H28.7
		c-4.6,0-8.3-3.7-8.3-8.3V178.6c0-4.6,3.7-8.3,8.3-8.3h312.7v-14.6c0-4.6,3.7-8.3,8.3-8.3h23.8V49l0,0c0,0-0.7-8.4-5.6-10.9
		c-3.9-2-11-0.5-19.8,4.2c7.6,13.9,5.5,31.6-6.2,43.3l-22.4,22.4c-3.2,3.2-8.5,3.2-11.7,0L267.8,68c-3.2-3.2-3.2-8.5,0-11.7
		L290.2,34c12.6-12.6,32.2-14.1,46.5-4.3c15.8-9.2,28.9-11.4,38.8-6.3c13.4,6.9,14.5,23.4,14.5,25.3l0,98.8h23.8
		c4.6,0,8.3,3.7,8.3,8.3v14.6h32.7c4.6,0,8.3,3.7,8.3,8.3v252.8C463,436,459.3,439.7,454.8,439.7z M428.6,423.1h17.8V221.3h-17.8
		V423.1z M37,423.1h17.9V221.3H37V423.1z M37,204.7h409.5v-17.8H37V204.7z M358,170.3h47.5V164H358V170.3z M285.4,62.2l28.2,28.2
		l16.5-16.5c3.7-3.7,5.8-8.8,5.8-14.1c0-5.4-2.1-10.4-5.8-14.1c-7.8-7.8-20.4-7.7-28.2,0L285.4,62.2z"/>
</g>
<g id="Meeting_room" class="st0">
	<path class="st3" d="M452.3,181.1h-28.4v-59.4c0-13.4-10.9-24.4-24.4-24.4h-319c-13.4,0-24.4,10.9-24.4,24.4v59.4H27.7
		c-13.4,0-24.4,10.9-24.4,24.4v121.9c0,13.4,10.9,24.4,24.4,24.4h28.5v12.8c0,8.2,6.7,14.9,14.9,14.9h17c8.2,0,14.9-6.7,14.9-14.9
		v-12.8H377v12.8c0,8.2,6.7,14.9,14.9,14.9h17c8.2,0,14.9-6.7,14.9-14.9v-12.8h28.4c13.4,0,24.4-10.9,24.4-24.4V205.5
		C476.7,192.1,465.8,181.1,452.3,181.1z M405.8,351.8l-0.2,9.8l-10.7-0.3v-9.4H405.8z M84.9,351.8l-0.2,9.8L74,361.2v-9.4H84.9z
		 M21.2,205.5c0-3.6,2.9-6.5,6.5-6.5h43.9c3.6,0,6.5,2.9,6.5,6.5v77.3h323.8v-77.3c0-3.6,2.9-6.5,6.5-6.5h43.9
		c3.6,0,6.5,2.9,6.5,6.5v121.9c0,3.6-2.9,6.5-6.5,6.5H27.7c-3.6,0-6.5-2.9-6.5-6.5V205.5z M74,121.8c0-3.6,2.9-6.5,6.5-6.5h150.5
		v149.6H96v-59.4c0-12.6-9.6-23-22-24.3V121.8z M406,181.3c-12.3,1.2-22,11.6-22,24.3v59.4H249V115.3h150.5c3.6,0,6.5,2.9,6.5,6.5
		V181.3z"/>
</g>
<g id="Offices_2_plus" class="st0">
	<g class="st1">
		<path class="st2" d="M457.8,199h-73.7v-22.1c0-4.1-3.3-7.4-7.4-7.4c-11.3,0-21.3,5.2-28,13.2c-1.8-1.1-3.7-2.1-5.7-2.7l-15.1-5
			c-6-2-10.1-7.6-10.1-14v-6.2h81.1c8.1,0,14.7-6.6,14.7-14.7V22.1c0-8.1-6.6-14.7-14.7-14.7H192.4c-8.1,0-14.7,6.6-14.7,14.7V140
			c0,8.1,6.6,14.7,14.7,14.7h81.1v6.2c0,6.4-4.1,12-10.1,14l-15.1,5c-9,3-15.5,10.2-18,19h-89.5V73.7c0-4.1-3.3-7.4-7.4-7.4H45
			c-4.1,0-7.4,3.3-7.4,7.4V199H15.5c-4.1,0-7.4,3.3-7.4,7.4v44.2V457c0,4.1,3.3,7.4,7.4,7.4H45c4.1,0,7.4-3.3,7.4-7.4v-51.6h73.7
			V457c0,4.1,3.3,7.4,7.4,7.4h29.5c4.1,0,7.4-3.3,7.4-7.4V258h169.5v51.6H244c-20.3,0-36.9,16.5-36.9,36.9v14.7
			c0,4.1,3.3,7.4,7.4,7.4h59v5.6c0,17.2-6.4,33.4-18,46H244c-12.2,0-22.1,9.9-22.1,22.1c0,12.2,9.9,22.1,22.1,22.1h103.2
			c12.2,0,22.1-9.9,22.1-22.1c0-12.2-9.9-22.1-22.1-22.1h-11.5c-11.6-12.6-18-28.8-18-46v-5.6H362c12.2,0,22.1-9.9,22.1-22.1v-29.5
			v-59h36.9v199c0,4.1,3.3,7.4,7.4,7.4h29.5c4.1,0,7.4-3.3,7.4-7.4V250.6v-44.2C465.2,202.3,461.9,199,457.8,199z M398.8,22.1
			l0,88.5H192.4V22.1H398.8z M192.4,125.3h206.4V140H192.4L192.4,125.3z M253,193.9l15.1-5c12.1-4,20.2-15.3,20.2-28v-6.2H303v6.2
			c0,12.7,8.1,23.9,20.2,28l15.1,5c1.2,0.4,2.3,1,3.4,1.7c-0.3,1.1-0.8,2.2-1,3.4h-94.3C247.9,196.7,250.2,194.9,253,193.9
			L253,193.9z M126.1,154.8H52.4v-29.5h73.7V154.8z M126.1,81v29.5H52.4V81H126.1z M52.4,169.5h73.7V199H52.4V169.5z M37.6,449.6
			H22.9V258h14.7V449.6z M126.1,258v59H52.4v-59H126.1z M52.4,390.6v-59h73.7v59H52.4z M155.6,449.6h-14.7V258h14.7V449.6z
			 M162.9,243.2h-29.5H45H22.9v-29.5h317v29.5H162.9z M354.6,206.4c0-9.6,6.2-17.8,14.7-20.9v124.1h-14.7V206.4z M354.6,442.2
			c0,4.1-3.3,7.4-7.4,7.4H244c-4.1,0-7.4-3.3-7.4-7.4s3.3-7.4,7.4-7.4h103.2C351.3,434.9,354.6,438.2,354.6,442.2z M316.9,420.1
			h-42.6c9.1-13.5,13.9-29.4,13.9-46v-5.6H303v5.6C303,390.7,307.9,406.6,316.9,420.1z M369.3,346.4c0,4.1-3.3,7.4-7.4,7.4H221.9
			v-7.4c0-12.2,9.9-22.1,22.1-22.1h125.3V346.4z M384.1,213.7h66.3v29.5h-22.1h-44.2V213.7z M450.4,449.6h-14.7V258h14.7V449.6z"/>
		<path class="st2" d="M74.5,272.7H104v14.7H74.5V272.7z"/>
		<path class="st2" d="M74.5,346.4H104v14.7H74.5V346.4z"/>
	</g>
</g>
<g id="Investment" class="st0">
	<path class="st3" d="M244.9,188.1c50.4,18,119.4,42.7,119.4,115.6c0,56.8-34,99.5-89.2,113v32.6c0,10.1-8.2,18.3-18.3,18.3h-36.9
		c-10.1,0-18.3-8.2-18.3-18.3v-33c-43.4-12.2-90.6-50.9-90.6-124.3c0-10.1,8.2-18.3,18.3-18.3h51.8c10.1,0,18.3,8.2,18.3,18.3
		c0,28.9,16.1,46.2,43,46.2c20.1,0,33.5-11.5,33.5-28.6c0-16.6-11.7-23.6-37.8-32.8c-57.2-20.1-116.3-40.9-116.3-118.2
		c0-47.2,31.7-86.5,79.8-100v-33c0-10.1,8.2-18.3,18.3-18.3h36.9c10.1,0,18.3,8.2,18.3,18.3v33.7c49.8,14.6,81.6,57.6,81.6,111.5
		c0,10.1-8.2,18.3-18.3,18.3h-51.8c-10.1,0-18.3-8.2-18.3-18.3c0-21.6-10.6-34-29-34c-8.7,0-29,2.1-29,21.8c0,8.1,2.6,17.7,34,29.2
		 M180.7,292l-51.5,0.4c0.3,66.1,45.2,99.3,83.6,107.5l7.4,1.6v47.8l36.6-0.4l-0.4-47.5l7.6-1.4c51.1-9.7,81.6-45.7,81.6-96.3
		c0-59.8-56.9-80.1-107-98l-0.9-0.3c-22.8-8.4-46.2-20.5-46.2-46.7c0-24.6,18.7-40.5,47.7-40.5c29,0,47.7,20.7,47.7,52.6l51.5-0.4
		c-0.4-47.1-29.6-84.5-74.7-94.8l-7.2-1.7V25.6L219.8,26l0.4,47.5l-7.3,1.6c-43.3,9.4-72.4,43-72.4,83.6c0,64.1,48.1,81,103.8,100.6
		c21.3,7.5,50.3,17.8,50.3,50.4c0,27.4-21.9,47.2-52.2,47.2C204.9,356.8,180.7,331.4,180.7,292z"/>
</g>
<g id="No_lease_liability" class="st0">
	<path class="st3" d="M397.7,467.6H70.9c-5.3,0-9.5-4.3-9.5-9.5V19.6c0-5.3,4.3-9.5,9.5-9.5h237.9c0,0,0,0,0,0c2.6,0,5,1.1,6.7,2.8
		l88.8,88.8c1.7,1.7,2.8,4.1,2.8,6.7v0v349.7C407.2,463.3,403,467.6,397.7,467.6z M80.5,448.5h307.8V117.9h-79.3
		c-5.3,0-9.5-4.3-9.5-9.5V29.1H80.5V448.5z M318.4,98.9h56.3l-56.3-56.3V98.9z M334.9,360.3H137.2c-5.3,0-9.5-4.3-9.5-9.5
		s4.3-9.5,9.5-9.5h197.7c5.3,0,9.5,4.3,9.5,9.5S340.2,360.3,334.9,360.3z M334.9,288.6H137.2c-5.3,0-9.5-4.3-9.5-9.5
		c0-5.3,4.3-9.5,9.5-9.5h197.7c5.3,0,9.5,4.3,9.5,9.5C344.4,284.3,340.2,288.6,334.9,288.6z M334.9,217H137.2
		c-5.3,0-9.5-4.3-9.5-9.5c0-5.3,4.3-9.5,9.5-9.5h197.7c5.3,0,9.5,4.3,9.5,9.5C344.4,212.7,340.2,217,334.9,217z"/>
</g>
<g id="Strategy_support" class="st0">
	<g class="st1">
		<path class="st2" d="M273.7,418.6H168.9c-5.2,0-9.4,4.2-9.4,9.4c0,5.2,4.2,9.4,9.4,9.4h104.8c5.2,0,9.4-4.2,9.4-9.4
			C283.1,422.8,278.9,418.6,273.7,418.6z"/>
		<path class="st2" d="M261.9,447.4h-80.6c-3.5,0-5.7,3.6-4.2,6.7c2.8,5.9,9.8,13.4,27.6,13.4h33.9c17.8,0,24.8-7.6,27.6-13.4
			C267.6,451,265.3,447.4,261.9,447.4z"/>
		<path class="st2" d="M192.4,54.5c-64,14.9-79.8,75.4-80.5,77.9c-1.3,5,1.8,10.1,6.8,11.4c0.8,0.2,1.6,0.3,2.3,0.3
			c4.2,0,8-2.8,9.1-7.1c0.5-2.1,13.9-51.9,66.5-64.2c5.1-1.2,8.2-6.3,7-11.3C202.6,56.5,197.4,53.3,192.4,54.5z"/>
		<path class="st2" d="M373.2,140.8C362,60.5,289.2,3.2,207.8,10.7c-33.8,3.1-63.2,15.5-87.3,36.9C79,84.5,62,130.7,70.1,184.8
			c4.3,28.6,19.6,52.2,35.6,73.4c15.1,20,24.7,43.2,30.3,73.2c0.9,5,1.4,10.1,1.8,15.3c0.4,5.2,0.9,10.3,1.8,15.4
			c2.3,13.5,10.7,21,24.4,21.8c11,0.6,34.1,1,57.3,1c23.1,0,46.3-0.3,57.3-1c13.6-0.8,21.9-8,24.5-21.5c1.4-7.5,2.2-15.2,2.8-22.8
			c2.5-29.8,17.8-66.8,37.3-90.1C368.5,219,378.9,181.5,373.2,140.8z M328.7,237.2c-22.1,26.4-38.8,66.8-41.7,100.7
			c-0.6,7-1.2,14-2.5,20.8c-1,5-2,5.9-7.1,6.2c-21,1.2-91.4,1.2-112.3,0c0,0,0,0,0,0c-5-0.3-6.1-1.2-6.9-6.1
			c-0.8-4.6-1.2-9.3-1.6-13.9c-0.5-5.7-1-11.4-2.1-17.1c-6.1-32.5-17.1-59.1-33.8-81.1c-16.7-22.2-28.5-41.7-32-64.8
			c-7.1-47.4,7.9-87.9,44.4-120.3c21-18.6,46.7-29.5,76.4-32.2c4.2-0.4,8.3-0.6,12.5-0.6c66.3,0,123.3,48.3,132.6,114.6
			C359.6,179.2,350.9,210.7,328.7,237.2z"/>
		<path class="st2" d="M282.5,393.2H160.1c-5.2,0-9.4,4.2-9.4,9.4s4.2,9.4,9.4,9.4h122.4c5.2,0,9.4-4.2,9.4-9.4
			S287.7,393.2,282.5,393.2z"/>
	</g>
</g>
<g id="Community">
	<g>
		<g>
			<path class="st2" d="M392.9,112.1c5.9-7.2,9.5-16.5,9.5-26.5V73.9c0-23.1-18.8-41.9-41.9-41.9c-23.1,0-41.9,18.8-41.9,41.9v11.7
				c0,10.1,3.6,19.3,9.5,26.5c-28.6,4.8-50.4,29.6-50.4,59.5v17.8c0,4.5,3.6,8.1,8.1,8.1h149.5c4.5,0,8.1-3.6,8.1-8.1v-17.8
				C443.3,141.7,421.4,116.8,392.9,112.1z M334.7,73.9c0-14.2,11.5-25.7,25.7-25.7s25.7,11.5,25.7,25.7v11.7
				c0,14.2-11.5,25.7-25.7,25.7s-25.7-11.5-25.7-25.7V73.9z M293.8,181.3v-9.7c0-24.3,19.8-44.1,44.1-44.1h45
				c24.3,0,44.1,19.8,44.1,44.1v9.7H293.8z"/>
		</g>
	</g>
	<g>
		<g>
			<path class="st2" d="M279.1,84.9h-42.3c-4.5,0-8.1,3.6-8.1,8.1s3.6,8.1,8.1,8.1h42.3c4.5,0,8.1-3.6,8.1-8.1
				C287.3,88.5,283.6,84.9,279.1,84.9z"/>
		</g>
	</g>
	<g>
		<g>
			<path class="st2" d="M206.9,87.3c-1.5-1.5-3.6-2.4-5.7-2.4c-2.1,0-4.2,0.9-5.7,2.4c-1.5,1.5-2.4,3.6-2.4,5.7
				c0,2.1,0.9,4.2,2.4,5.7c1.5,1.5,3.6,2.4,5.7,2.4c2.1,0,4.2-0.9,5.7-2.4c1.5-1.5,2.4-3.6,2.4-5.7
				C209.3,90.9,208.4,88.8,206.9,87.3z"/>
		</g>
	</g>
	<g>
		<g>
			<path class="st2" d="M256.7,379h-42.8c-4.5,0-8.1,3.6-8.1,8.1c0,4.5,3.6,8.1,8.1,8.1h42.8c4.5,0,8.1-3.6,8.1-8.1
				C264.8,382.6,261.2,379,256.7,379z"/>
		</g>
	</g>
	<g>
		<g>
			<path class="st2" d="M88.2,210.5c-4.5,0-8.1,3.6-8.1,8.1v42.3c0,4.5,3.6,8.1,8.1,8.1s8.1-3.6,8.1-8.1v-42.3
				C96.3,214.2,92.7,210.5,88.2,210.5z"/>
		</g>
	</g>
	<g>
		<g>
			<path class="st2" d="M382.4,210.5c-4.5,0-8.1,3.6-8.1,8.1v42.3c0,4.5,3.6,8.1,8.1,8.1c4.5,0,8.1-3.6,8.1-8.1v-42.3
				C390.5,214.2,386.9,210.5,382.4,210.5z"/>
		</g>
	</g>
	<g>
		<g>
			<path class="st2" d="M142.6,112.1c5.9-7.2,9.5-16.5,9.5-26.5V73.9c0-23.1-18.8-41.9-41.9-41.9c-23.1,0-41.9,18.8-41.9,41.9v11.7
				c0,10.1,3.6,19.3,9.5,26.5c-28.6,4.8-50.4,29.6-50.4,59.5v17.8c0,4.5,3.6,8.1,8.1,8.1h149.5c4.5,0,8.1-3.6,8.1-8.1v-17.8
				C193,141.7,171.2,116.8,142.6,112.1z M84.4,73.9c0-14.2,11.5-25.7,25.7-25.7s25.7,11.5,25.7,25.7v11.7
				c0,14.2-11.5,25.7-25.7,25.7S84.4,99.7,84.4,85.5V73.9z M176.8,181.3H43.5v-9.7c0-24.3,19.8-44.1,44.1-44.1h45
				c24.3,0,44.1,19.8,44.1,44.1L176.8,181.3L176.8,181.3z"/>
		</g>
	</g>
	<g>
		<g>
			<path class="st2" d="M392.9,362.6c5.9-7.2,9.5-16.5,9.5-26.5v-11.7c0-23.1-18.8-41.9-41.9-41.9s-41.9,18.8-41.9,41.9v11.7
				c0,10.1,3.6,19.3,9.5,26.5c-28.6,4.8-50.4,29.6-50.4,59.5v17.8c0,4.5,3.6,8.1,8.1,8.1h149.5c4.5,0,8.1-3.6,8.1-8.1v-17.8
				C443.3,392.3,421.4,367.4,392.9,362.6z M334.7,324.4c0-14.2,11.5-25.7,25.7-25.7s25.7,11.5,25.7,25.7v11.7
				c0,14.2-11.5,25.7-25.7,25.7s-25.7-11.5-25.7-25.7V324.4z M293.8,431.8v-9.7c0-24.3,19.8-44.1,44.1-44.1h45
				c24.3,0,44.1,19.8,44.1,44.1v9.7H293.8z"/>
		</g>
	</g>
	<g>
		<g>
			<path class="st2" d="M142.6,362.6c5.9-7.2,9.5-16.5,9.5-26.5v-11.7c0-23.1-18.8-41.9-41.9-41.9s-41.9,18.8-41.9,41.9v11.7
				c0,10.1,3.6,19.3,9.5,26.5c-28.6,4.8-50.4,29.6-50.4,59.5v17.8c0,4.5,3.6,8.1,8.1,8.1h149.5c4.5,0,8.1-3.6,8.1-8.1v-17.8
				C193,392.3,171.2,367.4,142.6,362.6z M84.4,324.4c0-14.2,11.5-25.7,25.7-25.7s25.7,11.5,25.7,25.7v11.7
				c0,14.2-11.5,25.7-25.7,25.7s-25.7-11.5-25.7-25.7V324.4z M176.8,431.8H43.5v-9.7c0-24.3,19.8-44.1,44.1-44.1h45
				c24.3,0,44.1,19.8,44.1,44.1L176.8,431.8L176.8,431.8z"/>
		</g>
	</g>
</g>
<g id="Tech_and_AV" class="st0">
	<path class="st3" d="M46.9,458c-2.7,0-4.8-1-6.4-1.9c-2.9-1.9-5.7-4.9-5.7-10.7l4.2-57.5c-19.6-20.8-30.4-46.7-30.4-73.4
		c0-51.8,39.2-94.8,95.2-110.6c-2.9-11-4.4-22.3-4.4-33.7C99.4,84.3,182,17,287.6,17s188.2,67.3,188.2,153.2
		c0,35.1-14.4,69.3-40.5,96.6l5.5,76.9c0,5.8-1.9,9.6-5.7,12.2c-4.2,2.3-11.8,2.6-14.7,0l-85.1-35c-12.7,3.1-26.3,4.9-40.7,5.4
		c-7.1,60.3-68.4,107.6-142.7,107.6c-12.5,0-24.6-1.3-35.7-4l-63,26C51.7,457,49.7,458,46.9,458z M41.5,446.2L41.5,446.2L41.5,446.2
		z M114.7,217.1c-53,12.4-90.7,50.8-90.7,97.5c0,23.6,10.1,46.7,28.4,65c1.6,1.6,2.4,3.8,2.2,6.1l-4,54.5l62-25.5
		c1.5-0.6,3.3-0.7,4.9-0.3c10.6,2.7,22.2,4.2,34.4,4.2c70.5,0,127.9-46.6,127.9-103.9c0-57-56.2-101.7-127.9-101.7
		c-12.7,0-24.8,1.4-36.3,4C115.3,216.9,115,217,114.7,217.1z M335.9,305.1c1,0,2,0.2,2.9,0.6l86.2,35.5l-5.5-76.7
		c-0.1-2.2,0.7-4.5,2.2-6c24.8-24.8,38.5-56.2,38.5-88.2c0-77.2-75.8-137.7-172.7-137.7S114.8,93,114.8,170.2
		c0,10.1,1.3,20.2,4,30.1c10.6-2,21.7-3,33.1-3c78.9,0,141,49.5,143.3,113.4c13.7-0.5,26.7-2.3,38.7-5.5
		C334.6,305.2,335.2,305.1,335.9,305.1z M198.1,347.3h-92.3c-4.3,0-7.7-3.5-7.7-7.7c0-4.3,3.5-7.7,7.7-7.7h92.3
		c4.3,0,7.7,3.5,7.7,7.7C205.8,343.9,202.4,347.3,198.1,347.3z M198.1,303.2h-92.3c-4.3,0-7.7-3.5-7.7-7.7c0-4.3,3.5-7.7,7.7-7.7
		h92.3c4.3,0,7.7,3.5,7.7,7.7C205.8,299.7,202.4,303.2,198.1,303.2z"/>
</g>
<g id="Cafe_icon" class="st0">
	<path class="st3" d="M345.2,466.5H66c-2.1,0-4.1-0.8-5.6-2.3l-25.1-25H11.1c-4.4,0-7.9-3.5-7.9-7.9c0-4.4,3.5-7.9,7.9-7.9h98.5
		C3.2,382.4,3.2,267.4,3.2,178.8c0-4.4,3.5-7.9,7.9-7.9h389c4.4,0,7.9,3.5,7.9,7.9c0,10.7,0,21.9-0.2,33.2
		c41,2.9,68.9,28.8,68.9,65.1c0,35.1-41.4,64.8-90.6,65.3c-15.2,34.8-40.9,64.1-84.6,81h98.5c4.4,0,7.9,3.5,7.9,7.9
		c0,4.4-3.5,7.9-7.9,7.9H376l-25.2,25C349.3,465.7,347.3,466.5,345.2,466.5z M69.3,450.7H342l11.6-11.5H57.7L69.3,450.7z M19,186.7
		c0.1,107.4,4.5,236.3,186.5,236.3c182.1,0,186.5-128.9,186.6-236.3H19z M407.4,227.9c-1.2,33.2-4.7,67.5-15.1,98.6
		c36.8-2.7,68.6-25,68.6-49.3C461,249.5,439.7,230.4,407.4,227.9z M188.1,146.6c-2.4,0-4.8-1.1-6.4-3.2c-2.6-3.5-1.8-8.5,1.7-11
		c9.7-7.1,16.9-17.9,18.3-27.5c0.8-5.2-0.2-9.8-3-13.5c-18.3-24.3-19.6-49.4-3.6-72.5c2.5-3.6,7.4-4.5,11-2c3.6,2.5,4.5,7.4,2,11
		c-12.2,17.7-11.2,34.8,3.2,53.9c5.4,7.1,7.5,15.8,6.1,25.3c-2,13.8-11.5,28.4-24.7,38C191.3,146.2,189.7,146.6,188.1,146.6z
		 M138.8,146.6c-2.4,0-4.8-1.1-6.4-3.2c-2.6-3.5-1.8-8.5,1.7-11c9.7-7.1,16.9-17.9,18.3-27.5c0.8-5.3-0.2-9.8-3-13.5
		C131.1,67,129.9,42,145.9,18.9c2.5-3.6,7.5-4.5,11-2c3.6,2.5,4.5,7.4,2,11c-12.3,17.7-11.2,34.8,3.2,53.9c5.4,7.1,7.4,15.9,6,25.3
		c-2,13.8-11.5,28.3-24.6,37.9C142,146.2,140.4,146.6,138.8,146.6z M89.5,146.6c-2.4,0-4.8-1.1-6.4-3.2c-2.6-3.5-1.8-8.5,1.7-11
		c9.7-7.1,16.9-17.8,18.4-27.5c0.8-5.3-0.2-9.8-3-13.5C81.8,67.1,80.5,42,96.5,18.9c2.5-3.6,7.5-4.5,11-2c3.6,2.5,4.5,7.4,2,11
		c-12.2,17.7-11.2,34.8,3.2,53.9c5.4,7.1,7.4,15.9,6,25.4c-2,13.8-11.5,28.3-24.7,37.9C92.7,146.2,91.1,146.6,89.5,146.6z"/>
</g>
</svg>
