<?xml version="1.0" encoding="utf-8"?>
<!-- Generator: Adobe Illustrator 25.0.1, SVG Export Plug-In . SVG Version: 6.00 Build 0)  -->
<svg version="1.1" id="Layer_1" xmlns="http://www.w3.org/2000/svg" xmlns:xlink="http://www.w3.org/1999/xlink" x="0px" y="0px"
	 viewBox="0 0 480 480" style="enable-background:new 0 0 480 480;" xml:space="preserve">
<style type="text/css">
	.st0{fill:#3B3D48;}
</style>
<path class="st0" d="M446.2,140.9L323.9,18.6c-2.5-2.5-6.6-2.5-9.1,0l-111,111c-8,8-8,20.9,0,28.9l5.1,5.1c0.2,0.7,0.5,1.5,0.9,2.1
	c8.5,12.6,9.4,27.5,2.4,42c-13.9,29-40.4,46.7-66.7,64.3c-14.1,9.5-28.6,19.3-41.1,30.8C60.4,344,35.1,375.4,28,423.2
	c-0.5,2.8-0.7,8,2.4,11.1c1.7,1.7,4.4,2.6,7.7,2.6c1.1,0,2.2-0.1,3.4-0.3c48-7.2,79.4-32.4,120.5-76.4c12-12.7,22.2-28,31.3-41.8
	c17.1-25.6,34.9-52.1,63.9-66c14.5-7,29.5-6.1,42,2.4c0.7,0.5,1.4,0.8,2.1,0.9l5.2,5.2c8,8,20.9,8,28.9,0l111-111
	c1.2-1.2,1.9-2.8,1.9-4.6C448.1,143.8,447.5,142.1,446.2,140.9z M251.4,240.8c-32.2,15.5-50.9,43.4-69.2,70.7
	c-8.7,13.1-18.5,27.9-29.8,39.9c-38.6,41.4-68,65.3-111.5,72.3c6.9-43.4,30.8-72.8,72.3-111.5c11.7-10.9,25.8-20.4,40.2-30
	c27-18.1,55-36.8,70.5-69c4.6-9.6,6.6-19.4,5.9-28.8l50.6,50.5C271,234.5,261.1,236.2,251.4,240.8z M326.2,251.9
	c-2.9,2.8-7.8,2.9-10.6,0L212.9,149.3c-2.9-2.9-2.9-7.8,0-10.7l15.7-15.7l113.2,113.3L326.2,251.9z M351,227.1L237.7,113.8
	l81.6-81.6l56.1,56.1L349,114.9c-2.5,2.5-2.5,6.6,0,9.1c2.5,2.5,6.6,2.5,9.1,0l26.4-26.5l16.3,16.3L345,169.6
	c-2.5,2.5-2.5,6.6,0,9.1c2.5,2.5,6.6,2.5,9.1,0l55.9-55.8l22.6,22.6L351,227.1z"/>
</svg>
