<?xml version="1.0" encoding="utf-8"?>
<!-- Generator: Adobe Illustrator 25.0.1, SVG Export Plug-In . SVG Version: 6.00 Build 0)  -->
<svg version="1.1" id="Layer_1" xmlns="http://www.w3.org/2000/svg" xmlns:xlink="http://www.w3.org/1999/xlink" x="0px" y="0px"
	 viewBox="0 0 480 480" style="enable-background:new 0 0 480 480;" xml:space="preserve">
<style type="text/css">
	.st0{fill:#3B3D48;}
</style>
<path class="st0" d="M451.4,283H439V46.3h12.3c4.3,0,7.8-3.5,7.8-7.8c0-4.3-3.5-7.8-7.8-7.8H247.9V18.5c0-4.3-3.5-7.8-7.8-7.8
	s-7.8,3.5-7.8,7.8v12.1H28.6c-4.3,0-7.8,3.5-7.8,7.8c0,4.3,3.5,7.8,7.8,7.8H41V283H28.6c-4.3,0-7.8,3.5-7.8,7.8s3.5,7.8,7.8,7.8
	h180.8l-66.1,158.7c-1.7,4,0.2,8.6,4.2,10.3c4,1.6,8.6-0.2,10.3-4.2l68.7-164.8h5.7v161.8c0,4.3,3.5,7.8,7.8,7.8s7.8-3.5,7.8-7.8
	V298.7h5.7l68.7,164.8c1.3,3,4.2,4.8,7.3,4.8c1,0,2-0.2,3-0.6c4-1.7,5.9-6.3,4.2-10.3l-66.1-158.7h180.8c4.3,0,7.8-3.5,7.8-7.8
	S455.7,283,451.4,283z M423.3,283H56.7V46.3h366.6V283z"/>
</svg>
