<?xml version="1.0" encoding="utf-8"?>
<!-- Generator: Adobe Illustrator 25.0.1, SVG Export Plug-In . SVG Version: 6.00 Build 0)  -->
<svg version="1.1" id="Layer_1" xmlns="http://www.w3.org/2000/svg" xmlns:xlink="http://www.w3.org/1999/xlink" x="0px" y="0px"
	 viewBox="0 0 480 480" style="enable-background:new 0 0 480 480;" xml:space="preserve">
<style type="text/css">
	.st0{fill:#3B3D48;}
</style>
<path class="st0" d="M377.1,403.4c-1,0-2.1-0.2-3-0.7c-2.3-1.2-3.8-3.6-3.8-6.2v-26.8h-43.5c-9.8,0-19.4-4-26.2-11L141.4,196.9
	c-0.4-0.3-0.8-0.6-1.2-0.9c-4.3-4.4-10.3-6.9-16.4-6.9h-9.7v26.8c0,2.6-1.5,5-3.8,6.2s-5.1,0.9-7.2-0.7l-88.3-68
	C13,152,12,150,12,147.8c0-2.1,1-4.1,2.7-5.5L103,74.4c2.1-1.6,4.9-1.8,7.2-0.7c2.3,1.2,3.8,3.6,3.8,6.2v26.8h43.5
	c9.3,0,18.4,3.6,25.2,10c0.5,0.3,0.9,0.6,1.3,1l160.1,162.8c4.3,4.4,10.3,6.9,16.4,6.9h9.8v-26.8c0-2.6,1.5-5,3.8-6.2
	c2.4-1.1,5.1-0.8,7.2,0.7l88.3,68c1.7,1.3,2.7,3.3,2.7,5.5s-1,4.1-2.7,5.5L381.3,402C380.1,402.9,378.6,403.4,377.1,403.4z M384,363
	v19.5l70.1-54l-70.1-54v19.7c0,4.1-3.8,7.4-7.8,6.9h-15.7c-9.8,0-19.3-4-26.2-11L175.1,128.3c-0.4-0.3-0.8-0.6-1.2-0.9
	c-4.3-4.4-10.3-6.9-16.4-6.9h-50.3c-3.8,0-6.9-3.1-6.9-6.9V93.9l-70.1,54l70.1,54V182c0-4.3,4.4-7.6,8.3-6.7h15.1
	c9.3,0,18.4,3.6,25.2,10c0.5,0.3,0.9,0.6,1.3,1l160.1,162.8c4.3,4.4,10.3,6.9,16.4,6.9h50.3c3.8,0,6.9,3.1,6.9,6.9V363z
	 M107.2,403.4c-1.5,0-3-0.5-4.2-1.4L14.7,334c-1.7-1.3-2.7-3.3-2.7-5.5s1-4.1,2.7-5.5l88.3-68c2.1-1.6,4.9-1.9,7.2-0.7
	c2.3,1.2,3.8,3.6,3.8,6.2v26.8h9.7c6.1,0,12.1-2.5,16.4-6.9c0.4-0.4,0.8-0.7,1.3-1l25.7-26.2c2.6-2.8,7-2.7,9.8-0.1
	c2.7,2.7,2.7,7,0.1,9.7l-26.7,27.2c-0.4,0.4-0.9,0.8-1.4,1.1c-6.8,6.3-15.8,9.9-25.1,9.9h-15.6c-4.3,0.7-7.9-2.6-7.9-6.7v-19.8
	l-70.1,54l70.1,54v-19.7c0-3.8,3.1-6.9,6.9-6.9h50.3c6.1,0,12.1-2.5,16.4-6.9c0.4-0.4,0.8-0.7,1.2-1l43.1-43.8
	c2.7-2.7,7-2.8,9.8-0.1c2.7,2.7,2.7,7,0.1,9.7L184,358.7c-0.4,0.4-0.9,0.8-1.4,1.1c-6.8,6.3-15.8,9.9-25.1,9.9h-43.5v26.8
	c0,2.6-1.5,5-3.8,6.2C109.3,403.2,108.2,403.4,107.2,403.4z M312.3,225.3c-1.7,0-3.5-0.7-4.8-2c-2.7-2.7-2.7-7-0.1-9.7l26.9-27.4
	c6.9-7,16.5-11,26.2-11h15.4c4.2-0.7,8.1,2.5,8.1,6.8v19.8l70.1-54l-70.1-54v19.5c0,3.8-3.1,7-6.9,7h-50.3c-6.1,0-12.1,2.5-16.4,6.9
	l-44.2,45c-2.7,2.7-7,2.7-9.8,0.1c-2.7-2.7-2.7-7-0.1-9.7l44.2-45c6.9-7,16.4-11,26.2-11h43.5V79.9c0-2.6,1.5-5,3.8-6.2
	c2.4-1.1,5.1-0.8,7.2,0.7l88.3,67.9c1.7,1.3,2.7,3.3,2.7,5.5c0,2.1-1,4.1-2.7,5.5l-88.3,68c-2.1,1.6-4.8,1.9-7.2,0.7
	c-2.3-1.2-3.8-3.6-3.8-6.2V189h-9.8c-6.1,0-12.1,2.5-16.4,6.9l-26.9,27.4C315.9,224.7,314,225.3,312.3,225.3z"/>
</svg>
