<?xml version="1.0" encoding="utf-8"?>
<!-- Generator: Adobe Illustrator 25.0.1, SVG Export Plug-In . SVG Version: 6.00 Build 0)  -->
<svg version="1.1" id="Layer_1" xmlns="http://www.w3.org/2000/svg" xmlns:xlink="http://www.w3.org/1999/xlink" x="0px" y="0px"
	 viewBox="0 0 480 480" style="enable-background:new 0 0 480 480;" xml:space="preserve">
<style type="text/css">
	.st0{fill:#3B3D48;}
</style>
<path class="st0" d="M238.3,476.9L238.3,476.9L238.3,476.9L238.3,476.9C238.3,476.9,238.3,476.9,238.3,476.9
	C238.3,476.9,238.3,476.9,238.3,476.9L238.3,476.9c-0.1,0-0.1,0-0.1,0h0c0,0,0,0,0,0l0,0c-0.8,0-1.6-0.2-2.3-0.5l0,0c0,0,0,0-0.1,0
	l0,0l0,0h0c0,0,0,0,0,0l0,0c0,0,0,0,0,0c0,0,0,0,0,0c0,0,0,0,0,0c0,0,0,0,0,0c0,0,0,0,0,0l0,0c0,0,0,0,0,0l0,0h0c0,0,0,0,0,0h0
	c0,0,0,0,0,0c0,0,0,0,0,0l0,0c0,0,0,0,0,0c0,0,0,0,0,0L19.7,371.5c-2.4-1.2-4-3.6-4-6.3V114.7v0c0,0,0,0,0,0s0,0,0,0l0,0
	c0,0,0,0,0,0v0l0,0c0,0,0,0,0,0v0c0,0,0,0,0,0l0,0v0c0,0,0,0,0,0l0,0v0c0,0,0-0.1,0-0.1l0,0v0l0,0c0,0,0,0,0,0l0,0
	c0.2-2.5,1.6-4.7,3.9-5.9l0,0c0,0,0,0,0,0c0,0,0,0,0,0L235.2,3.7c2-1,4.2-1,6.1,0l215.6,104.7c0,0,0.1,0,0.1,0l0,0v0
	c2.2,1.1,3.7,3.3,3.8,5.8l0,0c0,0,0,0,0,0l0,0v0l0,0c0,0,0,0.1,0,0.1v0l0,0c0,0,0,0,0,0v0l0,0c0,0,0,0,0,0v0c0,0,0,0,0,0l0,0v0
	c0,0,0,0,0,0l0,0c0,0,0,0,0,0s0,0,0,0v0v250.5c0,2.7-1.5,5.1-4,6.3L241.4,476.2c0,0,0,0,0,0l0,0c0,0-0.1,0-0.1,0c0,0,0,0,0,0h0
	c0,0,0,0-0.1,0c0,0,0,0,0,0c0,0-0.1,0,0,0c0,0-0.1,0-0.1,0l0,0c-0.8,0.3-1.7,0.5-2.5,0.5l0,0c0,0,0,0,0,0h0
	C238.4,476.9,238.4,476.9,238.3,476.9L238.3,476.9C238.3,476.9,238.3,476.9,238.3,476.9C238.3,476.9,238.3,476.9,238.3,476.9
	L238.3,476.9z M245.3,223.8v234.9l201.6-97.9V125.9L245.3,223.8z M29.7,360.8l201.6,97.9V223.8L29.7,125.9V360.8z M453.9,365.2h0.2
	H453.9z M38.7,114.7l199.6,96.9l199.6-96.9L238.3,17.8L38.7,114.7z"/>
</svg>
