<?xml version="1.0" encoding="utf-8"?>
<!-- Generator: Adobe Illustrator 25.0.1, SVG Export Plug-In . SVG Version: 6.00 Build 0)  -->
<svg version="1.1" id="Layer_1" xmlns="http://www.w3.org/2000/svg" xmlns:xlink="http://www.w3.org/1999/xlink" x="0px" y="0px"
	 viewBox="0 0 480 480" style="enable-background:new 0 0 480 480;" xml:space="preserve">
<style type="text/css">
	.st0{fill:#3B3D48;}
</style>
<g>
	<path class="st0" d="M384.4,228.5h-32.3c-8.9,0-17.3,1.3-25,3.9c-1.7,0.6-2.9,2-3.3,3.7c-0.3,1.7,0.3,3.5,1.7,4.7
		c38.1,31.7,47.2,96.4,49.4,122.7c0.2,2.5,2.3,4.5,4.9,4.5h91.6c2.7,0,4.9-2.2,4.9-4.9C476.3,361.8,475.2,228.5,384.4,228.5z
		 M384.2,358.3c-3.1-32.8-13.3-86.3-45.6-118.7c4.3-0.8,8.8-1.2,13.5-1.2h32.3c71.7,0,80.8,96.8,81.9,120H384.2z"/>
	<path class="st0" d="M373.1,212.5c27,0,49-22,49-48.9c0-27-22-49-49-49c-27,0-48.9,22-48.9,49C324.2,190.6,346.1,212.5,373.1,212.5
		z M373.1,124.4c21.6,0,39.2,17.6,39.2,39.2c0,21.6-17.6,39.2-39.2,39.2c-21.6,0-39.2-17.6-39.2-39.2
		C334,142,351.5,124.4,373.1,124.4z"/>
	<path class="st0" d="M255.6,228.5h-32.3c-90.8,0-91.8,133.3-91.8,134.6c0,2.7,2.2,4.9,4.9,4.9h206.1c2.7,0,4.9-2.2,4.9-4.9
		C347.4,361.8,346.4,228.5,255.6,228.5z M141.5,358.3c1.1-23.1,10.2-120,81.9-120h32.3c71.7,0,80.7,96.8,81.9,120H141.5z"/>
	<path class="st0" d="M155.1,236.1c-0.3-1.7-1.6-3.2-3.3-3.7c-7.7-2.6-16.1-3.9-25-3.9H94.6c-90.8,0-91.9,133.3-91.9,134.6
		c0,2.7,2.2,4.9,4.9,4.9h91.6c2.5,0,4.7-2,4.9-4.5c2.1-26.3,11.1-91,49.3-122.7C154.8,239.7,155.4,237.9,155.1,236.1z M94.8,358.3
		H12.7c1.1-23.1,10.2-120,81.9-120h32.3c4.7,0,9.2,0.4,13.5,1.2C107,273.2,97.4,330.2,94.8,358.3z"/>
	<path class="st0" d="M239.5,212.5c34.8,0,63.1-28.3,63.1-63.1c0-34.8-28.3-63.1-63.1-63.1c-34.8,0-63.1,28.3-63.1,63.1
		C176.3,184.2,204.7,212.5,239.5,212.5z M239.5,96.1c29.4,0,53.3,23.9,53.3,53.3c0,29.4-23.9,53.4-53.3,53.4
		c-29.4,0-53.4-23.9-53.4-53.4C186.1,120,210.1,96.1,239.5,96.1z"/>
	<path class="st0" d="M106.2,212.5c27,0,48.9-22,48.9-48.9c0-27-22-49-48.9-49c-27,0-49,22-49,49C57.3,190.6,79.2,212.5,106.2,212.5
		z M106.2,124.4c21.6,0,39.2,17.6,39.2,39.2c0,21.6-17.6,39.2-39.2,39.2c-21.6,0-39.2-17.6-39.2-39.2
		C67.1,142,84.6,124.4,106.2,124.4z"/>
</g>
</svg>
