<?xml version="1.0" encoding="utf-8"?>
<!-- Generator: Adobe Illustrator 25.0.1, SVG Export Plug-In . SVG Version: 6.00 Build 0)  -->
<svg version="1.1" id="Layer_1" xmlns="http://www.w3.org/2000/svg" xmlns:xlink="http://www.w3.org/1999/xlink" x="0px" y="0px"
	 viewBox="0 0 480 480" style="enable-background:new 0 0 480 480;" xml:space="preserve">
<style type="text/css">
	.st0{fill:#3B3D48;}
</style>
<g>
	<path class="st0" d="M468.1,227c0.1-1.1,0-2.3-0.5-3.4L427,122.2c-0.1-0.2-0.2-0.4-0.3-0.6C416.5,102,401,72.4,353.4,72.4
		c-43.4,0-59.1,22.8-69.5,41.9c-9.6-12.3-25.8-20.4-43.9-20.4c-18.2,0-34.4,8.1-44,20.4c-10.2-18.2-27.6-42-69.5-42
		c-47.7,0-61.9,27.2-72.2,47L12.3,223.6c-0.5,1.1-0.6,2.3-0.5,3.4c-5.3,12.4-8.3,26.1-8.3,40.5c0,56.6,46.1,102.7,102.7,102.7
		S209,324.2,209,267.6c0-10.3-1.5-20.2-4.4-29.6c0.2-16.2,16-29.4,35.4-29.4c19.4,0,35.2,13.2,35.4,29.4c-2.8,9.4-4.4,19.3-4.4,29.6
		c0,56.6,46.1,102.7,102.7,102.7s102.7-46.1,102.7-102.7C476.4,253.2,473.5,239.5,468.1,227z M65.7,128.1l1.1-2.2
		c10.1-19.4,20.5-39.5,59.7-39.5c35.3,0,48.8,18.8,60,40.1v77.1c-18.8-23.6-47.8-38.8-80.2-38.8c0,0-0.1,0-0.1,0
		c-24.3,0-46.8,8.5-64.4,22.7L65.7,128.1z M106.3,356.2c-48.9,0-88.7-39.8-88.7-88.7c0-15.7,4.1-30.5,11.3-43.4
		c10.3-13.4,39-45.3,77.3-45.3c0,0,0.1,0,0.1,0c29.2,0.1,59.5,21.5,76.4,43.8c7.7,13.2,12.2,28.5,12.2,44.9
		C194.9,316.5,155.1,356.2,106.3,356.2z M279.3,211.8c-9.1-10.5-23.3-17.2-39.3-17.2s-30.3,6.8-39.4,17.2V141
		c0-18.2,17.7-33,39.4-33s39.3,14.8,39.3,33V211.8z M293.3,126.6l0.2-0.3c10.2-19.6,20.8-39.9,59.9-39.9c38.8,0,50.5,21.9,60.7,41.4
		l23.9,59.8c-17.6-14.2-39.9-22.7-64.2-22.7c0,0-0.1,0-0.1,0c-32.5,0-61.5,15.2-80.4,38.8V126.6z M373.7,356.2
		c-48.9,0-88.7-39.8-88.7-88.7c0-15.7,4.1-30.4,11.2-43.2c10.2-13.3,38.9-45.5,77.5-45.5c0,0,0.1,0,0.1,0
		c29.2,0.1,59.4,21.4,76.3,43.8c7.8,13.2,12.3,28.5,12.3,44.9C462.4,316.5,422.6,356.2,373.7,356.2z"/>
	<path class="st0" d="M106.3,198.4c-38.1,0-69.2,31-69.2,69.2s31,69.2,69.2,69.2s69.2-31,69.2-69.2S144.4,198.4,106.3,198.4z
		 M106.3,322.7c-30.4,0-55.2-24.8-55.2-55.2c0-30.4,24.7-55.2,55.2-55.2s55.2,24.8,55.2,55.2C161.4,298,136.7,322.7,106.3,322.7z"/>
	<path class="st0" d="M373.7,198.4c-38.2,0-69.2,31-69.2,69.2s31,69.2,69.2,69.2c38.1,0,69.2-31,69.2-69.2S411.9,198.4,373.7,198.4z
		 M373.7,322.7c-30.4,0-55.2-24.8-55.2-55.2c0-30.4,24.8-55.2,55.2-55.2c30.4,0,55.2,24.8,55.2,55.2
		C428.9,298,404.2,322.7,373.7,322.7z"/>
</g>
</svg>
