<?xml version="1.0" encoding="utf-8"?>
<!-- Generator: Adobe Illustrator 25.0.1, SVG Export Plug-In . SVG Version: 6.00 Build 0)  -->
<svg version="1.1" id="Layer_1" xmlns="http://www.w3.org/2000/svg" xmlns:xlink="http://www.w3.org/1999/xlink" x="0px" y="0px"
	 viewBox="0 0 480 480" style="enable-background:new 0 0 480 480;" xml:space="preserve">
<style type="text/css">
	.st0{fill:#3B3D48;}
</style>
<path class="st0" d="M364.8,444.9c-29.6,0-53.7-24-53.7-53.6c0-13.8,5.2-26.4,13.8-35.9l-29.3-47c-14.5,10.4-32.2,16.5-51.4,16.5
	c-48.8,0-88.6-39.7-88.6-88.6c0-9.5,1.5-18.7,4.3-27.3l-48.3-24.8c-9.4,15.5-26.5,26-45.9,26c-29.6,0-53.7-24-53.7-53.6
	S36.2,103,65.8,103c29.6,0,53.6,24,53.6,53.6c0,4.8-0.6,9.5-1.8,13.9l48.2,24.7c14.9-28.2,44.5-47.5,78.5-47.5
	c22.5,0,43.1,8.4,58.7,22.4l67.5-64.2c-6.3-8.8-10-19.6-10-31.2c0-29.6,24.1-53.6,53.6-53.6c29.6,0,53.7,24,53.7,53.6
	s-24.1,53.6-53.7,53.6c-12.6,0-24.2-4.3-33.3-11.6l-67.5,64.2c12.2,15.2,19.5,34.5,19.5,55.4c0,24.3-9.8,46.3-25.7,62.3l29.3,47.1
	c8.2-5.1,17.9-8.1,28.3-8.1c29.6,0,53.6,24,53.6,53.6S394.3,444.9,364.8,444.9z M339.1,362.4c-8,7.1-13.1,17.4-13.1,28.9
	c0,21.3,17.4,38.7,38.8,38.7c21.4,0,38.7-17.4,38.7-38.7s-17.4-38.7-38.7-38.7c-9.6,0-18.4,3.5-25.2,9.3
	C339.4,362.1,339.3,362.3,339.1,362.4z M244.3,162.7c-40.6,0-73.7,33-73.7,73.7c0,40.6,33,73.7,73.7,73.7c40.6,0,73.6-33,73.6-73.7
	C317.9,195.7,284.9,162.7,244.3,162.7z M65.8,117.9c-21.4,0-38.8,17.4-38.8,38.7s17.4,38.7,38.8,38.7s38.7-17.4,38.7-38.7
	S87.2,117.9,65.8,117.9z M414.2,36c-21.4,0-38.7,17.4-38.7,38.7s17.4,38.7,38.7,38.7s38.8-17.4,38.8-38.7S435.5,36,414.2,36z"/>
</svg>
