<?xml version="1.0" encoding="utf-8"?>
<!-- Generator: Adobe Illustrator 25.0.1, SVG Export Plug-In . SVG Version: 6.00 Build 0)  -->
<svg version="1.1" id="Layer_1" xmlns="http://www.w3.org/2000/svg" xmlns:xlink="http://www.w3.org/1999/xlink" x="0px" y="0px"
	 viewBox="0 0 480 480" style="enable-background:new 0 0 480 480;" xml:space="preserve">
<style type="text/css">
	.st0{fill:#3B3D48;}
</style>
<g>
	<path class="st0" d="M465,188.5H14.3c-3.7,0-6.6,3-6.6,6.6v135.6c0,20.5,16.7,37.3,37.3,37.3h389.4c20.6,0,37.3-16.7,37.3-37.3
		V195.2C471.6,191.5,468.6,188.5,465,188.5z M458.3,330.8c0,13.2-10.8,24-24,24H44.9c-13.2,0-24-10.8-24-24v-129h437.4V330.8z"/>
	<path class="st0" d="M434.3,96.6H44.9c-20.6,0-37.3,16.7-37.3,37.3V154c0,3.7,3,6.6,6.6,6.6H465c3.7,0,6.6-3,6.6-6.6v-20.1
		C471.6,113.4,454.9,96.6,434.3,96.6z M458.3,147.4H20.9v-13.4c0-13.2,10.8-24,24-24h389.4c13.2,0,24,10.8,24,24V147.4z"/>
	<path class="st0" d="M115.6,316.4c20.7,0,37.2-16.1,38.9-36.4c0.2,0,0.3,0.2,0.5,0.2h78.7v24.8c0,3.7,3,6.6,6.6,6.6s6.6-3,6.6-6.6
		v-24.8h29.4v24.8c0,3.7,3,6.6,6.6,6.6c3.7,0,6.6-3,6.6-6.6v-31.4c0-3.7-3-6.6-6.6-6.6H155c-0.7,0-1.1,0.5-1.8,0.7
		c-4.2-17.3-19.1-30.4-37.7-30.4C93.8,237.3,76,255,76,276.8C76,298.6,93.8,316.4,115.6,316.4z M115.6,250.5
		c14.5,0,26.3,11.8,26.3,26.3c0,14.5-11.8,26.3-26.3,26.3c-14.5,0-26.3-11.8-26.3-26.3C89.3,262.3,101.1,250.5,115.6,250.5z"/>
	<path class="st0" d="M397.2,304.2c1.3,1.3,3,1.9,4.6,1.9c1.7,0,3.5-0.7,4.8-2l20.5-21.1c2.5-2.6,2.5-6.7,0-9.3l-20.5-21.2
		c-2.5-2.6-6.8-2.7-9.4-0.1c-2.6,2.6-2.7,6.8-0.1,9.4l16,16.5l-16,16.5C394.5,297.4,394.6,301.6,397.2,304.2z"/>
</g>
</svg>
