<?xml version="1.0" encoding="utf-8"?>
<!-- Generator: Adobe Illustrator 25.0.1, SVG Export Plug-In . SVG Version: 6.00 Build 0)  -->
<svg version="1.1" id="Layer_1" xmlns="http://www.w3.org/2000/svg" xmlns:xlink="http://www.w3.org/1999/xlink" x="0px" y="0px"
	 viewBox="0 0 480 480" style="enable-background:new 0 0 480 480;" xml:space="preserve">
<style type="text/css">
	.st0{fill:#3B3D48;}
</style>
<path class="st0" d="M434.2,30.1H45c-20.6,0-37.4,16.8-37.4,37.4v249.1c0,20.6,16.8,37.4,37.4,37.4h153c-1.1,5.9-4.2,15.9-12.7,25.6
	c-17.4,19.9-43.4,21.4-43.6,21.4c-3.7,0.2-6.5,3.3-6.4,6.9c0.1,3.7,3.1,6.6,6.8,6.6h195.2c3.7,0,6.7-2.9,6.8-6.6
	c0.1-3.7-2.8-6.7-6.5-6.9c-0.3,0-26.1-1.4-43.6-21.4c-8.4-9.7-11.5-19.7-12.6-25.6h153c20.6,0,37.4-16.8,37.4-37.4V67.4
	C471.6,46.8,454.8,30.1,434.2,30.1z M45,43.6h389.2c13.2,0,23.9,10.7,23.9,23.9v215.3h-437V67.4C21.1,54.3,31.8,43.6,45,43.6z
	 M283.6,388.4c4.5,5.1,9.4,9.2,14.3,12.5H181.2c4.9-3.3,9.8-7.4,14.3-12.5c11.7-13.3,15.1-27.2,16.2-34.5h55.8
	C268.5,361.2,272,375,283.6,388.4z M434.2,340.4H45c-13.2,0-23.9-10.7-23.9-23.9v-20.3h437v20.3
	C458.1,329.7,447.4,340.4,434.2,340.4z"/>
</svg>
