<?xml version="1.0" encoding="utf-8"?>
<!-- Generator: Adobe Illustrator 25.0.1, SVG Export Plug-In . SVG Version: 6.00 Build 0)  -->
<svg version="1.1" id="Layer_1" xmlns="http://www.w3.org/2000/svg" xmlns:xlink="http://www.w3.org/1999/xlink" x="0px" y="0px"
	 viewBox="0 0 480 480" style="enable-background:new 0 0 480 480;" xml:space="preserve">
<style type="text/css">
	.st0{fill:#3B3D48;}
</style>
<path class="st0" d="M416.5,399.4H361c-12.5,0-22.7-10.2-22.7-22.7v-30.1H141.8v30.1c0,12.5-10.2,22.7-22.7,22.7H63.5
	c-12.5,0-22.7-10.2-22.7-22.7c0-21.1-0.1-42.2-0.3-63.4c-0.1-19.6-0.2-39.2-0.2-58.8c-0.1-6.8,1.3-13.5,4-20l7.8-18.4
	C28.8,212.6,27,198,27,193.2c0.1-11.8,10.1-23.3,20.1-23.3h25.8c4.5-10.6,17.2-40.2,24.6-56.3c10.9-23.5,26.3-33.1,53.2-33.1h179.2
	c0.1,0,0.1,0,0.2,0c26.4,0.2,41.7,9.8,52.4,33.1c7.4,16,20.1,45.7,24.6,56.3h25.8c10,0,19.9,11.5,20.1,23.3
	c0.1,4.8-1.8,19.4-25.1,23l7.8,18.4c2.7,6.4,4.1,13.1,4.1,20c0,18.7-0.1,37.4-0.3,56.2c-0.1,22-0.3,44.1-0.3,66
	C439.2,389.3,429,399.4,416.5,399.4z M351,342.9v33.9c0,5.5,4.5,10,10,10h55.6c5.5,0,10-4.5,10-10c0-21.9,0.1-44,0.3-66
	c0.1-18.8,0.2-37.5,0.3-56.1c0-5.2-1-10.3-3.1-15.1l-11.2-26.5c-0.8-1.9-0.6-4.1,0.5-5.9c1.1-1.8,3.1-2.8,5.2-2.9
	c6.6-0.2,21.9-1.6,21.8-10.9c-0.1-5.6-5.1-10.8-7.4-10.8h-30c-2.5,0-4.8-1.5-5.8-3.9c-0.2-0.4-17.1-40.4-26.1-59.7
	c-8.8-19-19.7-25.8-41.6-25.8H150.7c-22,0-32.9,6.7-41.7,25.8c-9.1,19.6-26.1,59.7-26.1,59.7c-1,2.3-3.3,3.9-5.8,3.9h-30
	c-2.3,0-7.4,5.2-7.4,10.8c-0.1,9.3,15.2,10.7,21.8,10.9c2.1,0.1,4,1.1,5.2,2.9c1.1,1.8,1.3,4,0.5,5.9L56,239.5c-2,4.9-3,9.9-3,15.1
	c0,19.5,0.1,39.1,0.3,58.7c0.1,21.2,0.2,42.4,0.2,63.5c0,5.5,4.5,10,10,10H119c5.5,0,10-4.5,10-10v-36.5c0-3.5,2.8-6.3,6.3-6.3
	h209.7c3.5,0,6.3,2.8,6.3,6.3C351.5,341.2,351.3,342.1,351,342.9z M372.9,307.9c-1.4,0-2.8-0.1-4.3-0.3
	c-14.6-1.9-26.6-13.9-28.5-28.5c-1.3-10.3,2.2-20.3,9.4-27.6c7.3-7.3,17.1-10.7,27.6-9.4l0,0c14.6,1.9,26.6,13.9,28.5,28.5
	c1.3,10.3-2.1,20.3-9.4,27.7C390,304.5,381.7,307.9,372.9,307.9z M373,254.5c-5.4,0-10.6,2.1-14.4,6c-4.5,4.5-6.6,10.7-5.8,17.1
	c1.1,9,8.5,16.4,17.5,17.5c6.1,0.8,12.5-1.3,17.1-5.8c4.5-4.5,6.6-10.7,5.8-17.1c-1.1-9-8.5-16.4-17.5-17.5
	C374.7,254.6,373.9,254.5,373,254.5z M107.1,307.9c-8.8,0-17.1-3.4-23.4-9.7c-7.3-7.3-10.7-17.4-9.4-27.6
	c1.9-14.6,13.8-26.6,28.4-28.5c10.4-1.4,20.4,2.2,27.7,9.5c7.3,7.3,10.7,17.4,9.4,27.6c-1.9,14.9-13.6,26.6-28.4,28.5
	C109.9,307.8,108.5,307.9,107.1,307.9z M107,254.5c-0.9,0-1.8,0.1-2.6,0.2c-9,1.1-16.3,8.5-17.5,17.5c0,0,0,0,0,0
	c-0.8,6.3,1.3,12.5,5.8,17c4.5,4.5,10.8,6.7,17.1,5.8c9-1.1,16.3-8.5,17.5-17.5c0.8-6.3-1.3-12.5-5.7-17
	C117.6,256.6,112.4,254.5,107,254.5z M80.6,271.4h0.2H80.6z M364,201.7H116c-5.9,0-11.3-3-14.5-7.9c-3.2-5-3.7-11.2-1.3-16.5
	l3.8-8.4c5.1-11.4,10.4-23.3,16.5-35.7c5.2-8.6,13.5-22.2,29.7-23.7l179.3,0c0.2,0,0.5,0,0.7,0c14.7,1.4,22.5,12.2,29.2,23.1
	c6.6,13.5,12.1,25.9,17.4,37.7l3.1,6.9c2.4,5.4,2,11.6-1.2,16.5C375.3,198.7,369.9,201.7,364,201.7z M150.7,122.1
	c-7.7,0.7-12.7,6.6-19.1,17.1c-5.7,11.8-11,23.5-16,34.8l-3.8,8.4c-0.9,2.1-0.1,3.8,0.4,4.5c0.4,0.6,1.6,2.1,3.9,2.1h248
	c2.3,0,3.5-1.5,3.9-2.1c0.4-0.6,1.3-2.4,0.3-4.4l-3.1-6.9c-5.3-11.7-10.7-24-16.9-36.8c-5.1-8.3-10.3-15.6-19.1-16.6H150.7z"/>
</svg>
