<?xml version="1.0" encoding="utf-8"?>
<!-- Generator: Adobe Illustrator 25.0.1, SVG Export Plug-In . SVG Version: 6.00 Build 0)  -->
<svg version="1.1" id="Layer_1" xmlns="http://www.w3.org/2000/svg" xmlns:xlink="http://www.w3.org/1999/xlink" x="0px" y="0px"
	 viewBox="0 0 480 480" style="enable-background:new 0 0 480 480;" xml:space="preserve">
<style type="text/css">
	.st0{fill:#3B3D48;}
</style>
<g>
	<path class="st0" d="M371.4,254.4c0-4-3.3-7.3-7.3-7.3c-4,0-7.3,3.3-7.3,7.3c0,52.4-38.2,105.2-123.6,105.2
		s-123.6-52.9-123.6-105.2c0-4-3.3-7.3-7.3-7.3c-4,0-7.3,3.3-7.3,7.3c0,58.1,40.5,116.7,130.9,119.8v86.6h-43.3
		c-4,0-7.3,3.3-7.3,7.3c0,4,3.3,7.3,7.3,7.3h101.1c4,0,7.3-3.3,7.3-7.3c0-4-3.3-7.3-7.3-7.3h-43.2v-86.6
		C330.8,371.1,371.4,312.5,371.4,254.4z"/>
	<path class="st0" d="M131.9,134.9c0,0.1,0,0.1,0,0.2v35.4c0,0.1,0,0.2,0,0.3c0,0.1,0,0.2,0,0.3v35.2c0,0.1,0,0.3,0,0.4
		c0,0.1,0,0.3,0,0.4v21.6c-0.1,2.2-0.2,4.5-0.2,6.8c0,55.9,45.5,101.4,101.4,101.4s101.4-45.5,101.4-101.4V99.8
		c0-0.8-0.1-1.7-0.4-2.4c-4.5-52.1-48.5-92.6-101-92.6c-55.9,0-101.4,45.5-101.4,101.4c0,2.3,0.1,4.5,0.2,6.2v22.4
		C131.9,134.8,131.9,134.8,131.9,134.9z M182.6,199.4h-36v-21.3h36c4,0,7.3-3.3,7.3-7.3c0-4-3.3-7.3-7.3-7.3h-36v-21.3h36
		c4,0,7.3-3.3,7.3-7.3s-3.3-7.3-7.3-7.3h-36v-15.7c-0.1-1.9-0.2-3.7-0.2-5.7c0-47.9,39-86.8,86.8-86.8c45.5,0,83.5,35.5,86.6,80.9
		c0,0.5,0.1,0.9,0.2,1.3v26h-36c-4,0-7.3,3.3-7.3,7.3s3.3,7.3,7.3,7.3h36v21.3h-36c-4,0-7.3,3.3-7.3,7.3c0,4,3.3,7.3,7.3,7.3h36
		v21.3h-36c-4,0-7.3,3.3-7.3,7.3c0,4,3.3,7.3,7.3,7.3h36v21.5c0,47.9-39,86.8-86.8,86.8s-86.8-39-86.8-86.8c0-2,0.1-4,0.2-6.3V214
		h36c4,0,7.3-3.3,7.3-7.3C189.9,202.7,186.6,199.4,182.6,199.4z"/>
</g>
</svg>
