<?xml version="1.0" encoding="utf-8"?>
<!-- Generator: Adobe Illustrator 25.0.1, SVG Export Plug-In . SVG Version: 6.00 Build 0)  -->
<svg version="1.1" id="Layer_1" xmlns="http://www.w3.org/2000/svg" xmlns:xlink="http://www.w3.org/1999/xlink" x="0px" y="0px"
	 viewBox="0 0 480 480" style="enable-background:new 0 0 480 480;" xml:space="preserve">
<style type="text/css">
	.st0{fill:#3B3D48;}
</style>
<g>
	<path class="st0" d="M85.2,240.5c0-4-3.3-7.3-7.3-7.3H11.9c-4,0-7.3,3.3-7.3,7.3s3.3,7.3,7.3,7.3h65.9
		C81.9,247.8,85.2,244.5,85.2,240.5z"/>
	<path class="st0" d="M93.4,163.9c1.1,0.7,2.4,1,3.6,1c2.5,0,5-1.3,6.3-3.6c2-3.5,0.8-7.9-2.7-9.9l-54.4-31.4
		c-3.4-2.1-7.9-0.8-9.9,2.7c-2,3.5-0.8,7.9,2.7,9.9L93.4,163.9z"/>
	<path class="st0" d="M120.2,240.5c0,66.3,54,120.3,120.3,120.3c66.3,0,120.3-54,120.3-120.3s-54-120.3-120.3-120.3
		C174.1,120.2,120.2,174.1,120.2,240.5z M346.2,240.5c0,58.3-47.5,105.8-105.8,105.8s-105.7-47.5-105.7-105.8
		c0-58.3,47.4-105.8,105.7-105.8S346.2,182.2,346.2,240.5z"/>
	<path class="st0" d="M383.9,164.9c1.2,0,2.5-0.3,3.6-1l54.5-31.4c3.5-2,4.7-6.5,2.7-9.9c-2-3.5-6.5-4.7-9.9-2.7l-54.5,31.4
		c-3.5,2-4.7,6.5-2.7,9.9C378.9,163.6,381.4,164.9,383.9,164.9z"/>
	<path class="st0" d="M240.4,82.1c4,0,7.3-3.3,7.3-7.3V12c0-4-3.3-7.3-7.3-7.3c-4,0-7.3,3.3-7.3,7.3v62.9
		C233.2,78.9,236.4,82.1,240.4,82.1z"/>
	<path class="st0" d="M151.3,100.7c1.3,2.3,3.8,3.6,6.3,3.6c1.2,0,2.5-0.3,3.6-1c3.5-2,4.7-6.5,2.7-9.9L132.5,39
		c-2-3.5-6.5-4.7-9.9-2.7c-3.5,2-4.7,6.5-2.7,9.9L151.3,100.7z"/>
	<path class="st0" d="M384.9,315.5c-3.5-2.1-7.9-0.8-9.9,2.6c-2,3.5-0.8,8,2.7,10l57.1,33c1.1,0.7,2.4,1,3.6,1c2.5,0,5-1.3,6.3-3.6
		c2-3.5,0.8-8-2.7-10L384.9,315.5z"/>
	<path class="st0" d="M469,233.2h-62.9c-4,0-7.3,3.3-7.3,7.3s3.3,7.3,7.3,7.3H469c4,0,7.3-3.3,7.3-7.3S473,233.2,469,233.2z"/>
	<path class="st0" d="M348.4,39L317,93.4c-2,3.5-0.8,7.9,2.7,9.9c1.1,0.7,2.4,1,3.6,1c2.5,0,5-1.3,6.3-3.6L361,46.2
		c2-3.5,0.8-7.9-2.7-9.9C354.9,34.3,350.4,35.5,348.4,39z"/>
	<path class="st0" d="M328,377.6c-2-3.5-6.5-4.6-9.9-2.6c-3.5,2-4.7,6.5-2.7,10l33,57.1c1.3,2.3,3.8,3.6,6.3,3.6
		c1.2,0,2.5-0.3,3.6-1c3.5-2,4.7-6.5,2.7-10L328,377.6z"/>
	<path class="st0" d="M152.9,377.6l-33,57.1c-2,3.5-0.8,8,2.7,10c1.1,0.7,2.4,1,3.6,1c2.5,0,5-1.3,6.3-3.6l33-57.1
		c2-3.5,0.8-8-2.7-10C159.4,373,154.9,374.2,152.9,377.6z"/>
	<path class="st0" d="M240.4,395.8c-4,0-7.3,3.3-7.3,7.3V469c0,4,3.3,7.3,7.3,7.3c4,0,7.3-3.3,7.3-7.3v-65.9
		C247.7,399.1,244.5,395.8,240.4,395.8z"/>
	<path class="st0" d="M96,315.5l-57.1,33c-3.5,2-4.7,6.5-2.7,10c1.3,2.3,3.8,3.6,6.3,3.6c1.2,0,2.5-0.3,3.6-1l57.1-33
		c3.5-2,4.7-6.5,2.7-10C103.9,314.7,99.5,313.4,96,315.5z"/>
</g>
</svg>
