<?xml version="1.0" encoding="utf-8"?>
<!-- Generator: Adobe Illustrator 25.0.0, SVG Export Plug-In . SVG Version: 6.00 Build 0)  -->
<svg version="1.1" xmlns="http://www.w3.org/2000/svg" xmlns:xlink="http://www.w3.org/1999/xlink" x="0px" y="0px"
	 viewBox="0 0 480 480" style="enable-background:new 0 0 480 480;" xml:space="preserve">
<style type="text/css">
	.st0{display:none;}
	.st1{display:inline;}
	.st2{fill:#3B3D48;}
	.st3{display:inline;fill:#3B3D48;}
</style>
<g id="Capa_1" class="st0">
	<g class="st1">
		<g>
			<path class="st2" d="M468.6,138.2l-13.1,13.1C397.1,95.7,320.9,65.2,240,65.2S82.9,95.7,24.5,151.3l-13.1-13.1
				c61.9-59,142.8-91.5,228.6-91.5S406.7,79.1,468.6,138.2z"/>
		</g>
		<g>
			<path class="st2" d="M403.5,203.3l-13.1,13.1c-41-38.2-94.1-59.1-150.4-59.1s-109.4,20.9-150.4,59.1l-13.1-13.1
				c44.4-41.7,102.2-64.6,163.5-64.6C301.2,138.7,359,161.6,403.5,203.3z"/>
		</g>
		<g>
			<path class="st2" d="M338.3,268.3l-13.1,13.1c-48.5-42.9-121.9-42.9-170.5,0l-13.1-13.1C197.5,218.3,282.5,218.3,338.3,268.3z"/>
		</g>
		<g>
			<path class="st2" d="M240,322.8c-30.5,0-55.3,24.8-55.3,55.3c0,30.5,24.8,55.3,55.3,55.3s55.3-24.8,55.3-55.3
				C295.3,347.6,270.5,322.8,240,322.8z M240,414.8c-20.3,0-36.8-16.5-36.8-36.8s16.5-36.8,36.8-36.8s36.8,16.5,36.8,36.8
				S260.3,414.8,240,414.8z"/>
		</g>
	</g>
</g>
<g id="Shower" class="st0">
	<g class="st1">
		<path class="st2" d="M429.9,45.7H225.2c-5,0-9.1,4.1-9.1,9.1V79c-3.7-0.3-7.3-0.5-11-0.5s-7.3,0.2-11,0.5V34.7c0-6,4.9-11,11-11
			h224.8c5,0,9.1-4.1,9.1-9.1s-4.1-9.1-9.1-9.1H205.1c-16.1,0-29.2,13.2-29.2,29.2v47C117.2,94.5,72.4,145,68.3,206.5H53.4
			c-5,0-9.1,4.1-9.1,9.1v40.2c0,5,4.1,9.1,9.1,9.1h303.4c5,0,9.1-4.1,9.1-9.1v-40.2c0-5-4.1-9.1-9.1-9.1h-14.9
			C337.8,145,293,94.5,234.3,81.7V63.9h195.6c5,0,9.1-4.1,9.1-9.1S434.9,45.7,429.9,45.7z M347.6,224.8v21.9H62.5v-21.9h183.8h82.2
			H347.6z M323.5,206.5h-77.2H86.6c4.7-61.2,56-109.7,118.4-109.7S318.8,145.3,323.5,206.5z"/>
		<path class="st2" d="M103.5,330l-18.9-26c-1.7-2.4-4.5-3.7-7.4-3.7s-5.7,1.4-7.4,3.7l-18.9,26c-9.5,13.1-8,30.8,3.3,42.1
			c6.3,6.3,14.7,9.5,23,9.5s16.6-3.2,23-9.5C111.6,360.7,113,343,103.5,330z M87.2,359.2c-5.6,5.6-14.6,5.6-20.2,0
			c-5-5-5.6-12.8-1.5-18.5l11.6-15.9l11.5,15.9C92.9,346.5,92.2,354.3,87.2,359.2z"/>
		<path class="st2" d="M231.6,330l-18.9-26c-1.7-2.4-4.5-3.7-7.4-3.7c-2.9,0-5.7,1.4-7.4,3.7l-18.9,26c-9.5,13.1-8,30.8,3.3,42.1
			c6.3,6.3,14.7,9.5,23,9.5s16.6-3.2,23-9.5C239.6,360.7,241,343,231.6,330z M215.3,359.2c-5.6,5.6-14.6,5.6-20.2,0
			c-5-5-5.6-12.8-1.5-18.5l11.5-15.9l11.5,15.9C220.9,346.5,220.2,354.3,215.3,359.2z"/>
		<path class="st2" d="M340.6,303.9c-1.7-2.4-4.5-3.7-7.4-3.7s-5.7,1.4-7.4,3.7l-18.9,26c-9.5,13.1-8,30.8,3.3,42.1
			c6.3,6.3,14.7,9.5,23,9.5s16.6-3.2,23-9.5c11.4-11.4,12.8-29.2,3.3-42.1L340.6,303.9z M343.3,359.2L343.3,359.2
			c-5.6,5.6-14.6,5.6-20.2,0c-5-5-5.6-12.8-1.5-18.5l11.5-15.9l11.5,15.9C348.9,346.5,348.4,354.3,343.3,359.2z"/>
		<path class="st2" d="M148.4,395.6c-1.7-2.4-4.5-3.7-7.4-3.7s-5.7,1.4-7.4,3.7l-18.9,26c-9.5,13.1-8,30.8,3.3,42.1
			c6.1,6.1,14.3,9.5,23,9.5s16.9-3.4,23-9.5c11.4-11.4,12.8-29.2,3.3-42.1L148.4,395.6z M151.2,450.8c-2.7,2.7-6.3,4.2-10.1,4.2
			c-3.8,0-7.4-1.5-10.1-4.2c-5-5-5.6-12.8-1.5-18.5l11.5-15.9l11.5,15.9C156.7,438.1,156.1,445.9,151.2,450.8z"/>
		<path class="st2" d="M276.5,395.6c-1.7-2.4-4.5-3.7-7.4-3.7s-5.7,1.4-7.4,3.7l-18.9,26c-9.5,13.1-8,30.8,3.3,42.1
			c6.1,6.1,14.3,9.5,23,9.5s16.9-3.4,23-9.5c11.4-11.4,12.8-29.2,3.3-42.1L276.5,395.6z M279.2,450.8L279.2,450.8
			c-2.7,2.7-6.3,4.2-10.1,4.2c-3.8,0-7.4-1.5-10.1-4.2c-5-5-5.6-12.8-1.5-18.5l11.5-15.9l11.5,15.9
			C284.8,438.1,284.2,445.9,279.2,450.8z"/>
	</g>
</g>
<g id="Parking" class="st0">
	<g class="st1">
		<g>
			<path class="st2" d="M393,84.3h-22.3c-3.3,0-5.4,2.1-5.4,4.4h0v72.1c0,3,3.5,4.5,7.2,4.5c3.5,0,7.2-1.6,7.2-4.5v-25.7h12.4
				c14.6,0,26.1-7,26.1-25.2v-0.7C418.2,91.1,407.1,84.3,393,84.3z M403.8,111c0,8.6-4.4,12.8-11.6,12.8h-12.4V96.9h12.4
				c7.2,0,11.6,4.1,11.6,12.8L403.8,111L403.8,111z"/>
		</g>
	</g>
	<g class="st1">
		<g>
			<path class="st2" d="M331.4,292.4c-2.8-1.5-5.6-3.2-8.3-5l-43-29.1c-13.1-8.8-28.3-13.5-44-13.5h-79c-21,0-40.7,8.1-55.5,22.9
				c-7.6,7.6-16.3,14-25.8,18.9c-5.6,2.9-9.1,8.7-9.1,15c0,9.3,7.6,16.9,16.9,16.9h26.9c3.6,0,6.5-2.9,6.5-6.5
				c0-3.6-2.9-6.5-6.5-6.5H83.5c-2.2,0-3.9-1.8-3.9-3.9c0-1.5,0.8-2.8,2.1-3.5c10.7-5.6,20.5-12.7,29-21.2
				c12.4-12.3,28.9-19.2,46.4-19.2h17.7v47.8h-21.6c-3.6,0-6.5,2.9-6.5,6.5c0,3.6,2.9,6.5,6.5,6.5h178.4c5.3,0,9.7-4.4,9.7-9.7
				C341.3,302.1,337.5,295.7,331.4,292.4z M187.8,305.6v-47.8h48.3c13.2,0,25.9,3.9,36.8,11.3l43,29.1c3,2,6.1,3.9,9.3,5.7
				c0.8,0.5,1.5,1.1,2,1.8H187.8z"/>
		</g>
	</g>
	<g class="st1">
		<g>
			<path class="st2" d="M203.9,328.5h-20.1c-3.6,0-6.5,2.9-6.5,6.5s2.9,6.5,6.5,6.5h20.1c3.6,0,6.5-2.9,6.5-6.5
				C210.4,331.4,207.5,328.5,203.9,328.5z"/>
		</g>
	</g>
	<g class="st1">
		<g>
			<path class="st2" d="M462.3,323l-2.1-3.4c-7.7-12.9-20.6-21.9-35.3-24.8l-16.8-3.3v-85.1h43.5c8.9,0,16.2-7.3,16.2-16.2V63.4
				c0-8.9-7.3-16.2-16.2-16.2H324.9c-8.9,0-16.2,7.3-16.2,16.2v48.1c0,3.6,2.9,6.5,6.5,6.5s6.5-2.9,6.5-6.5V63.4
				c0-1.8,1.4-3.2,3.2-3.2h126.7c1.8,0,3.2,1.4,3.2,3.2v126.7c0,1.8-1.4,3.2-3.2,3.2H324.9c-1.8,0-3.2-1.4-3.2-3.2v-36.3
				c0-3.6-2.9-6.5-6.5-6.5s-6.5,2.9-6.5,6.5v36.3c0,8.9,7.3,16.2,16.2,16.2h49.3v78.4l-8.6-1.7c-11.9-2.4-23.5-9.6-31.2-14.8
				l-43-29.1c-16.4-11.1-35.5-16.9-55.2-16.9h-79c-26.3,0-51,10.2-69.6,28.8c-11.8,11.7-26.6,19.7-42.9,23.1l-9.3,2
				c-13.9,2.9-24,15.3-24,29.5v63c0,7.5,4.4,14.3,11.3,17.4l25.9,11.5c1.6,8.2,5.5,16,11.8,22.3c8.4,8.4,19.5,12.6,30.5,12.6
				s22.1-4.2,30.5-12.6c5.4-5.4,9.1-11.9,11-18.8h216c1.9,6.9,5.6,13.4,11,18.8c8.2,8.2,19,12.6,30.5,12.6
				c11.5,0,22.4-4.5,30.5-12.6c5.4-5.4,9.1-11.9,11-18.8h12.3c13.3,0,24.1-10.8,24.1-24.1v-33.7C467.9,336.1,466,329.1,462.3,323z
				 M387.2,206.3h7.9v82.5l-7.9-1.6V206.3z M112.2,410.7c-5.7,5.7-13.3,8.8-21.3,8.8s-15.6-3.1-21.3-8.8
				c-9.1-9.1-11.2-22.7-6.1-33.8c0-0.1,0.1-0.2,0.1-0.3c0.2-0.3,0.3-0.7,0.5-1c0.1-0.2,0.2-0.3,0.2-0.5c0.2-0.3,0.3-0.6,0.5-0.8
				c0.1-0.2,0.2-0.4,0.3-0.6c0.1-0.2,0.3-0.5,0.5-0.7c0.1-0.2,0.3-0.4,0.4-0.6c0.1-0.2,0.3-0.4,0.4-0.6c0.2-0.2,0.4-0.5,0.5-0.7
				c0.1-0.2,0.3-0.4,0.4-0.6c0.2-0.3,0.4-0.5,0.7-0.8c0.1-0.1,0.2-0.3,0.4-0.4c0.3-0.4,0.7-0.7,1-1.1c0,0,0.1-0.1,0.1-0.1
				c0.1-0.1,0.1-0.1,0.2-0.2c0.3-0.3,0.6-0.6,0.9-0.9c0.1-0.1,0.2-0.1,0.2-0.2c0.3-0.3,0.6-0.5,0.9-0.8c0,0,0.1,0,0.1-0.1
				c11-8.9,26.9-8.9,37.9,0c0,0,0,0,0,0c0.3,0.3,0.7,0.6,1,0.9c0.1,0.1,0.1,0.1,0.2,0.2c0.4,0.3,0.7,0.7,1.1,1.1
				c0.4,0.4,0.8,0.8,1.1,1.2c0.2,0.2,0.3,0.4,0.5,0.5c0.2,0.2,0.4,0.4,0.6,0.7c0.2,0.3,0.4,0.5,0.6,0.8c0.1,0.1,0.2,0.3,0.3,0.4
				c0.2,0.3,0.5,0.7,0.7,1c0,0.1,0.1,0.1,0.1,0.2C123.8,384.5,122.5,400.4,112.2,410.7z M411.3,410.7c-5.7,5.7-13.3,8.8-21.3,8.8
				s-15.6-3.1-21.3-8.8c-10.3-10.3-11.6-26.1-3.9-37.8c0-0.1,0.1-0.1,0.1-0.2c0.2-0.3,0.5-0.7,0.7-1c0.1-0.1,0.2-0.3,0.3-0.4
				c0.2-0.3,0.4-0.5,0.6-0.8c0.2-0.2,0.4-0.4,0.6-0.7c0.2-0.2,0.3-0.4,0.5-0.6c0.4-0.4,0.7-0.8,1.1-1.2c5.7-5.7,13.3-8.8,21.3-8.8
				s15.6,3.1,21.3,8.8c0.4,0.4,0.8,0.8,1.1,1.2c0.2,0.2,0.3,0.4,0.5,0.5c0.2,0.2,0.4,0.4,0.6,0.7c0.2,0.3,0.4,0.5,0.6,0.8
				c0.1,0.1,0.2,0.3,0.3,0.4c0.2,0.3,0.5,0.7,0.7,1c0,0.1,0.1,0.1,0.1,0.2C422.8,384.5,421.5,400.4,411.3,410.7z M454.9,377
				L454.9,377c0,6.1-5,11.1-11.1,11.1h-10.7c-0.3-9.4-3.6-18.4-9.6-25.8c0,0-0.1-0.1-0.1-0.2c-0.4-0.5-0.8-0.9-1.1-1.3
				c-0.1-0.1-0.2-0.2-0.3-0.3c-0.4-0.5-0.8-0.9-1.3-1.3c-0.1-0.1-0.1-0.2-0.2-0.2c-5.6-5.6-12.5-9.5-20-11.3
				c-3.4-0.9-6.9-1.3-10.5-1.3c-2.9,0-5.7,0.3-8.5,0.8c-8.3,1.6-15.9,5.7-22,11.8c-0.1,0.1-0.1,0.1-0.2,0.2
				c-0.4,0.4-0.9,0.9-1.3,1.3c-0.1,0.1-0.2,0.2-0.3,0.3c-0.4,0.4-0.8,0.9-1.2,1.3c0,0-0.1,0.1-0.1,0.1c-6,7.4-9.3,16.4-9.6,25.8H134
				c-0.3-9.5-3.6-18.5-9.6-25.9c0,0-0.1-0.1-0.1-0.1c-0.4-0.5-0.8-0.9-1.2-1.4c-0.1-0.1-0.1-0.2-0.2-0.3c-0.5-0.5-1-1.1-1.5-1.6
				c-2.1-2.1-4.4-3.9-6.8-5.5c-7.2-4.7-15.5-7.1-23.8-7.1c-11.1,0-22.1,4.2-30.5,12.6c-0.5,0.5-0.9,1-1.4,1.5
				c-0.1,0.1-0.3,0.3-0.4,0.4c-0.3,0.4-0.6,0.7-0.9,1.1c-0.1,0.2-0.3,0.3-0.4,0.5c-0.3,0.4-0.6,0.8-0.9,1.2
				c-0.1,0.1-0.2,0.3-0.3,0.4c-0.8,1.1-1.6,2.3-2.3,3.4c0,0,0,0.1-0.1,0.1c-0.3,0.6-0.7,1.2-1,1.8c0,0,0,0,0,0.1
				c-2.3,4.3-3.8,9-4.5,13.8l-20.3-9c-2.2-1-3.6-3.1-3.6-5.5v-63c0-8.1,5.7-15.1,13.6-16.8l9.3-2c18.7-3.9,35.8-13.1,49.4-26.7
				c16.2-16.1,37.6-25,60.4-25h79c17.1,0,33.7,5.1,47.9,14.7l43,29.1c8.6,5.8,21.8,13.9,36,16.7l59.4,11.8
				c11.1,2.2,20.9,9.1,26.7,18.8l2.1,3.4c2.4,4.1,3.7,8.7,3.7,13.5V377z"/>
		</g>
	</g>
	<g class="st1">
		<g>
			<path class="st2" d="M104.9,375.4c-3.7-3.7-8.7-5.8-14-5.8c-5.3,0-10.2,2.1-14,5.8c-3.7,3.7-5.8,8.7-5.8,14
				c0,5.3,2.1,10.2,5.8,14c3.7,3.7,8.7,5.8,14,5.8c5.3,0,10.2-2.1,14-5.8C112.6,395.6,112.6,383.1,104.9,375.4z M95.7,394.1
				c-1.3,1.3-3,2-4.8,2c-1.8,0-3.5-0.7-4.8-2c-1.3-1.3-2-3-2-4.8c0-1.8,0.7-3.5,2-4.8c1.3-1.3,3-2,4.8-2c1.8,0,3.5,0.7,4.8,2
				C98.3,387.2,98.3,391.5,95.7,394.1z"/>
		</g>
	</g>
	<g class="st1">
		<g>
			<path class="st2" d="M403.9,375.4c-3.7-3.7-8.7-5.8-14-5.8c-5.3,0-10.2,2.1-14,5.8c-7.7,7.7-7.7,20.2,0,27.9
				c3.7,3.7,8.7,5.8,14,5.8c5.3,0,10.2-2.1,14-5.8c3.7-3.7,5.8-8.7,5.8-14C409.7,384.1,407.7,379.1,403.9,375.4z M394.7,394.1
				c-1.3,1.3-3,2-4.8,2c-1.8,0-3.5-0.7-4.8-2c-2.6-2.6-2.6-6.9,0-9.5c1.3-1.3,3-2,4.8-2c1.8,0,3.5,0.7,4.8,2c1.3,1.3,2,3,2,4.8
				C396.7,391.2,396,392.9,394.7,394.1z"/>
		</g>
	</g>
</g>
<g id="Office_services" class="st0">
	<path class="st3" d="M270.6,468.9h-57.4c-15.7,0-28.9-12.4-30.1-28.2l-1.4-19.8c-1.2-14.8-9.8-28.4-22.6-35.3
		c-0.4-0.1-1.4-0.7-2.3-1.3c-13.7-8.1-29.3-8.6-43-2.2l-17.9,8.4c-14.7,7-32.1,1.6-39.7-12.4l-28.6-49.2
		c-8.4-13.5-4.4-31.4,9.1-40.4L53,277.4c12.4-8.5,19.6-22.7,19.6-38.9c0-16.9-7.3-31.5-19.5-39.9l-16.5-11.3
		c-12.8-9-16.7-26.2-9.1-40.2l28.8-50C64.7,83.3,82.1,78.1,96,85l18.3,8.9c13.3,6.4,29.2,5.8,41.7-1.5c2.2-1.3,3.2-1.9,4-2.3
		c12.5-6.8,20.9-20.1,22.1-35.2l1.4-19.7C184.1,19.6,197.4,7,213.7,7h57.8c15.7,0,28.9,12.4,30.2,28.2l1.4,19.8
		c1.2,15,9.7,28.2,22.6,35.3c0.1,0.1,1.9,1.1,2,1.1c14,8.3,29.6,8.9,43.3,2.4l17.9-8.4c14.5-7.1,32-1.6,39.7,12.3l28.6,49.2
		c8.4,13.5,4.4,31.4-9.1,40.4l-16.3,11.2c-12.4,8.5-19.5,22.7-19.5,38.9c0,16.9,7.3,31.5,19.5,39.9c0,0,0,0,0,0l15.5,10.8
		c12.8,9,16.6,26.2,9,40.2l-28.8,50c-8.6,13.8-25.8,19.1-39.8,12.1l-17.6-8.3c-13.4-6.5-29.4-5.9-41.8,1.4c-2.1,1.3-3.1,1.9-3.9,2.3
		c-12.4,6.7-21,20.3-22.2,35.2l-1.4,19.7C300.1,456.5,286.8,468.9,270.6,468.9z M166.3,371.2c18.2,9.9,29.8,28,31.4,48.5l1.4,19.8
		c0.6,7.4,6.7,13.2,14,13.2h57.4c7.5,0,13.7-5.7,14-13l1.4-20c1.7-20.6,13.3-38.7,31-48.4l5.9,6l-2.6-7.9c16.8-10,38.7-10.8,56.8-2
		l17.8,8.4c6.7,3.3,14.7,0.7,18.8-5.8l28.5-49.6c3.5-6.6,1.8-14.7-4.2-19l-15.5-10.8c-16.6-11.4-26.5-30.9-26.5-52.3
		c0-22.6,9.7-41.7,26.6-53.2l16.4-11.3c6.2-4.2,8.1-12.5,4.3-18.7l-28.8-49.6c-3.6-6.7-11.6-9-18.6-5.7l-18,8.5
		c-18.5,8.7-39.8,7.9-56.9-2.2c0,0-1.8-1-1.8-1c-19-10.4-30.6-28.5-32.3-49l-1.4-19.8c-0.6-7.2-6.9-13.2-14-13.2h-57.8
		c-7.6,0-13.7,5.7-14,12.9l-1.4,20c-1.7,20.6-13.2,38.7-31,48.4c0,0-3.4,1.9-3.4,2c-16.8,9.9-38.6,10.7-56.7,2l-18.3-9
		c-6.5-3.2-14.7-0.6-18.7,5.9l-28.5,49.6c-3.6,6.5-1.8,14.7,4.2,18.9l16.4,11.3c16.6,11.4,26.6,30.9,26.6,52.3
		c0,22.6-9.7,41.6-26.6,53.2l-16.4,11.3c-6.2,4.2-8.1,12.5-4.3,18.7l28.8,49.5c3.6,6.7,11.6,8.9,18.6,5.7l18-8.5
		c18.5-8.8,39.8-8,57,2.2l-1,8.8L166.3,371.2z M242.4,356.6c-65.4,0-118.6-53.2-118.6-118.6c0-65.4,53.2-118.5,118.6-118.5
		S360.9,172.6,360.9,238C360.9,303.4,307.7,356.6,242.4,356.6z M242.4,135.6C185.9,135.6,140,181.6,140,238
		c0,56.4,45.9,102.4,102.4,102.4c56.4,0,102.4-46,102.4-102.4C344.7,181.6,298.8,135.6,242.4,135.6z"/>
</g>
<g id="Layer_6">
	<path class="st2" d="M46.9,458c-2.7,0-4.8-1-6.4-1.9c-2.9-1.9-5.7-4.9-5.7-10.7l4.2-57.5c-19.6-20.8-30.4-46.7-30.4-73.4
		c0-51.8,39.2-94.8,95.2-110.6c-2.9-11-4.4-22.3-4.4-33.7C99.4,84.3,182,17,287.6,17s188.2,67.3,188.2,153.2
		c0,35.1-14.4,69.3-40.5,96.6l5.5,76.9c0,5.8-1.9,9.6-5.7,12.2c-4.2,2.3-11.8,2.6-14.7,0l-85.1-35c-12.7,3.1-26.3,4.9-40.7,5.4
		c-7.1,60.3-68.4,107.6-142.7,107.6c-12.5,0-24.6-1.3-35.7-4l-63,26C51.7,457,49.7,458,46.9,458z M41.5,446.2L41.5,446.2L41.5,446.2
		z M114.7,217.1c-53,12.4-90.7,50.8-90.7,97.5c0,23.6,10.1,46.7,28.4,65c1.6,1.6,2.4,3.8,2.2,6.1l-4,54.5l62-25.5
		c1.5-0.6,3.3-0.7,4.9-0.3c10.6,2.7,22.2,4.2,34.4,4.2c70.5,0,127.9-46.6,127.9-103.9c0-57-56.2-101.7-127.9-101.7
		c-12.7,0-24.8,1.4-36.3,4C115.3,216.9,115,217,114.7,217.1z M335.9,305.1c1,0,2,0.2,2.9,0.6l86.2,35.5l-5.5-76.7
		c-0.1-2.2,0.7-4.5,2.2-6c24.8-24.8,38.5-56.2,38.5-88.2c0-77.2-75.8-137.7-172.7-137.7S114.8,93,114.8,170.2
		c0,10.1,1.3,20.2,4,30.1c10.6-2,21.7-3,33.1-3c78.9,0,141,49.5,143.3,113.4c13.7-0.5,26.7-2.3,38.7-5.5
		C334.6,305.2,335.2,305.1,335.9,305.1z M198.1,347.3h-92.3c-4.3,0-7.7-3.5-7.7-7.7c0-4.3,3.5-7.7,7.7-7.7h92.3
		c4.3,0,7.7,3.5,7.7,7.7C205.8,343.9,202.4,347.3,198.1,347.3z M198.1,303.2h-92.3c-4.3,0-7.7-3.5-7.7-7.7c0-4.3,3.5-7.7,7.7-7.7
		h92.3c4.3,0,7.7,3.5,7.7,7.7C205.8,299.7,202.4,303.2,198.1,303.2z"/>
</g>
<g id="Cafe_icon" class="st0">
	<path class="st3" d="M345.2,466.5H66c-2.1,0-4.1-0.8-5.6-2.3l-25.1-25H11.1c-4.4,0-7.9-3.5-7.9-7.9c0-4.4,3.5-7.9,7.9-7.9h98.5
		C3.2,382.4,3.2,267.4,3.2,178.8c0-4.4,3.5-7.9,7.9-7.9h389c4.4,0,7.9,3.5,7.9,7.9c0,10.7,0,21.9-0.2,33.2
		c41,2.9,68.9,28.8,68.9,65.1c0,35.1-41.4,64.8-90.6,65.3c-15.2,34.8-40.9,64.1-84.6,81h98.5c4.4,0,7.9,3.5,7.9,7.9
		c0,4.4-3.5,7.9-7.9,7.9H376l-25.2,25C349.3,465.7,347.3,466.5,345.2,466.5z M69.3,450.7H342l11.6-11.5H57.7L69.3,450.7z M19,186.7
		c0.1,107.4,4.5,236.3,186.5,236.3c182.1,0,186.5-128.9,186.6-236.3H19z M407.4,227.9c-1.2,33.2-4.7,67.5-15.1,98.6
		c36.8-2.7,68.6-25,68.6-49.3C461,249.5,439.7,230.4,407.4,227.9z M188.1,146.6c-2.4,0-4.8-1.1-6.4-3.2c-2.6-3.5-1.8-8.5,1.7-11
		c9.7-7.1,16.9-17.9,18.3-27.5c0.8-5.2-0.2-9.8-3-13.5c-18.3-24.3-19.6-49.4-3.6-72.5c2.5-3.6,7.4-4.5,11-2c3.6,2.5,4.5,7.4,2,11
		c-12.2,17.7-11.2,34.8,3.2,53.9c5.4,7.1,7.5,15.8,6.1,25.3c-2,13.8-11.5,28.4-24.7,38C191.3,146.2,189.7,146.6,188.1,146.6z
		 M138.8,146.6c-2.4,0-4.8-1.1-6.4-3.2c-2.6-3.5-1.8-8.5,1.7-11c9.7-7.1,16.9-17.9,18.3-27.5c0.8-5.3-0.2-9.8-3-13.5
		C131.1,67,129.9,42,145.9,18.9c2.5-3.6,7.5-4.5,11-2c3.6,2.5,4.5,7.4,2,11c-12.3,17.7-11.2,34.8,3.2,53.9c5.4,7.1,7.4,15.9,6,25.3
		c-2,13.8-11.5,28.3-24.6,37.9C142,146.2,140.4,146.6,138.8,146.6z M89.5,146.6c-2.4,0-4.8-1.1-6.4-3.2c-2.6-3.5-1.8-8.5,1.7-11
		c9.7-7.1,16.9-17.8,18.4-27.5c0.8-5.3-0.2-9.8-3-13.5C81.8,67.1,80.5,42,96.5,18.9c2.5-3.6,7.5-4.5,11-2c3.6,2.5,4.5,7.4,2,11
		c-12.2,17.7-11.2,34.8,3.2,53.9c5.4,7.1,7.4,15.9,6,25.4c-2,13.8-11.5,28.3-24.7,37.9C92.7,146.2,91.1,146.6,89.5,146.6z"/>
</g>
</svg>
