<?xml version="1.0" encoding="utf-8"?>
<!-- Generator: Adobe Illustrator 25.0.1, SVG Export Plug-In . SVG Version: 6.00 Build 0)  -->
<svg version="1.1" id="Layer_1" xmlns="http://www.w3.org/2000/svg" xmlns:xlink="http://www.w3.org/1999/xlink" x="0px" y="0px"
	 viewBox="0 0 480 480" style="enable-background:new 0 0 480 480;" xml:space="preserve">
<style type="text/css">
	.st0{fill:#3B3D48;}
</style>
<g>
	<path class="st0" d="M469.1,307.7h-21.7v-221c0-18.5-15.1-33.5-33.6-33.5H57.5C39,53.2,24,68.3,24,86.7v221H9.8
		c-3,0-5.5,2.5-5.5,5.5v9.4c0,18,15.1,32.7,33.6,32.7H441c18.5,0,33.6-14.7,33.6-32.7v-9.4C474.6,310.2,472.1,307.7,469.1,307.7z
		 M35,86.7c0-12.4,10.1-22.5,22.5-22.5h356.3c12.4,0,22.5,10.1,22.5,22.5v219.7H35V86.7z M463.6,322.6c0,12-10.1,21.7-22.5,21.7
		H37.9c-12.4,0-22.5-9.7-22.5-21.7v-3.9h448.2V322.6z"/>
	<path class="st0" d="M415.1,80.7h-359c-3,0-5.5,2.5-5.5,5.5v198.2c0,3,2.5,5.5,5.5,5.5h359c3,0,5.5-2.5,5.5-5.5V86.2
		C420.7,83.2,418.2,80.7,415.1,80.7z M409.6,279h-348V91.7h348V279z"/>
	<path class="st0" d="M171.7,253.8h135.5c23.4,0,42.5-19,42.5-42.4c0-18.1-11.3-33.9-28.1-39.9c-1.6-30.4-26.9-54.7-57.8-54.7
		c-21.9,0-41.8,12.4-51.6,31.6c-4.2-2.3-8.8-3.4-13.7-3.4c-14,0-25.7,10-28.2,24.1c-22.8,0.7-41.2,19.4-41.2,42.4
		C129.2,234.8,148.3,253.8,171.7,253.8z M171.7,180.1h3.7c3,0,5.5-3.4,5.5-6.4c0-9.7,7.9-17.6,17.7-17.6c4.6,0,8.9,1.7,12.2,4.9
		c1.3,1.3,3.2,1.8,5.1,1.4c1.8-0.4,3.3-1.7,3.9-3.5c6.7-18.5,24.4-30.9,44-30.9c25.8,0,46.8,20.9,46.8,47.2c0,0,0,0.4,0,0.4
		c-0.1,2.6,1.7,4.9,4.2,5.5c14,3.5,23.8,16,23.8,30.4c0,17.3-14.1,31.4-31.4,31.4H171.7c-17.3,0-31.4-14.1-31.4-31.4
		S154.4,180.1,171.7,180.1z"/>
</g>
</svg>
