<?xml version="1.0" encoding="utf-8"?>
<!-- Generator: Adobe Illustrator 25.0.1, SVG Export Plug-In . SVG Version: 6.00 Build 0)  -->
<svg version="1.1" id="Layer_1" xmlns="http://www.w3.org/2000/svg" xmlns:xlink="http://www.w3.org/1999/xlink" x="0px" y="0px"
	 viewBox="0 0 480 480" style="enable-background:new 0 0 480 480;" xml:space="preserve">
<style type="text/css">
	.st0{fill:#3B3D48;}
</style>
<g>
	<path class="st0" d="M268.7,97.4c24.6,0,44.6-20,44.6-44.7c0-24.6-20-44.7-44.6-44.7c-24.6,0-44.7,20-44.7,44.7
		C224,77.3,244.1,97.4,268.7,97.4z M268.7,22.7c16.5,0,30,13.5,30,30c0,16.6-13.4,30-30,30s-30-13.5-30-30
		C238.7,36.2,252.2,22.7,268.7,22.7z"/>
	<path class="st0" d="M383.6,229.7c-0.1-0.1-0.2-0.2-0.4-0.3l-55.7-37.5c-1-2.8-2.2-6.4-3.5-10.5c-5.2-15.6-12.4-37-19.1-51.5
		c-11-23.5-34.4-28.4-61.5-34.1l-2.1-0.5c-32.4-6.8-53.3,14.4-58.5,20.7c-0.2,0.2-1.2,1.3-1.3,1.5L91.2,229.3
		c-4.4,5.9-6.4,13.1-5.3,20.5c1,7.3,4.8,13.8,10.7,18.2c12.1,9.2,29.5,6.8,38.5-5.2l44-54.6l-11.2,35.9l-16.8,109.2l-51.8,79.9
		c-8.1,12.7-3.9,30.4,9.1,38.7c12.8,8.2,29.9,4.3,38.1-8.4l55.6-84.8c1.7-2.7,2.9-5.5,3.6-8.6l13.8-64.9l54.5,55.6l17.5,92.9
		c2.5,13,13.9,22.5,27.1,22.5c1.7,0,3.4-0.2,5.1-0.5c7.3-1.4,13.5-5.5,17.7-11.5c4.2-6.1,5.7-13.4,4.4-20.5l-15.8-102
		c-1-5.4-3.5-10.3-7.3-14.1l-67.9-74.8l14.7-61.1c4.9,14.3,8.5,26,8.6,26.5c1.8,5,5,9.4,9.6,12.9l62,42.2c11.5,9,29.8,6.7,38.8-5
		c4.5-5.8,6.5-13.1,5.5-20.4C393.1,240.7,389.4,234.2,383.6,229.7z M376.9,259.4c-4.2,5.5-12.2,7-18.5,2.1l-62.1-42.2
		c-2-1.5-3.5-3.6-4.2-5.5c-0.1-0.2-8.4-27.4-17.2-50.1c-1.2-3-3.9-4.6-7.3-4.7c-3.2,0.2-5.9,2.5-6.6,5.6l-21.4,88.6
		c-0.6,2.4,0.1,4.9,1.7,6.7l70.7,77.9c1.8,1.9,3,4.2,3.5,6.5l15.8,102c0.6,3.4-0.1,6.8-2,9.7c-1.9,2.9-4.9,4.8-8.3,5.4
		c-7.2,1.4-13.7-3.4-15.1-10.3l-17.9-95.1c-0.3-1.4-0.9-2.7-2-3.8l-65.7-66.9c-1.4-1.4-3.3-2.2-5.2-2.2c-0.7,0-1.4,0.1-2,0.3
		c-2.6,0.8-4.6,2.9-5.1,5.5l-16.6,78.1c-0.3,1.3-0.9,2.7-1.6,3.9l-55.5,84.7c-3.9,6-11.8,7.8-17.9,4c-6.2-3.9-8.3-12.5-4.6-18.4
		l52.6-81.2c0.6-0.9,0.9-1.8,1.1-2.9l16.8-109.6l22.5-71.6c1.1-3.4-0.4-7-3.5-8.7c-3.1-1.7-6.9-0.9-9.2,1.9l-68.4,84.8
		c-4.3,5.7-12.4,6.8-18.1,2.5c-2.7-2.1-4.5-5.1-5-8.5s0.4-6.8,2.4-9.4l90.7-112.5c4.3-5.1,20.3-21.4,44.6-16.2l2.1,0.5
		c25.2,5.3,43.3,9.1,51.2,26c6.4,13.8,13.7,35.5,18.5,49.9c1.8,5.4,3.3,9.9,4.4,13.1c0.5,1.5,1.5,2.7,2.8,3.6l57.4,38.7
		c2.6,2.1,4.3,5.1,4.8,8.5C380,253.3,379.1,256.7,376.9,259.4z"/>
</g>
</svg>
