<svg xmlns="http://www.w3.org/2000/svg">
<defs>
<font id="GTWalsheim" horiz-adv-x="1177" >
  <font-face 
    font-family="GTWalsheim"
    font-weight="400"
    font-stretch="normal"
    units-per-em="2048"
    panose-1="2 0 5 3 3 0 0 2 0 3"
    ascent="1638"
    descent="-410"
    x-height="930"
    cap-height="1434"
    bbox="-133 -524 2456 1999"
    underline-thickness="102"
    underline-position="-409"
    unicode-range="U+0020-FB02"
  />
<missing-glyph horiz-adv-x="1482" 
d="M741 1434q94 0 173 -21.5t133.5 -57.5t98 -83.5t69.5 -99t44.5 -103.5t26.5 -99.5t12 -83.5t5 -57.5t2 -21.5q5 0 22.5 23.5t36.5 23.5q18 0 27.5 -57t9.5 -119q0 -55 -9 -116.5t-32 -61.5q-29 0 -43 28q-19 -104 -56 -188t-79 -138t-96 -94t-100 -60t-98.5 -31.5
t-83 -14t-63.5 -2.5t-63.5 2.5t-83 14t-98 31.5t-99.5 60t-96 94t-79 139t-56 189q-1 -3 -3.5 -8t-13.5 -13.5t-26 -8.5q-23 0 -32 61.5t-9 116.5q0 62 9.5 119t27.5 57q19 0 36.5 -23.5t22.5 -23.5q1 0 2 21.5t5 57.5t12 83.5t26.5 99.5t44 103.5t69 99t98 83.5t133.5 57.5
t173 21.5zM741 459q-63 0 -143 -45q-14 25 -14 59q0 49 20 72q6 4 6 14q0 11 -8 19t-18 8q-25 0 -40.5 -41t-15.5 -72q0 -47 19 -78q-49 -18 -96 -18q1 -4 2.5 -11.5t10.5 -29.5t21 -41.5t35.5 -44t52 -41.5t72.5 -29t96 -12q71 0 127 21.5t85.5 52t48.5 61.5t24 53l6 21
q-51 0 -100 18q22 42 22 78q0 32 -15 72.5t-40 40.5q-11 0 -19 -8t-8 -19q0 -9 5 -14q22 -22 22 -72q0 -34 -14 -59q-68 35 -102 41q-20 4 -42 4zM895 819q0 51 35 78q-36 -11 -64 -29t-38 -30l-11 -13q2 -5 6 -14t19 -31.5t33.5 -40t52 -31.5t71.5 -14q32 0 63 9.5
t51.5 23.5t37 28t23.5 23l8 10q-3 9 -10 23.5t-35 44t-64 41.5q31 -28 31 -78q0 -43 -30.5 -72.5t-74.5 -29.5t-74 29.5t-30 72.5zM588 819q0 -43 -30.5 -72.5t-74.5 -29.5t-74 29.5t-30 72.5q0 53 27 74q-35 -12 -61 -38.5t-35 -46.5l-9 -20q3 -4 8 -10t23 -22.5t37.5 -29
t50.5 -22.5t63 -10q38 0 71 13.5t52.5 33t33 38.5t18.5 33l6 13q-3 6 -11 15.5t-38 30.5t-68 32q41 -32 41 -84z" />
    <glyph glyph-name="AE" unicode="AE" horiz-adv-x="1771" 
d="M1614 1266h-617v-469h617v-168h-617v-461h617v-168h-805v221h-494l-106 -221h-205l707 1434h903v-168zM395 389h414v856z" />
    <glyph glyph-name="germandbls" unicode="ss" horiz-adv-x="1150" 
d="M428 0v156q89 -21 162 -21q123 0 208 70.5t85 197.5q0 46 -18 91t-53 85t-94 64.5t-132 24.5h-88v159h82q133 0 200.5 68.5t67.5 175.5q0 102 -75.5 165.5t-190.5 63.5q-117 0 -188.5 -75t-71.5 -195v-1030h-177v1030q0 191 121 309.5t316 118.5q188 0 316 -107.5
t128 -279.5q0 -126 -63.5 -208t-176.5 -115q120 -35 197.5 -128.5t77.5 -216.5q0 -105 -39.5 -188.5t-106.5 -134.5t-150 -78t-175 -27q-93 0 -162 25z" />
    <glyph glyph-name="ae" unicode="ae" horiz-adv-x="1871" 
d="M887 930h176v-82q109 106 280 106q182 0 307.5 -120.5t125.5 -298.5q0 -60 -9 -117h-700q2 -131 72 -211t211 -80q178 0 235 147h180q-26 -126 -137 -211.5t-278 -85.5q-175 0 -287 107v-84h-176v162q-44 -84 -134 -134.5t-192 -50.5q-139 0 -249 67.5t-169 178.5
t-59 242q0 132 59 243t169 178.5t249 67.5q102 0 192 -50t134 -134v160zM1339 803q-118 0 -192.5 -67t-77.5 -183h533q0 111 -74.5 180.5t-188.5 69.5zM571 137q141 0 228.5 95t87.5 233q0 139 -88.5 234.5t-227.5 95.5q-138 0 -224.5 -96.5t-86.5 -233.5t86.5 -232.5
t224.5 -95.5z" />
    <glyph glyph-name="OE" unicode="OE" horiz-adv-x="2320" 
d="M2171 1266h-617v-469h617v-168h-617v-461h617v-168h-803v225q-91 -122 -230.5 -192t-314.5 -70q-135 0 -253.5 40.5t-206.5 112t-151.5 166.5t-95.5 205.5t-32 227.5q0 116 32 226.5t95.5 204.5t151.5 165.5t206.5 112t253.5 40.5q175 0 314 -70.5t231 -191.5v232h803
v-168zM823 133q162 0 288 83.5t190.5 215t64.5 283.5q0 151 -64.5 282t-190.5 214t-288 83q-123 0 -227 -48.5t-172.5 -129t-106.5 -184.5t-38 -217t38 -218t106.5 -186t172.5 -129.5t227 -48.5z" />
    <glyph glyph-name="oe" unicode="oe" horiz-adv-x="1871" 
d="M1767 418h-700q2 -130 72 -210.5t211 -80.5q178 0 235 147h180q-26 -126 -137 -211.5t-278 -85.5q-131 0 -228.5 54.5t-152.5 148.5q-62 -94 -165 -148.5t-233 -54.5q-108 0 -200 39.5t-154.5 106t-97.5 155.5t-35 187q0 132 59.5 243t172 178.5t255.5 67.5
q128 0 230 -54t166 -148q56 95 151.5 148.5t224.5 53.5q182 0 307.5 -120.5t125.5 -298.5q0 -60 -9 -117zM1339 803q-118 0 -192.5 -67t-77.5 -183h533q0 112 -74.5 181t-188.5 69zM571 137q139 0 227.5 94t88.5 234q0 139 -88.5 234.5t-227.5 95.5q-138 0 -224.5 -96.5
t-86.5 -233.5t86.5 -232.5t224.5 -95.5z" />
    <glyph glyph-name="fi" unicode="fi" horiz-adv-x="1275" 
d="M688 1421v-151q-53 16 -104 16q-28 0 -46.5 -2t-42.5 -11.5t-38.5 -27.5t-24.5 -52.5t-10 -82.5v-180h266v-150h-266v-780h-178v780h-201v150h201v162q0 70 12 126t31 92.5t47.5 63t54.5 40t61 21.5t58 9.5t53 1.5q79 0 127 -25zM903 0v930h178v-930h-178zM856 1317
q0 59 39 99t96 40q59 0 99 -40t40 -99q0 -57 -40 -96t-99 -39q-57 0 -96 39t-39 96z" />
    <glyph glyph-name="fl" unicode="fl" horiz-adv-x="1208" 
d="M688 1421v-151q-53 16 -104 16q-28 0 -46.5 -2t-42.5 -11.5t-38.5 -27.5t-24.5 -52.5t-10 -82.5v-180h266v-150h-266v-780h-178v780h-201v150h201v162q0 70 12 126t31 92.5t47.5 63t54.5 40t61 21.5t58 9.5t53 1.5q79 0 127 -25zM870 0v1434h179v-1434h-179z" />
    <glyph glyph-name=".notdef" horiz-adv-x="1482" 
d="M741 1434q94 0 173 -21.5t133.5 -57.5t98 -83.5t69.5 -99t44.5 -103.5t26.5 -99.5t12 -83.5t5 -57.5t2 -21.5q5 0 22.5 23.5t36.5 23.5q18 0 27.5 -57t9.5 -119q0 -55 -9 -116.5t-32 -61.5q-29 0 -43 28q-19 -104 -56 -188t-79 -138t-96 -94t-100 -60t-98.5 -31.5
t-83 -14t-63.5 -2.5t-63.5 2.5t-83 14t-98 31.5t-99.5 60t-96 94t-79 139t-56 189q-1 -3 -3.5 -8t-13.5 -13.5t-26 -8.5q-23 0 -32 61.5t-9 116.5q0 62 9.5 119t27.5 57q19 0 36.5 -23.5t22.5 -23.5q1 0 2 21.5t5 57.5t12 83.5t26.5 99.5t44 103.5t69 99t98 83.5t133.5 57.5
t173 21.5zM741 459q-63 0 -143 -45q-14 25 -14 59q0 49 20 72q6 4 6 14q0 11 -8 19t-18 8q-25 0 -40.5 -41t-15.5 -72q0 -47 19 -78q-49 -18 -96 -18q1 -4 2.5 -11.5t10.5 -29.5t21 -41.5t35.5 -44t52 -41.5t72.5 -29t96 -12q71 0 127 21.5t85.5 52t48.5 61.5t24 53l6 21
q-51 0 -100 18q22 42 22 78q0 32 -15 72.5t-40 40.5q-11 0 -19 -8t-8 -19q0 -9 5 -14q22 -22 22 -72q0 -34 -14 -59q-68 35 -102 41q-20 4 -42 4zM895 819q0 51 35 78q-36 -11 -64 -29t-38 -30l-11 -13q2 -5 6 -14t19 -31.5t33.5 -40t52 -31.5t71.5 -14q32 0 63 9.5
t51.5 23.5t37 28t23.5 23l8 10q-3 9 -10 23.5t-35 44t-64 41.5q31 -28 31 -78q0 -43 -30.5 -72.5t-74.5 -29.5t-74 29.5t-30 72.5zM588 819q0 -43 -30.5 -72.5t-74.5 -29.5t-74 29.5t-30 72.5q0 53 27 74q-35 -12 -61 -38.5t-35 -46.5l-9 -20q3 -4 8 -10t23 -22.5t37.5 -29
t50.5 -22.5t63 -10q38 0 71 13.5t52.5 33t33 38.5t18.5 33l6 13q-3 6 -11 15.5t-38 30.5t-68 32q41 -32 41 -84z" />
    <glyph glyph-name=".null" horiz-adv-x="0" 
 />
    <glyph glyph-name="nonmarkingreturn" horiz-adv-x="682" 
 />
    <glyph glyph-name="space" unicode=" " horiz-adv-x="518" 
 />
    <glyph glyph-name="exclam" unicode="!" horiz-adv-x="606" 
d="M207 436v1006h192v-1006h-192zM154 123q0 62 43 104.5t106 42.5q62 0 106 -43t44 -104q0 -62 -44.5 -107t-105.5 -45q-62 0 -105.5 45t-43.5 107z" />
    <glyph glyph-name="quotedbl" unicode="&#x22;" horiz-adv-x="724" 
d="M123 1186v282h168v-282l-39 -232h-88zM434 1186v282h168v-282l-39 -232h-90z" />
    <glyph glyph-name="numbersign" unicode="#" horiz-adv-x="1126" 
d="M602 0l60 428h-261l-59 -428h-145l59 428h-199v139h217l41 299h-196v140h217l59 428h148l-60 -428h258l60 428h147l-59 -428h176v-140h-197l-41 -299h177v-139h-197l-59 -428h-146zM463 866l-41 -299h258l41 299h-258z" />
    <glyph glyph-name="dollar" unicode="$" horiz-adv-x="1169" 
d="M672 1675v-217q165 -25 266 -140t102 -290h-186q-2 123 -72.5 196.5t-187.5 73.5q-119 0 -191.5 -58t-72.5 -157q0 -45 15.5 -81.5t37.5 -60t61 -45t70.5 -33t81.5 -27.5q46 -15 75 -24.5t74 -26.5t73.5 -31t66.5 -36t62.5 -44t50.5 -52t41 -62t24.5 -73t9.5 -86
q0 -182 -110 -294t-291 -134v-215h-166v217q-184 24 -299 153.5t-115 328.5h187q0 -147 88 -234.5t235 -87.5q126 0 205.5 68t79.5 180q0 36 -9.5 66.5t-22 52.5t-37.5 42t-43.5 32t-52.5 25.5t-52.5 19.5l-55.5 18q-53 16 -84.5 26.5t-77.5 28t-74.5 31.5t-65 36t-58 43.5
t-45.5 51.5t-36.5 63t-21 74.5t-8.5 89.5q0 147 99.5 248.5t263.5 126.5v217h166z" />
    <glyph glyph-name="percent" unicode="%" horiz-adv-x="1738" 
d="M510 -25h-186l895 1543h186zM426 791q-149 0 -253.5 102.5t-104.5 247.5q0 146 104.5 249t253.5 103t253.5 -103t104.5 -249q0 -145 -104.5 -247.5t-253.5 -102.5zM426 940q79 0 134.5 59t55.5 142q0 85 -55.5 145t-134.5 60t-134.5 -60t-55.5 -145q0 -83 55.5 -142
t134.5 -59zM1313 6q-148 0 -253.5 102.5t-105.5 247.5q0 146 105 249.5t254 103.5q150 0 254 -103t104 -250q0 -145 -104.5 -247.5t-253.5 -102.5zM1313 156q81 0 135.5 58t54.5 142q0 86 -54.5 145.5t-135.5 59.5q-79 0 -135 -60t-56 -145q0 -83 55.5 -141.5t135.5 -58.5z
" />
    <glyph glyph-name="ampersand" unicode="&#x26;" horiz-adv-x="1226" 
d="M350 748q-108 44 -165.5 120.5t-57.5 200.5q0 171 128.5 279t317.5 108q196 0 320.5 -119t124.5 -309h-187q0 120 -67 190t-199 70q-112 0 -181 -58.5t-69 -160.5q0 -110 64.5 -174t208.5 -64h30v-165h-30q-154 0 -229.5 -73t-75.5 -198q0 -104 81.5 -177t215.5 -73
q132 0 212 91.5t82 242.5h-167v166h477v-166h-123q-1 -113 -38 -207.5t-101 -159t-152.5 -100t-189.5 -35.5q-130 0 -239 51.5t-177 153.5t-68 234q0 229 254 332z" />
    <glyph glyph-name="quotesingle" unicode="'" horiz-adv-x="413" 
d="M123 1186v282h168v-282l-39 -232h-88z" />
    <glyph glyph-name="parenleft" unicode="(" horiz-adv-x="753" 
d="M696 1626v-168q-133 0 -217 -92.5t-84 -226.5v-1147q0 -134 84 -227t217 -93v-168q-143 0 -255.5 67t-172 178t-59.5 243v1147q0 132 59.5 242.5t172 177.5t255.5 67z" />
    <glyph glyph-name="parenright" unicode=")" horiz-adv-x="753" 
d="M57 1458v168q143 0 256 -67t172.5 -177.5t59.5 -242.5v-1147q0 -132 -59.5 -243t-172.5 -178t-256 -67v168q133 0 217 93t84 227v1147q0 134 -84 226.5t-217 92.5z" />
    <glyph glyph-name="asterisk" unicode="*" horiz-adv-x="937" 
d="M289 733l-96 68l186 250l-297 94l37 110l295 -98l-2 311h118l-4 -311l293 98l37 -110l-297 -94l186 -250l-96 -68l-180 252z" />
    <glyph glyph-name="plus" unicode="+" horiz-adv-x="1040" 
d="M608 176h-178v328h-317v158h317v331h178v-331h322v-158h-322v-328z" />
    <glyph glyph-name="comma" unicode="," horiz-adv-x="552" 
d="M436 70q0 -162 -78.5 -234t-228.5 -74v88q180 6 180 158q-26 -18 -67 -18q-53 0 -91 41.5t-38 99.5q0 62 42.5 103.5t108.5 41.5q76 0 124 -57.5t48 -148.5z" />
    <glyph glyph-name="hyphen" unicode="-" horiz-adv-x="602" 
d="M541 664v-160h-480v160h480z" />
    <glyph glyph-name="period" unicode="." horiz-adv-x="522" 
d="M119 131q0 61 41 103t100 42q60 0 103 -42t43 -103q0 -58 -43 -99.5t-103 -41.5q-58 0 -99.5 41t-41.5 100z" />
    <glyph glyph-name="slash" unicode="/" horiz-adv-x="892" 
d="M-16 -141l747 1732h178l-745 -1732h-180z" />
    <glyph glyph-name="zero" unicode="0" 
d="M98 463v508q0 132 59.5 242.5t172.5 177.5t256 67q146 0 260 -67t173.5 -177t59.5 -243v-508q0 -132 -59.5 -242.5t-173.5 -178t-260 -67.5q-143 0 -256 67.5t-172.5 178.5t-59.5 242zM893 463v508q0 134 -85.5 226.5t-221.5 92.5q-133 0 -217 -92.5t-84 -226.5v-508
q0 -133 84 -226.5t217 -93.5q136 0 221.5 93.5t85.5 226.5z" />
    <glyph glyph-name="one" unicode="1" 
d="M268 1047v149q96 0 155.5 12.5t93 43t45 72t11.5 110.5h179v-1434h-193v1047h-291z" />
    <glyph glyph-name="two" unicode="2" 
d="M162 0q0 134 18.5 236.5t49.5 174t84.5 129t110 95.5t140.5 80q133 67 184 107q120 95 121 235q0 111 -68 171t-184 60q-121 0 -195.5 -73.5t-74.5 -206.5h-186q0 204 132.5 326t326.5 122q197 0 316.5 -109.5t119.5 -306.5q0 -43 -10 -84t-23.5 -74t-39.5 -66.5
t-46.5 -56.5t-55.5 -50.5t-55 -42t-58.5 -37t-51.5 -29.5t-47 -25q-93 -49 -149 -89.5t-89.5 -89t-45 -100t-11.5 -128.5h682v-168h-895z" />
    <glyph glyph-name="three" unicode="3" 
d="M96 453h187q0 -140 87 -224t220 -84q128 0 205 74t77 182q0 121 -71.5 193t-218.5 72h-103v165h103q132 0 196 64t64 174q0 103 -68 161t-182 58q-135 0 -201.5 -69.5t-66.5 -190.5h-187q0 190 123.5 309t319.5 119q191 0 319.5 -107.5t128.5 -279.5q0 -122 -59 -205
t-162 -116q115 -37 183.5 -125.5t68.5 -221.5q0 -123 -63 -220.5t-172 -150.5t-242 -53q-132 0 -241.5 55.5t-177 165.5t-67.5 255z" />
    <glyph glyph-name="four" unicode="4" 
d="M678 0v461h-535v973h187v-805h348v442h186v-442h215v-168h-215v-461h-186z" />
    <glyph glyph-name="five" unicode="5" 
d="M129 610v824h844v-168h-676v-480q41 79 134 121.5t187 42.5q145 0 251.5 -67t159 -175.5t52.5 -242.5q0 -132 -60 -242.5t-174 -178t-259 -67.5q-143 0 -256 67.5t-172.5 178.5t-59.5 242h187q0 -133 84 -226.5t217 -93.5q137 0 221 93t84 227t-84 225.5t-221 91.5
q-190 0 -269 -172h-190z" />
    <glyph glyph-name="six" unicode="6" 
d="M586 -23q-143 0 -256 67.5t-172.5 178.5t-59.5 242q0 150 84 285l428 684h215l-327 -504q30 24 88 24q146 0 260 -67.5t173.5 -178t59.5 -243.5q0 -132 -59.5 -242.5t-173.5 -178t-260 -67.5zM586 145q136 0 221.5 93.5t85.5 226.5q0 134 -85.5 226.5t-221.5 92.5
q-133 0 -217 -92.5t-84 -226.5q0 -133 84 -226.5t217 -93.5z" />
    <glyph glyph-name="seven" unicode="7" 
d="M186 1434h889l-637 -1434h-198l569 1266h-623v168z" />
    <glyph glyph-name="eight" unicode="8" 
d="M573 -23q-220 0 -351.5 122t-131.5 304q0 120 62 217.5t178 129.5q-104 36 -155.5 120.5t-51.5 188.5q0 171 121.5 284t328.5 113q203 0 326 -114.5t123 -282.5q0 -104 -52 -188.5t-155 -120.5q115 -32 176.5 -130.5t61.5 -216.5q0 -178 -131.5 -302t-348.5 -124z
M573 813q120 0 191.5 68.5t71.5 169.5t-72 169t-191 68q-120 0 -192 -68t-72 -169q0 -103 71.5 -170.5t192.5 -67.5zM573 145q133 0 213 74.5t80 183.5t-79 184t-214 75q-137 0 -215.5 -74t-78.5 -185t80 -184.5t214 -73.5z" />
    <glyph glyph-name="nine" unicode="9" 
d="M592 1456q143 0 255.5 -67t172 -177.5t59.5 -242.5q0 -143 -86 -285l-426 -684h-215l328 504q-9 -11 -37 -17t-51 -6q-110 0 -203.5 39t-156.5 106t-98.5 155.5t-35.5 187.5t35.5 187.5t98.5 155t156.5 105.5t203.5 39zM592 1288q-136 0 -221.5 -92.5t-85.5 -226.5
t85.5 -227t221.5 -93q133 0 217 93t84 227t-84 226.5t-217 92.5z" />
    <glyph glyph-name="colon" unicode=":" horiz-adv-x="522" 
d="M119 815q0 61 41 103.5t100 42.5q60 0 103 -42.5t43 -103.5q0 -58 -43 -99.5t-103 -41.5q-58 0 -99.5 41t-41.5 100zM119 131q0 60 41.5 102.5t99.5 42.5q60 0 103 -42.5t43 -102.5q0 -59 -43 -101t-103 -42q-58 0 -99.5 42t-41.5 101z" />
    <glyph glyph-name="semicolon" unicode=";" horiz-adv-x="538" 
d="M119 817q0 60 41 102t100 42q60 0 103 -42t43 -102t-43 -101.5t-103 -41.5q-59 0 -100 41.5t-41 101.5zM436 70q0 91 -48 148.5t-124 57.5q-66 0 -108.5 -41.5t-42.5 -103.5q0 -58 38 -99.5t91 -41.5q41 0 67 18q0 -152 -180 -158v-88q150 2 228.5 74t78.5 234z" />
    <glyph glyph-name="less" unicode="&#x3c;" 
d="M1108 147l-1038 369v129l1038 371v-170l-776 -264l776 -267v-168z" />
    <glyph glyph-name="equal" unicode="=" horiz-adv-x="1187" 
d="M1008 668h-828v157h828v-157zM1008 336h-828v160h828v-160z" />
    <glyph glyph-name="greater" unicode="&#x3e;" 
d="M1108 516l-1038 -369v168l776 267l-776 264v170l1038 -371v-129z" />
    <glyph glyph-name="question" unicode="?" horiz-adv-x="1032" 
d="M553 385h-180q2 147 41.5 233.5t138.5 155.5q34 23 53 37t52 44.5t51 57.5t32.5 67t14.5 83q0 110 -68.5 168.5t-187.5 58.5q-118 0 -192.5 -73.5t-74.5 -206.5h-186q0 137 61.5 240t163.5 155.5t228 52.5q194 0 318 -107.5t124 -287.5q0 -71 -21.5 -131.5t-61 -106
t-69 -71t-71.5 -54.5q-73 -51 -105 -86t-46.5 -86t-14.5 -143zM315 123q0 62 42.5 104.5t105.5 42.5t107 -43t44 -104q0 -62 -44 -107t-107 -45q-62 0 -105 45t-43 107z" />
    <glyph glyph-name="at" unicode="@" horiz-adv-x="1748" 
d="M1128 825h150v-579q0 -191 127 -191q50 0 84.5 39.5t57 148.5t22.5 287q0 275 -194 433.5t-523 158.5q-129 0 -246 -49t-206.5 -137.5t-142 -222t-52.5 -291.5q0 -106 29 -206t89.5 -188.5t146.5 -154.5t208 -104.5t266 -38.5q325 0 567 135l72 -117q-271 -154 -639 -154
q-173 0 -320 46t-251 124.5t-177 184.5t-108 225.5t-35 247.5q0 188 65 347t175.5 264.5t255 164.5t303.5 59q400 0 634 -193.5t234 -533.5q0 -320 -85 -466t-257 -146q-107 0 -178.5 67.5t-71.5 178.5q-38 -73 -116 -117.5t-166 -44.5q-180 0 -297 123.5t-117 296.5
q0 113 51.5 209.5t147 154.5t215.5 58q89 0 166.5 -44t115.5 -118v143zM584 422q0 -119 74.5 -202t193.5 -83q123 0 199.5 83t76.5 202q0 120 -76.5 203.5t-199.5 83.5q-119 0 -193.5 -83.5t-74.5 -203.5z" />
    <glyph glyph-name="A" unicode="A" horiz-adv-x="1144" 
d="M639 1434l496 -1434h-197l-76 219h-581l-74 -219h-197l494 1434h135zM573 1128l-235 -739h467z" />
    <glyph glyph-name="B" unicode="B" horiz-adv-x="1210" 
d="M160 0v1434h489q99 0 177.5 -26t126 -67t78.5 -95.5t42.5 -105.5t11.5 -104q0 -131 -70 -211.5t-167 -101.5q42 -9 83 -32.5t79.5 -61t62 -96.5t23.5 -130q0 -53 -12 -104.5t-43.5 -107t-79 -97t-125.5 -68t-177 -26.5h-499zM664 639h-318v-471h313q54 0 98 15t71.5 39
t46.5 55.5t26.5 62.5t7.5 63q0 39 -14 78.5t-41.5 76t-77 59t-112.5 22.5zM346 809h307q66 0 116 21.5t77 56.5t40 72.5t13 76.5q0 31 -7.5 61.5t-26 61.5t-46 54.5t-71.5 38t-99 14.5h-303v-457z" />
    <glyph glyph-name="C" unicode="C" horiz-adv-x="1587" 
d="M1303 442h204q-56 -207 -238.5 -341t-432.5 -134q-171 0 -314.5 61t-238 164.5t-147 239.5t-52.5 287q0 146 51 281t142.5 238.5t230 165.5t301.5 62q152 0 276.5 -41t209.5 -114t138.5 -169t73.5 -210h-196q-33 163 -160 264.5t-320 101.5q-103 0 -193 -31t-155.5 -86
t-113 -128t-71.5 -158t-24 -176q0 -119 39.5 -224.5t112.5 -185.5t185 -127t247 -47q148 0 274.5 87t170.5 220z" />
    <glyph glyph-name="D" unicode="D" horiz-adv-x="1427" 
d="M160 1434h442q172 0 315.5 -61t235.5 -162t142.5 -229t50.5 -265t-50.5 -265t-142.5 -229t-235.5 -162t-315.5 -61h-442v1434zM602 1266h-256v-1098h256q128 0 234 47t174 124.5t105.5 175t37.5 202.5q0 106 -37.5 204t-105.5 175t-174 123.5t-234 46.5z" />
    <glyph glyph-name="E" unicode="E" horiz-adv-x="1114" 
d="M965 1266h-619v-469h619v-168h-619v-461h619v-168h-805v1434h805v-168z" />
    <glyph glyph-name="F" unicode="F" horiz-adv-x="1101" 
d="M965 1266h-619v-512h619v-168h-619v-586h-186v1434h805v-168z" />
    <glyph glyph-name="G" unicode="G" horiz-adv-x="1712" 
d="M969 522v168h690v-168h-154q-43 -256 -219 -405.5t-467 -149.5q-138 0 -257 40.5t-205.5 112t-149 166.5t-93 204.5t-30.5 226.5q0 146 51.5 281t144.5 239t233 166.5t306 62.5q237 0 405 -125t195 -307h-188q-28 113 -142 188.5t-270 75.5q-124 0 -228 -48.5
t-172.5 -129.5t-106.5 -185.5t-38 -217.5q0 -115 36.5 -218.5t105.5 -185t179 -130t247 -48.5q201 0 321.5 108.5t143.5 278.5h-338z" />
    <glyph glyph-name="H" unicode="H" horiz-adv-x="1359" 
d="M1014 0v629h-668v-629h-186v1434h186v-637h668v637h186v-1434h-186z" />
    <glyph glyph-name="I" unicode="I" horiz-adv-x="512" 
d="M160 0v1434h192v-1434h-192z" />
    <glyph glyph-name="J" unicode="J" horiz-adv-x="1097" 
d="M29 455h186q0 -143 76 -231.5t203 -88.5q128 0 201 87t73 233v979h184v-979q0 -215 -123.5 -351.5t-334.5 -136.5q-210 0 -337.5 137.5t-127.5 350.5z" />
    <glyph glyph-name="K" unicode="K" horiz-adv-x="1208" 
d="M948 0l-602 651v-651h-186v1434h186v-652l602 652h236l-656 -717l656 -717h-236z" />
    <glyph glyph-name="L" unicode="L" horiz-adv-x="870" 
d="M346 168h469v-168h-655v1434h186v-1266z" />
    <glyph glyph-name="M" unicode="M" horiz-adv-x="1662" 
d="M1503 1434v-1434h-188v999l-412 -999h-143l-414 999v-999h-186v1434h180l491 -1147l492 1147h180z" />
    <glyph glyph-name="N" unicode="N" horiz-adv-x="1357" 
d="M367 1434l645 -1108v1108h186v-1434h-207l-645 1108v-1108h-186v1434h207z" />
    <glyph glyph-name="O" unicode="O" horiz-adv-x="1644" 
d="M823 -33q-135 0 -253.5 40.5t-206.5 112t-151.5 166t-95.5 205t-32 226.5q0 146 51.5 281t144.5 239.5t234 166.5t309 62q167 0 308.5 -62.5t234.5 -166.5t145 -239t52 -281q0 -116 -32.5 -226.5t-96.5 -205t-152 -166t-206.5 -112t-252.5 -40.5zM823 135q122 0 226 49
t172.5 130t106.5 185.5t38 217.5q0 152 -64.5 283.5t-190.5 214.5t-288 83q-123 0 -227 -48.5t-172.5 -129.5t-106.5 -185.5t-38 -217.5t38 -217.5t106.5 -185.5t172.5 -130t227 -49z" />
    <glyph glyph-name="P" unicode="P" horiz-adv-x="1220" 
d="M160 0v1434h504q145 0 258.5 -67.5t173 -178t59.5 -242.5q0 -133 -59.5 -243.5t-173 -178t-258.5 -67.5h-318v-457h-186zM664 627q136 0 220.5 92.5t84.5 226.5q0 133 -84.5 226.5t-220.5 93.5h-318v-639h318z" />
    <glyph glyph-name="Q" unicode="Q" horiz-adv-x="1644" 
d="M1563 717q0 -258 -148 -457t-391 -262l127 -178l-166 -82l-164 229q-135 1 -253.5 41.5t-206 112t-150.5 166t-95 204.5t-32 226q0 146 51.5 281t144.5 239.5t234 166.5t309 62q167 0 308.5 -62.5t234.5 -166.5t145 -239t52 -281zM823 135q122 0 226 49t172.5 130
t106.5 185.5t38 217.5q0 152 -64.5 283.5t-190.5 214.5t-288 83q-123 0 -227 -48.5t-172.5 -129.5t-106.5 -185.5t-38 -217.5t38 -217.5t106.5 -185.5t172.5 -130t227 -49z" />
    <glyph glyph-name="R" unicode="R" horiz-adv-x="1241" 
d="M160 0v1434h504q145 0 258.5 -67.5t173 -178t59.5 -242.5q0 -158 -85.5 -283t-231.5 -176l301 -487h-213l-285 457h-295v-457h-186zM664 627q136 0 220.5 92.5t84.5 226.5q0 133 -84.5 226.5t-220.5 93.5h-318v-639h318z" />
    <glyph glyph-name="S" unicode="S" horiz-adv-x="1169" 
d="M92 457h187q0 -147 88 -234.5t235 -87.5q126 0 205.5 66.5t79.5 177.5q0 36 -9.5 67t-22.5 53.5t-37 43t-43.5 32.5t-52.5 26t-52.5 20.5t-55.5 17.5q-53 16 -85 26.5t-78 28t-74.5 31.5t-64.5 36t-58 43.5t-45.5 51.5t-36.5 63t-21 74.5t-8 89.5q0 169 126 276t321 107
q197 0 323 -121t127 -317h-186q-2 124 -71.5 197t-188.5 73t-191.5 -58t-72.5 -157q0 -45 15.5 -81.5t37.5 -60t61 -45t70.5 -33t81.5 -27.5q60 -19 97 -32t93 -36.5t91.5 -45.5t76.5 -56t64 -71t39 -87.5t16 -108.5q0 -137 -65 -236t-173.5 -147.5t-246.5 -48.5
q-139 0 -251 58t-178.5 170.5t-66.5 261.5z" />
    <glyph glyph-name="T" unicode="T" horiz-adv-x="978" 
d="M395 0v1266h-370v168h929v-168h-372v-1266h-187z" />
    <glyph glyph-name="U" unicode="U" horiz-adv-x="1288" 
d="M145 465v969h187v-969q0 -137 86.5 -233.5t222.5 -96.5q141 0 228 96t87 234v969h187v-969q0 -136 -60.5 -248.5t-176.5 -181t-265 -68.5q-145 0 -260 68.5t-175.5 181.5t-60.5 248z" />
    <glyph glyph-name="V" unicode="V" horiz-adv-x="1153" 
d="M1145 1434l-500 -1434h-135l-502 1434h197l373 -1127l370 1127h197z" />
    <glyph glyph-name="W" unicode="W" horiz-adv-x="1974" 
d="M1335 0l-348 1110l-346 -1110h-139l-490 1434h197l360 -1110l349 1110h141l348 -1110l360 1110h197l-491 -1434h-138z" />
    <glyph glyph-name="X" unicode="X" horiz-adv-x="1122" 
d="M561 879l330 555h213l-436 -717l436 -717h-213l-330 555l-330 -555h-211l435 717l-435 717h211z" />
    <glyph glyph-name="Y" unicode="Y" horiz-adv-x="1193" 
d="M1200 1434l-721 -1434h-205l287 569l-541 865h218l419 -670l338 670h205z" />
    <glyph glyph-name="Z" unicode="Z" horiz-adv-x="1157" 
d="M72 1266v168h1067l-797 -1266h803v-168h-1116l796 1266h-753z" />
    <glyph glyph-name="bracketleft" unicode="[" horiz-adv-x="686" 
d="M563 -479h-403v2107h403v-160h-225v-1790h225v-157z" />
    <glyph glyph-name="backslash" unicode="\" horiz-adv-x="892" 
d="M164 1591l745 -1730h-180l-745 1730h180z" />
    <glyph glyph-name="bracketright" unicode="]" horiz-adv-x="686" 
d="M526 -479h-403v157h225v1788h-225v160h403v-2105z" />
    <glyph glyph-name="underscore" unicode="_" horiz-adv-x="1146" 
d="M1085 -227h-1024v125h1024v-125z" />
    <glyph glyph-name="grave" unicode="`" horiz-adv-x="1146" 
d="M801 1030l-510 281l84 139l510 -281z" />
    <glyph glyph-name="a" unicode="a" horiz-adv-x="1222" 
d="M887 930h176v-930h-176v162q-44 -84 -134 -134.5t-192 -50.5q-139 0 -249 67.5t-169 178.5t-59 242q0 132 59 243t169 178.5t249 67.5q102 0 192 -50t134 -134v160zM571 137q141 0 228.5 95t87.5 233t-87.5 234t-228.5 96q-138 0 -224.5 -96.5t-86.5 -233.5t86.5 -232.5
t224.5 -95.5z" />
    <glyph glyph-name="b" unicode="b" horiz-adv-x="1226" 
d="M338 162v-162h-178v1434h178v-664q44 84 133 134t191 50q140 0 250.5 -67.5t169.5 -178.5t59 -243q0 -131 -59 -242t-169.5 -178.5t-250.5 -67.5q-102 0 -191 50.5t-133 134.5zM653 137q136 0 223 95.5t87 232.5t-87 233.5t-223 96.5q-141 0 -228 -96t-87 -234t87 -233
t228 -95z" />
    <glyph glyph-name="c" unicode="c" horiz-adv-x="1083" 
d="M991 592h-178q-25 203 -258 203q-138 0 -213.5 -95.5t-75.5 -234.5q0 -142 76 -235t223 -93q110 0 168.5 46.5t81.5 135.5h178q-23 -153 -134.5 -247.5t-305.5 -94.5q-110 0 -200 40.5t-147 109t-87.5 155.5t-30.5 183t30.5 183t87.5 155.5t146.5 109.5t198.5 41
q108 0 192.5 -30.5t135 -83.5t78.5 -115t34 -133z" />
    <glyph glyph-name="d" unicode="d" horiz-adv-x="1222" 
d="M887 0v162q-44 -84 -134 -134.5t-192 -50.5q-139 0 -249 67.5t-169 178.5t-59 242q0 132 59 243t169 178.5t249 67.5q102 0 192 -50t134 -134v664h176v-1434h-176zM571 137q141 0 228.5 95t87.5 233t-87.5 234t-228.5 96q-138 0 -224.5 -96.5t-86.5 -233.5t86.5 -232.5
t224.5 -95.5z" />
    <glyph glyph-name="e" unicode="e" horiz-adv-x="1075" 
d="M969 418h-699q0 -128 70 -209.5t213 -81.5q178 0 235 147h181q-26 -125 -137.5 -211t-278.5 -86q-113 0 -204 40.5t-146.5 109.5t-85 155.5t-29.5 182.5q0 216 122 352.5t337 136.5q182 0 306 -120.5t124 -298.5q0 -66 -8 -117zM543 803q-118 0 -193 -67t-78 -183h533
q0 112 -74 181t-188 69z" />
    <glyph glyph-name="f" unicode="f" horiz-adv-x="710" 
d="M688 1421v-151q-53 16 -104 16q-28 0 -46.5 -2t-42.5 -11.5t-38.5 -27.5t-24.5 -52.5t-10 -82.5v-180h266v-150h-266v-780h-178v780h-201v150h201v162q0 70 12 126t31 92.5t47.5 63t54.5 40t61 21.5t58 9.5t53 1.5q79 0 127 -25z" />
    <glyph glyph-name="g" unicode="g" horiz-adv-x="1218" 
d="M571 795q-138 0 -224.5 -96.5t-86.5 -233.5t86.5 -232.5t224.5 -95.5q141 0 228.5 95t87.5 233t-87.5 234t-228.5 96zM1063 930v-989q0 -465 -496 -465q-115 0 -205 33.5t-145.5 91t-85.5 128.5t-35 152h180q8 -107 80.5 -177.5t210.5 -70.5q320 0 320 308v221
q-44 -84 -134 -134.5t-192 -50.5q-139 0 -249 67.5t-169 178.5t-59 242q0 132 59 243t169 178.5t249 67.5q102 0 192 -50t134 -134v160h176z" />
    <glyph glyph-name="h" unicode="h" horiz-adv-x="1157" 
d="M338 1434v-668q41 87 128.5 137.5t213.5 50.5q336 0 336 -393v-561h-178v504q0 56 -3.5 94.5t-16.5 79t-36.5 64.5t-64.5 39.5t-99 15.5q-71 0 -126 -26t-88 -71t-49.5 -101t-16.5 -120v-479h-178v1434h178z" />
    <glyph glyph-name="i" unicode="i" horiz-adv-x="565" 
d="M195 0v930h176v-930h-176zM139 1319q0 60 42 101.5t102 41.5t101.5 -41.5t41.5 -101.5t-41.5 -101.5t-101.5 -41.5t-102 41.5t-42 101.5z" />
    <glyph glyph-name="j" unicode="j" horiz-adv-x="546" 
d="M356 -250v1180h-178v-1170q0 -125 -94 -125q-29 0 -90 17v-150q60 -24 162 -24q87 0 143.5 65.5t56.5 206.5zM125 1319q0 60 41 101.5t100 41.5q60 0 103 -41.5t43 -101.5t-43 -101.5t-103 -41.5q-59 0 -100 41.5t-41 101.5z" />
    <glyph glyph-name="k" unicode="k" horiz-adv-x="976" 
d="M952 930l-424 -465l424 -465h-225l-389 422v-422h-178v1434h178v-928l389 424h225z" />
    <glyph glyph-name="l" unicode="l" horiz-adv-x="497" 
d="M160 0v1434h178v-1434h-178z" />
    <glyph glyph-name="m" unicode="m" horiz-adv-x="1687" 
d="M1542 0h-178v535q0 128 -50.5 195t-146.5 67q-106 0 -166.5 -82.5t-60.5 -241.5v-473h-178v524q0 273 -195 273q-105 0 -167 -83t-62 -241v-473h-178v930h178v-166q28 81 102 135.5t172 54.5q241 0 299 -198q31 83 112.5 140.5t186.5 57.5q175 0 253.5 -99.5t78.5 -266.5
v-588z" />
    <glyph glyph-name="n" unicode="n" horiz-adv-x="1157" 
d="M338 930v-164q37 86 122.5 137t198.5 51q180 0 268.5 -94t88.5 -295v-565h-178v508q0 149 -47.5 219t-178.5 70q-137 0 -205.5 -90t-68.5 -248v-459h-178v930h178z" />
    <glyph glyph-name="o" unicode="o" horiz-adv-x="1146" 
d="M571 -23q-108 0 -200 39.5t-154.5 106t-97.5 155.5t-35 187q0 132 59.5 243t172 178.5t255.5 67.5q145 0 259 -67.5t173.5 -178t59.5 -243.5q0 -98 -35.5 -186.5t-98 -155.5t-156 -106.5t-202.5 -39.5zM571 137q141 0 228.5 95t87.5 233t-87.5 234t-228.5 96
q-138 0 -224.5 -96.5t-86.5 -233.5t86.5 -232.5t224.5 -95.5z" />
    <glyph glyph-name="p" unicode="p" horiz-adv-x="1226" 
d="M338 930v-160q44 84 133 134t191 50q140 0 250.5 -67.5t169.5 -178.5t59 -243q0 -131 -59 -242t-169.5 -178.5t-250.5 -67.5q-102 0 -191 50.5t-133 134.5v-666h-178v1434h178zM653 795q-141 0 -228 -96t-87 -234t87 -233t228 -95q136 0 223 95.5t87 232.5t-87 233.5
t-223 96.5z" />
    <glyph glyph-name="q" unicode="q" horiz-adv-x="1226" 
d="M889 770v160h178v-1434h-178v666q-44 -84 -133 -134.5t-191 -50.5q-140 0 -250.5 67.5t-169.5 178.5t-59 242q0 132 59 243t169.5 178.5t250.5 67.5q102 0 191 -50t133 -134zM573 795q-136 0 -222.5 -96.5t-86.5 -233.5t86.5 -232.5t222.5 -95.5q141 0 228.5 95t87.5 233
t-87.5 234t-228.5 96z" />
    <glyph glyph-name="r" unicode="r" horiz-adv-x="747" 
d="M735 930v-164q-46 10 -88 10q-152 0 -230.5 -98t-78.5 -270v-408h-178v930h178v-182q36 87 123 141.5t186 54.5q53 0 88 -14z" />
    <glyph glyph-name="s" unicode="s" horiz-adv-x="925" 
d="M549 522q54 -17 86.5 -28.5t73.5 -34.5t63.5 -49t38.5 -67t16 -93q0 -133 -100.5 -203t-265.5 -70q-77 0 -145.5 21.5t-122 62t-84.5 105.5t-31 147h174q0 -99 59 -145.5t158 -46.5q188 0 188 125q0 20 -5.5 36.5t-13 29t-25 24t-32 19t-43.5 18t-49.5 16.5t-61 18
t-67.5 21q-51 16 -84.5 29.5t-67.5 34.5t-52.5 46.5t-30.5 63t-12 86.5q0 125 98 195.5t250 70.5q151 0 253.5 -87.5t102.5 -225.5h-172q0 82 -48 126t-140 44q-76 0 -124 -33.5t-48 -89.5q0 -41 28.5 -68.5t63 -41t124.5 -41.5q31 -10 48 -15z" />
    <glyph glyph-name="t" unicode="t" horiz-adv-x="696" 
d="M666 158v-158q-70 -12 -160 -12q-29 0 -52.5 2t-55.5 9.5t-56 20.5t-49.5 37.5t-42 57.5t-27 84t-10.5 114v467h-172v150h172v313h178v-313h242v-150h-242v-428q0 -65 10.5 -107t33.5 -62t47.5 -26.5t62.5 -6.5q67 0 121 8z" />
    <glyph glyph-name="u" unicode="u" horiz-adv-x="1157" 
d="M819 2v164q-37 -86 -123 -137.5t-198 -51.5q-179 0 -268 94.5t-89 295.5v565h178v-508q0 -149 47.5 -219t178.5 -70q137 0 205.5 90t68.5 248v459h178v-930h-178z" />
    <glyph glyph-name="v" unicode="v" horiz-adv-x="987" 
d="M8 930h193l291 -676l294 676h193l-426 -930h-123z" />
    <glyph glyph-name="w" unicode="w" horiz-adv-x="1503" 
d="M1012 0l-260 735l-260 -735h-123l-361 930h191l231 -656l234 656h176l231 -656l234 656h190l-360 -930h-123z" />
    <glyph glyph-name="x" unicode="x" horiz-adv-x="901" 
d="M553 469l315 -469h-204l-213 330l-213 -330h-205l315 469l-311 461h205l209 -324l208 324h205z" />
    <glyph glyph-name="y" unicode="y" horiz-adv-x="1173" 
d="M842 -66v230q-37 -86 -123.5 -137.5t-198.5 -51.5q-179 0 -267.5 94.5t-88.5 295.5v565h178v-508q0 -149 47 -219t178 -70q137 0 206 90t69 248v459h178v-996q0 -241 -116.5 -349.5t-348.5 -108.5q-189 0 -299 113t-113 290h174q3 -115 65.5 -180.5t192.5 -65.5
q137 0 202 70t65 231z" />
    <glyph glyph-name="z" unicode="z" horiz-adv-x="888" 
d="M66 930h782l-498 -770h500v-160h-801l498 772h-481v158z" />
    <glyph glyph-name="braceleft" unicode="{" horiz-adv-x="860" 
d="M608 1626h135v-135h-94q-72 0 -107.5 -50t-35.5 -126v-535q0 -57 -20 -101.5t-52.5 -70t-62 -39t-58.5 -18.5q31 -7 59 -19.5t61 -39t53 -75.5t20 -114v-471q0 -74 35.5 -125t107.5 -51h94v-135h-135q-51 0 -100 17.5t-89.5 51.5t-65.5 90t-25 125v476q0 50 -20 89.5
t-50 61t-61 32.5t-58 11v148q37 0 78.5 17t76 60t34.5 103v538q0 135 85 210t195 75z" />
    <glyph glyph-name="bar" unicode="|" horiz-adv-x="497" 
d="M338 -479h-178v2105h178v-2105z" />
    <glyph glyph-name="braceright" unicode="}" horiz-adv-x="860" 
d="M119 1626h135q51 0 100 -18t90 -52t66 -90t25 -125v-538q0 -46 20 -82.5t50 -56.5t60.5 -30.5t57.5 -10.5v-148q-27 0 -57.5 -11t-61 -32.5t-50 -61t-19.5 -89.5v-476q0 -92 -43.5 -158.5t-105.5 -96t-132 -29.5h-135v135h92q72 0 107.5 51t35.5 125v471q0 65 20 114
t53 75.5t61 39t59 19.5q-29 5 -58.5 18.5t-62 39t-52.5 70t-20 101.5v535q0 76 -35.5 126t-107.5 50h-92v135z" />
    <glyph glyph-name="asciitilde" unicode="~" horiz-adv-x="1060" 
d="M76 438v158q46 57 104 84t115 27q84 0 242 -66q13 -6 46.5 -20t51 -21t43 -16t45 -13t35.5 -4q108 0 225 113v-156q-93 -116 -227 -116q-84 0 -226 71q-140 68 -243 68q-106 0 -211 -109z" />
    <glyph glyph-name="exclamdown" unicode="&#xa1;" horiz-adv-x="606" 
d="M209 -6v999h194v-999h-194zM162 1311q0 61 42 103t101 42q60 0 103 -42t43 -103q0 -59 -43 -101.5t-103 -42.5q-58 0 -100.5 42.5t-42.5 101.5z" />
    <glyph glyph-name="cent" unicode="&#xa2;" horiz-adv-x="1083" 
d="M989 770h-178q-10 93 -72 148t-186 55q-136 0 -211.5 -95.5t-75.5 -234.5q0 -142 75.5 -235t223.5 -93q110 0 168.5 47t81.5 136h178q-21 -136 -111 -226.5t-245 -109.5v-221h-168v223q-180 27 -280.5 162.5t-100.5 316.5q0 179 101.5 316.5t279.5 164.5v224h168v-222
q86 -12 153 -46.5t108 -84t63.5 -106t27.5 -119.5z" />
    <glyph glyph-name="sterling" unicode="&#xa3;" horiz-adv-x="1204" 
d="M80 688v168h139v193q0 177 130 292t319 115q198 0 324 -126t126 -322h-186q0 126 -69.5 202t-203.5 76q-113 0 -182 -64.5t-69 -172.5v-193h340v-168h-340v-96q0 -350 -68 -424h664v-168h-877v141q92 89 92 451v96h-139z" />
    <glyph glyph-name="yen" unicode="&#xa5;" horiz-adv-x="1214" 
d="M-45 1434h217l438 -676l432 676h215l-530 -832h299v-149h-332v-146h332v-149h-332v-158h-170v158h-325v149h325v146h-325v149h293z" />
    <glyph glyph-name="section" unicode="&#xa7;" horiz-adv-x="1187" 
d="M1104 526q0 -112 -71 -201.5t-161 -107.5q164 -98 164 -289q0 -165 -129 -261.5t-325 -96.5q-201 0 -335 119t-134 305h188q0 -117 78.5 -192.5t202.5 -75.5q122 0 194 50t72 152q0 48 -19.5 85t-59.5 65t-88 47.5t-116 38.5q-62 18 -106.5 32.5t-97.5 35.5t-89.5 42
t-73 50.5t-59 62.5t-36 76t-13.5 92q0 114 63 196t173 111q-156 98 -156 289q0 163 131 262.5t324 99.5q194 0 323 -117t129 -298h-188q0 113 -73.5 185.5t-190.5 72.5q-119 0 -193 -53t-74 -152q0 -41 16 -75.5t39.5 -57t62.5 -43t72 -32t81 -25.5q62 -18 105.5 -32.5
t97 -36t90 -42.5t73.5 -50.5t59 -62.5t36 -76t14 -92zM915 508q0 43 -16 76.5t-42.5 58t-74 46.5t-96.5 37.5t-125 35.5l-63 16q-97 -4 -157 -63.5t-60 -141.5q0 -43 18.5 -79t49 -61.5t76.5 -48t93 -37.5t107 -30l75 -18q89 5 152 65t63 144z" />
    <glyph glyph-name="dieresis" unicode="&#xa8;" horiz-adv-x="1146" 
d="M195 1253q0 60 41.5 103t101.5 43t101.5 -43t41.5 -103q0 -59 -41.5 -100t-101.5 -41t-101.5 41t-41.5 100zM666 1253q0 60 41.5 103t99.5 43q60 0 102.5 -43t42.5 -103q0 -58 -42.5 -99.5t-102.5 -41.5q-59 0 -100 41t-41 100z" />
    <glyph glyph-name="copyright" unicode="&#xa9;" horiz-adv-x="1650" 
d="M825 -35q-134 0 -252.5 40.5t-206.5 112t-151.5 166.5t-96 205.5t-32.5 227.5t32.5 227.5t96 205t151.5 166t206.5 112t252.5 40.5t252.5 -40.5t206.5 -112t152 -166t96.5 -205t32.5 -227.5t-32.5 -227.5t-96.5 -205.5t-152 -166.5t-206.5 -112t-252.5 -40.5zM1110 547
h141q-33 -126 -145 -208.5t-264 -82.5q-141 0 -248 64.5t-161 168.5t-54 230q0 90 31 172.5t87 146.5t141.5 102t186.5 38q182 0 291 -91.5t135 -238.5h-137q-25 93 -98.5 151t-190.5 58q-140 0 -224.5 -99.5t-84.5 -238.5q0 -143 89 -242.5t237 -99.5q93 0 165.5 48
t102.5 122zM825 102q129 0 239 51.5t182 137.5t112.5 196.5t40.5 229.5t-40.5 229.5t-112.5 196t-182 137t-239 51.5t-239 -51.5t-182 -137t-112 -196t-40 -229.5t40 -229.5t112 -196.5t182 -137.5t239 -51.5z" />
    <glyph glyph-name="guillemotleft" unicode="&#xab;" horiz-adv-x="966" 
d="M885 375v-174l-402 342v108l402 342v-176l-258 -221zM483 375v-174l-401 342v108l401 342v-176l-258 -221z" />
    <glyph glyph-name="registered" unicode="&#xae;" horiz-adv-x="1654" 
d="M827 -35q-135 0 -253.5 40.5t-207 112t-152 166.5t-96 205.5t-32.5 227.5q0 146 52 281.5t145 240t234.5 167t309.5 62.5t309.5 -62.5t235 -167t145.5 -240t52 -281.5t-52 -281.5t-145.5 -240.5t-235 -167.5t-309.5 -62.5zM827 102q130 0 240.5 51.5t182.5 137.5
t112.5 196.5t40.5 229.5t-40.5 229.5t-112.5 196t-182.5 137t-240.5 51.5t-240 -51.5t-182.5 -137t-112.5 -196t-40 -229.5t40 -229.5t112.5 -196.5t182.5 -137.5t240 -51.5zM850 598h-160v-266h-129v833h324q126 0 205 -82.5t79 -201.5q0 -92 -49.5 -164t-136.5 -101
l178 -284h-145zM690 711h182q72 0 116 49.5t44 120.5t-44.5 121.5t-115.5 50.5h-182v-342z" />
    <glyph glyph-name="degree" unicode="&#xb0;" horiz-adv-x="673" 
d="M629 1176q0 -123 -85 -208t-208 -85t-208 85t-85 208t85 207.5t208 84.5t208 -84.5t85 -207.5zM502 1176q0 68 -48.5 117.5t-117.5 49.5q-67 0 -115.5 -49.5t-48.5 -117.5q0 -69 48 -117.5t116 -48.5q69 0 117.5 48.5t48.5 117.5z" />
    <glyph glyph-name="plusminus" unicode="&#xb1;" 
d="M678 449h-178v327h-320v160h320v330h178v-330h319v-160h-319v-327zM997 49h-817v160h817v-160z" />
    <glyph glyph-name="acute" unicode="&#xb4;" horiz-adv-x="1146" 
d="M825 1311l-510 -281l-84 139l510 281z" />
    <glyph glyph-name="paragraph" unicode="&#xb6;" horiz-adv-x="1337" 
d="M473 -303v977q-198 0 -320 99.5t-122 291.5q0 74 19.5 135.5t50.5 102.5t75.5 72t89 48t97 28t93.5 14t85 3h653v-147h-109v-1624h-170v1622h-274v-1622h-168z" />
    <glyph glyph-name="periodcentered" unicode="&#xb7;" horiz-adv-x="440" 
d="M35 639q0 60 41.5 102.5t101.5 42.5t102 -42.5t42 -102.5q0 -59 -42 -100t-102 -41t-101.5 41t-41.5 100z" />
    <glyph glyph-name="cedilla" unicode="&#xb8;" horiz-adv-x="1087" 
d="M571 -98q26 37 88 37q65 0 115.5 -49.5t50.5 -129.5q0 -77 -53.5 -135.5t-148.5 -58.5q-22 0 -49 7t-60 24t-58 53.5t-32 87.5h108q9 -35 33 -55.5t58 -20.5q42 0 68 27.5t26 70.5q0 41 -26 67t-66 26q-55 0 -78 -50h-94v174h118v-75z" />
    <glyph glyph-name="guillemotright" unicode="&#xbb;" horiz-adv-x="966" 
d="M82 201v174l258 221l-258 221v176l401 -342v-108zM483 201v174l258 221l-258 221v176l402 -342v-108z" />
    <glyph glyph-name="questiondown" unicode="&#xbf;" horiz-adv-x="1032" 
d="M659 1051h-180q0 -90 -15 -142t-47 -87t-104 -87q-35 -25 -56 -41.5t-57 -53t-56.5 -71t-37 -87t-16.5 -109.5q0 -180 124 -288t318 -108q126 0 228 52.5t163.5 156t61.5 240.5h-186q0 -132 -74.5 -206.5t-192.5 -74.5q-119 0 -187.5 58.5t-68.5 169.5q0 31 7.5 61
t18 52.5t30 47t33.5 39t39.5 35t37 28.5t37.5 26q100 70 139 156t41 233zM717 1315q0 -62 -43 -106t-105 -44q-63 0 -107 44t-44 106t44 105.5t107 43.5t105.5 -43.5t42.5 -105.5z" />
    <glyph glyph-name="Agrave" unicode="&#xc0;" horiz-adv-x="1144" 
d="M639 1434l496 -1434h-197l-76 219h-581l-74 -219h-197l494 1434h135zM573 1128l-235 -739h467zM819 1534l-510 281l86 141l510 -281z" />
    <glyph glyph-name="Aacute" unicode="&#xc1;" horiz-adv-x="1144" 
d="M639 1434l496 -1434h-197l-76 219h-581l-74 -219h-197l494 1434h135zM573 1128l-235 -739h467zM870 1786l-510 -281l-84 140l510 280z" />
    <glyph glyph-name="Acircumflex" unicode="&#xc2;" horiz-adv-x="1144" 
d="M639 1434l496 -1434h-197l-76 219h-581l-74 -219h-197l494 1434h135zM573 1128l-235 -739h467zM205 1663l366 297l371 -297l-111 -125l-258 209l-256 -207z" />
    <glyph glyph-name="Atilde" unicode="&#xc3;" horiz-adv-x="1144" 
d="M639 1434l496 -1434h-197l-76 219h-581l-74 -219h-197l494 1434h135zM573 1128l-235 -739h467zM291 1630l-78 117q56 36 101.5 54.5t64.5 21t45 2.5q29 0 146 -28t143 -28q33 0 61.5 10t102.5 46l69 -115q-112 -84 -213 -84q-35 0 -146 26.5t-143 26.5q-59 0 -153 -49z
" />
    <glyph glyph-name="Adieresis" unicode="&#xc4;" horiz-adv-x="1144" 
d="M639 1434l496 -1434h-197l-76 219h-581l-74 -219h-197l494 1434h135zM573 1128l-235 -739h467zM197 1733q0 60 41 101.5t100 41.5q60 0 102.5 -41.5t42.5 -101.5t-42.5 -102t-102.5 -42q-59 0 -100 42t-41 102zM666 1733q0 60 41.5 101.5t101.5 41.5t101.5 -41.5
t41.5 -101.5t-41.5 -102t-101.5 -42t-101.5 42t-41.5 102z" />
    <glyph glyph-name="Aring" unicode="&#xc5;" horiz-adv-x="1144" 
d="M639 1434l496 -1434h-197l-76 219h-581l-74 -219h-197l494 1434h135zM573 1128l-235 -739h467zM573 1999q104 0 178 -74.5t74 -177.5t-74 -177.5t-178 -74.5t-177.5 74.5t-73.5 177.5q0 104 73.5 178t177.5 74zM573 1870q-50 0 -85 -36.5t-35 -86.5q0 -48 35 -83.5
t85 -35.5q49 0 84 35.5t35 85.5t-34.5 85.5t-84.5 35.5z" />
    <glyph glyph-name="Ccedilla" unicode="&#xc7;" horiz-adv-x="1587" 
d="M1303 442h204q-54 -200 -228.5 -333t-414.5 -140h-16v-84q29 37 88 37q66 0 117 -48.5t51 -127.5q0 -78 -54 -136.5t-149 -58.5q-23 0 -50 7t-59.5 24t-57.5 54t-32 88h109q16 -76 90 -76q41 0 67.5 27.5t26.5 70.5q0 40 -26 66t-66 26q-56 0 -80 -49h-92v184
q-198 23 -347 131t-224.5 268t-75.5 347q0 146 51 281t142.5 238.5t230 165.5t301.5 62q152 0 276.5 -41t209.5 -114t138.5 -169t73.5 -210h-196q-33 163 -160 264.5t-320 101.5q-103 0 -193 -31t-155.5 -86t-113 -128t-71.5 -158t-24 -176q0 -119 39.5 -224.5t112.5 -185.5
t185 -127t247 -47q148 0 274.5 87t170.5 220z" />
    <glyph glyph-name="Egrave" unicode="&#xc8;" horiz-adv-x="1114" 
d="M965 1266h-619v-469h619v-168h-619v-461h619v-168h-805v1434h805v-168zM807 1507l-510 281l84 139l510 -280z" />
    <glyph glyph-name="Eacute" unicode="&#xc9;" horiz-adv-x="1114" 
d="M965 1266h-619v-469h619v-168h-619v-461h619v-168h-805v1434h805v-168zM866 1815l-510 -281l-86 141l510 281z" />
    <glyph glyph-name="Ecircumflex" unicode="&#xca;" horiz-adv-x="1114" 
d="M965 1266h-619v-469h619v-168h-619v-461h619v-168h-805v1434h805v-168zM201 1663l366 297l371 -297l-111 -125l-258 209l-256 -207z" />
    <glyph glyph-name="Edieresis" unicode="&#xcb;" horiz-adv-x="1114" 
d="M965 1266h-619v-469h619v-168h-619v-461h619v-168h-805v1434h805v-168zM207 1733q0 60 41.5 101.5t101.5 41.5t102 -41.5t42 -101.5t-42 -102t-102 -42t-101.5 42t-41.5 102zM678 1733q0 60 41 101.5t100 41.5q60 0 103 -41.5t43 -101.5t-43 -102t-103 -42q-59 0 -100 42
t-41 102z" />
    <glyph glyph-name="Igrave" unicode="&#xcc;" horiz-adv-x="512" 
d="M160 0v1434h192v-1434h-192zM469 1505l-510 281l86 139l510 -280z" />
    <glyph glyph-name="Iacute" unicode="&#xcd;" horiz-adv-x="512" 
d="M160 0v1434h192v-1434h-192zM555 1786l-510 -281l-86 140l510 280z" />
    <glyph glyph-name="Icircumflex" unicode="&#xce;" horiz-adv-x="512" 
d="M160 0v1434h192v-1434h-192zM-113 1663l369 297l371 -297l-111 -125l-258 209l-256 -207z" />
    <glyph glyph-name="Idieresis" unicode="&#xcf;" horiz-adv-x="512" 
d="M160 0v1434h192v-1434h-192zM-102 1733q0 60 41 101.5t100 41.5q61 0 103 -41.5t42 -101.5t-42 -102t-103 -42q-59 0 -100 42t-41 102zM367 1733q0 60 41.5 101.5t101.5 41.5t101.5 -41.5t41.5 -101.5t-41.5 -102t-101.5 -42t-101.5 42t-41.5 102z" />
    <glyph glyph-name="Eth" unicode="&#xd0;" horiz-adv-x="1427" 
d="M160 1434h442q171 0 314 -61t235.5 -162t143.5 -229t51 -265t-51 -265t-143.5 -229t-235.5 -162t-314 -61h-442v643h-144v150h144v641zM496 793v-150h-150v-475h256q128 0 234 47t174 124.5t105.5 175t37.5 202.5q0 106 -37.5 204t-105.5 175t-174 123.5t-234 46.5h-256
v-473h150z" />
    <glyph glyph-name="Ntilde" unicode="&#xd1;" horiz-adv-x="1357" 
d="M160 0v1434h207l645 -1108v1108h186v-1434h-207l-645 1108v-1108h-186zM377 1630l-78 117q56 36 101.5 54.5t64.5 21t45 2.5q29 0 146 -28t143 -28q33 0 61.5 10t102.5 46l69 -115q-112 -84 -213 -84q-35 0 -146 26.5t-143 26.5q-59 0 -153 -49z" />
    <glyph glyph-name="Ograve" unicode="&#xd2;" horiz-adv-x="1644" 
d="M823 -33q-135 0 -253.5 40.5t-206.5 112t-151.5 166t-95.5 205t-32 226.5q0 146 51.5 281t144.5 239.5t234 166.5t309 62q167 0 308.5 -62.5t234.5 -166.5t145 -239t52 -281q0 -116 -32.5 -226.5t-96.5 -205t-152 -166t-206.5 -112t-252.5 -40.5zM823 135q122 0 226 49
t172.5 130t106.5 185.5t38 217.5q0 152 -64.5 283.5t-190.5 214.5t-288 83q-123 0 -227 -48.5t-172.5 -129.5t-106.5 -185.5t-38 -217.5t38 -217.5t106.5 -185.5t172.5 -130t227 -49zM1061 1534l-510 281l86 139l510 -281z" />
    <glyph glyph-name="Oacute" unicode="&#xd3;" horiz-adv-x="1644" 
d="M823 -33q-135 0 -253.5 40.5t-206.5 112t-151.5 166t-95.5 205t-32 226.5q0 146 51.5 281t144.5 239.5t234 166.5t309 62q167 0 308.5 -62.5t234.5 -166.5t145 -239t52 -281q0 -116 -32.5 -226.5t-96.5 -205t-152 -166t-206.5 -112t-252.5 -40.5zM823 135q122 0 226 49
t172.5 130t106.5 185.5t38 217.5q0 152 -64.5 283.5t-190.5 214.5t-288 83q-123 0 -227 -48.5t-172.5 -129.5t-106.5 -185.5t-38 -217.5t38 -217.5t106.5 -185.5t172.5 -130t227 -49zM1087 1815l-509 -281l-86 141l509 281z" />
    <glyph glyph-name="Ocircumflex" unicode="&#xd4;" horiz-adv-x="1644" 
d="M823 -33q-135 0 -253.5 40.5t-206.5 112t-151.5 166t-95.5 205t-32 226.5q0 146 51.5 281t144.5 239.5t234 166.5t309 62q167 0 308.5 -62.5t234.5 -166.5t145 -239t52 -281q0 -116 -32.5 -226.5t-96.5 -205t-152 -166t-206.5 -112t-252.5 -40.5zM823 135q122 0 226 49
t172.5 130t106.5 185.5t38 217.5q0 152 -64.5 283.5t-190.5 214.5t-288 83q-123 0 -227 -48.5t-172.5 -129.5t-106.5 -185.5t-38 -217.5t38 -217.5t106.5 -185.5t172.5 -130t227 -49zM467 1663l367 297l370 -297l-110 -125l-258 209l-256 -207z" />
    <glyph glyph-name="Otilde" unicode="&#xd5;" horiz-adv-x="1644" 
d="M823 -33q-135 0 -253.5 40.5t-206.5 112t-151.5 166t-95.5 205t-32 226.5q0 146 51.5 281t144.5 239.5t234 166.5t309 62q167 0 308.5 -62.5t234.5 -166.5t145 -239t52 -281q0 -116 -32.5 -226.5t-96.5 -205t-152 -166t-206.5 -112t-252.5 -40.5zM823 135q122 0 226 49
t172.5 130t106.5 185.5t38 217.5q0 152 -64.5 283.5t-190.5 214.5t-288 83q-123 0 -227 -48.5t-172.5 -129.5t-106.5 -185.5t-38 -217.5t38 -217.5t106.5 -185.5t172.5 -130t227 -49zM532 1630l-77 117q56 36 101.5 54.5t64.5 21t45 2.5q29 0 145.5 -28t142.5 -28
q33 0 61.5 10t102.5 46l70 -115q-112 -84 -213 -84q-36 0 -146.5 26.5t-142.5 26.5q-60 0 -154 -49z" />
    <glyph glyph-name="Odieresis" unicode="&#xd6;" horiz-adv-x="1644" 
d="M823 -33q-135 0 -253.5 40.5t-206.5 112t-151.5 166t-95.5 205t-32 226.5q0 146 51.5 281t144.5 239.5t234 166.5t309 62q167 0 308.5 -62.5t234.5 -166.5t145 -239t52 -281q0 -116 -32.5 -226.5t-96.5 -205t-152 -166t-206.5 -112t-252.5 -40.5zM823 135q122 0 226 49
t172.5 130t106.5 185.5t38 217.5q0 152 -64.5 283.5t-190.5 214.5t-288 83q-123 0 -227 -48.5t-172.5 -129.5t-106.5 -185.5t-38 -217.5t38 -217.5t106.5 -185.5t172.5 -130t227 -49zM444 1733q0 60 41.5 101.5t100.5 41.5q61 0 103 -41.5t42 -101.5t-42 -102t-103 -42
q-59 0 -100.5 42t-41.5 102zM913 1733q0 60 42 101.5t102 41.5t101.5 -41.5t41.5 -101.5t-41.5 -102t-101.5 -42t-102 42t-42 102z" />
    <glyph glyph-name="multiply" unicode="&#xd7;" horiz-adv-x="1187" 
d="M481 702l238 238l125 -125l-238 -237l232 -232l-113 -110l-229 229l-238 -236l-125 125l236 236l-228 229l111 113z" />
    <glyph glyph-name="Oslash" unicode="&#xd8;" horiz-adv-x="1644" 
d="M823 -33q-123 0 -221 33l-57 -139h-187l84 205q-169 98 -263.5 273.5t-94.5 377.5q0 146 51.5 281t144.5 239.5t234 166.5t309 62q109 0 207 -28l60 133h188l-86 -199q174 -97 272.5 -274t98.5 -381q0 -116 -32.5 -226.5t-96.5 -205t-152 -166t-206.5 -112t-252.5 -40.5z
M823 135q122 0 226 49t172.5 130t106.5 185.5t38 217.5q0 148 -65 278.5t-181 206.5l-450 -1044q77 -23 153 -23zM279 717q0 -146 62 -274t173 -207l449 1044q-64 18 -140 18q-123 0 -227 -48.5t-172.5 -129.5t-106.5 -185.5t-38 -217.5z" />
    <glyph glyph-name="Ugrave" unicode="&#xd9;" horiz-adv-x="1288" 
d="M145 465v969h187v-969q0 -137 86.5 -233.5t222.5 -96.5q141 0 228 96t87 234v969h187v-969q0 -136 -60.5 -248.5t-176.5 -181t-265 -68.5q-145 0 -260 68.5t-175.5 181.5t-60.5 248zM879 1534l-510 281l86 141l510 -281z" />
    <glyph glyph-name="Uacute" unicode="&#xda;" horiz-adv-x="1288" 
d="M145 465v969h187v-969q0 -137 86.5 -233.5t222.5 -96.5q141 0 228 96t87 234v969h187v-969q0 -136 -60.5 -248.5t-176.5 -181t-265 -68.5q-145 0 -260 68.5t-175.5 181.5t-60.5 248zM903 1815l-510 -281l-84 141l510 281z" />
    <glyph glyph-name="Ucircumflex" unicode="&#xdb;" horiz-adv-x="1288" 
d="M145 465v969h187v-969q0 -137 86.5 -233.5t222.5 -96.5q141 0 228 96t87 234v969h187v-969q0 -136 -60.5 -248.5t-176.5 -181t-265 -68.5q-145 0 -260 68.5t-175.5 181.5t-60.5 248zM268 1665l367 297l371 -297l-111 -125l-258 207l-256 -207z" />
    <glyph glyph-name="Udieresis" unicode="&#xdc;" horiz-adv-x="1288" 
d="M145 465v969h187v-969q0 -137 86.5 -233.5t222.5 -96.5q141 0 228 96t87 234v969h187v-969q0 -136 -60.5 -248.5t-176.5 -181t-265 -68.5q-145 0 -260 68.5t-175.5 181.5t-60.5 248zM264 1733q0 60 41.5 101.5t100.5 41.5q61 0 103 -41.5t42 -101.5t-42 -102t-103 -42
q-59 0 -100.5 42t-41.5 102zM733 1733q0 60 42 101.5t102 41.5t101.5 -41.5t41.5 -101.5t-41.5 -102t-101.5 -42t-102 42t-42 102z" />
    <glyph glyph-name="Yacute" unicode="&#xdd;" horiz-adv-x="1193" 
d="M1200 1434l-721 -1434h-205l287 569l-541 865h218l419 -670l338 670h205zM971 1804l-510 -280l-86 141l510 281z" />
    <glyph glyph-name="Thorn" unicode="&#xde;" horiz-adv-x="1024" 
d="M160 0v1434h168v-271h159q145 0 255 -65.5t164.5 -168t54.5 -222.5q0 -119 -54.5 -221t-164.5 -168t-255 -66h-159v-252h-168zM487 1014h-159v-613h159q139 0 222.5 90.5t83.5 215.5t-83.5 216t-222.5 91z" />
    <glyph glyph-name="agrave" unicode="&#xe0;" horiz-adv-x="1222" 
d="M887 930h176v-930h-176v162q-44 -84 -134 -134.5t-192 -50.5q-139 0 -249 67.5t-169 178.5t-59 242q0 132 59 243t169 178.5t249 67.5q102 0 192 -50t134 -134v160zM571 137q141 0 228.5 95t87.5 233t-87.5 234t-228.5 96q-138 0 -224.5 -96.5t-86.5 -233.5t86.5 -232.5
t224.5 -95.5zM780 1030l-510 281l86 139l510 -281z" />
    <glyph glyph-name="aacute" unicode="&#xe1;" horiz-adv-x="1222" 
d="M887 930h176v-930h-176v162q-44 -84 -134 -134.5t-192 -50.5q-139 0 -249 67.5t-169 178.5t-59 242q0 132 59 243t169 178.5t249 67.5q102 0 192 -50t134 -134v160zM571 137q141 0 228.5 95t87.5 233t-87.5 234t-228.5 96q-138 0 -224.5 -96.5t-86.5 -233.5t86.5 -232.5
t224.5 -95.5zM821 1311l-510 -281l-86 139l510 281z" />
    <glyph glyph-name="acircumflex" unicode="&#xe2;" horiz-adv-x="1222" 
d="M887 930h176v-930h-176v162q-44 -84 -134 -134.5t-192 -50.5q-139 0 -249 67.5t-169 178.5t-59 242q0 132 59 243t169 178.5t249 67.5q102 0 192 -50t134 -134v160zM571 137q141 0 228.5 95t87.5 233t-87.5 234t-228.5 96q-138 0 -224.5 -96.5t-86.5 -233.5t86.5 -232.5
t224.5 -95.5zM205 1198l366 297l371 -297l-111 -125l-258 207l-256 -207z" />
    <glyph glyph-name="atilde" unicode="&#xe3;" horiz-adv-x="1222" 
d="M887 770v160h176v-930h-176v162q-44 -84 -134 -134.5t-192 -50.5q-139 0 -249 67.5t-169 178.5t-59 242q0 132 59 243t169 178.5t249 67.5q102 0 192 -50t134 -134zM260 465q0 -137 86.5 -232.5t224.5 -95.5q141 0 228.5 95t87.5 233t-87.5 234t-228.5 96
q-138 0 -224.5 -96.5t-86.5 -233.5zM291 1214l-78 119q56 36 101.5 54.5t64.5 21t45 2.5q29 0 146 -27.5t143 -27.5q34 0 63 10t101 45l69 -115q-109 -84 -213 -84q-36 0 -147 27t-142 27q-59 0 -153 -52z" />
    <glyph glyph-name="adieresis" unicode="&#xe4;" horiz-adv-x="1222" 
d="M887 930h176v-930h-176v162q-44 -84 -134 -134.5t-192 -50.5q-139 0 -249 67.5t-169 178.5t-59 242q0 132 59 243t169 178.5t249 67.5q102 0 192 -50t134 -134v160zM190 1253q0 60 42 103t102 43t101.5 -43t41.5 -103q0 -59 -41.5 -100t-101.5 -41t-102 41t-42 100z
M662 1253q0 60 41.5 103t99.5 43q61 0 103 -43t42 -103q0 -59 -42 -100t-103 -41q-59 0 -100 41t-41 100zM571 137q141 0 228.5 95t87.5 233t-87.5 234t-228.5 96q-138 0 -224.5 -96.5t-86.5 -233.5t86.5 -232.5t224.5 -95.5z" />
    <glyph glyph-name="aring" unicode="&#xe5;" horiz-adv-x="1222" 
d="M887 930h176v-930h-176v162q-44 -84 -134 -134.5t-192 -50.5q-139 0 -249 67.5t-169 178.5t-59 242q0 132 59 243t169 178.5t249 67.5q102 0 192 -50t134 -134v160zM571 137q141 0 228.5 95t87.5 233t-87.5 234t-228.5 96q-138 0 -224.5 -96.5t-86.5 -233.5t86.5 -232.5
t224.5 -95.5zM592 1536q104 0 178 -74.5t74 -177.5t-74 -177.5t-178 -74.5t-178 74.5t-74 177.5q0 104 74 178t178 74zM592 1407q-50 0 -84.5 -36.5t-34.5 -86.5q0 -48 35 -83.5t84 -35.5q51 0 86 35.5t35 85.5t-35 85.5t-86 35.5z" />
    <glyph glyph-name="ccedilla" unicode="&#xe7;" horiz-adv-x="1087" 
d="M88 465q0 96 30.5 183t87.5 155.5t146.5 109.5t198.5 41q108 0 192.5 -30.5t135 -83.5t78.5 -115t34 -133h-178q-25 203 -258 203q-138 0 -213.5 -95.5t-75.5 -234.5q0 -142 76 -235t223 -93q110 0 168.5 46.5t81.5 135.5h178q-23 -146 -126.5 -239.5t-282.5 -102.5
q-7 0 -13 3v-78q26 37 88 37q65 0 115.5 -49.5t50.5 -129.5q0 -77 -53.5 -135.5t-148.5 -58.5q-22 0 -49 7t-60 24t-58 53.5t-32 87.5h108q9 -35 33 -55.5t58 -20.5q42 0 68 27.5t26 70.5q0 41 -26 67t-66 26q-55 0 -78 -50h-94v183q-172 34 -268.5 169t-96.5 310z" />
    <glyph glyph-name="egrave" unicode="&#xe8;" horiz-adv-x="1075" 
d="M969 418h-699q0 -128 70 -209.5t213 -81.5q178 0 235 147h181q-26 -125 -137.5 -211t-278.5 -86q-113 0 -204 40.5t-146.5 109.5t-85 155.5t-29.5 182.5q0 216 122 352.5t337 136.5q182 0 306 -120.5t124 -298.5q0 -66 -8 -117zM543 803q-118 0 -193 -67t-78 -183h533
q0 112 -74 181t-188 69zM797 1030l-510 281l84 139l510 -281z" />
    <glyph glyph-name="eacute" unicode="&#xe9;" horiz-adv-x="1075" 
d="M969 418h-699q0 -128 70 -209.5t213 -81.5q178 0 235 147h181q-26 -125 -137.5 -211t-278.5 -86q-113 0 -204 40.5t-146.5 109.5t-85 155.5t-29.5 182.5q0 216 122 352.5t337 136.5q182 0 306 -120.5t124 -298.5q0 -66 -8 -117zM543 803q-118 0 -193 -67t-78 -183h533
q0 112 -74 181t-188 69zM825 1311l-510 -281l-84 139l510 281z" />
    <glyph glyph-name="ecircumflex" unicode="&#xea;" horiz-adv-x="1075" 
d="M969 418h-699q0 -128 70 -209.5t213 -81.5q178 0 235 147h181q-26 -125 -137.5 -211t-278.5 -86q-113 0 -204 40.5t-146.5 109.5t-85 155.5t-29.5 182.5q0 216 122 352.5t337 136.5q182 0 306 -120.5t124 -298.5q0 -66 -8 -117zM543 803q-118 0 -193 -67t-78 -183h533
q0 112 -74 181t-188 69zM176 1198l367 297l370 -297l-110 -125l-258 207l-256 -207z" />
    <glyph glyph-name="edieresis" unicode="&#xeb;" horiz-adv-x="1075" 
d="M969 418h-699q0 -128 70 -209.5t213 -81.5q178 0 235 147h181q-26 -125 -137.5 -211t-278.5 -86q-113 0 -204 40.5t-146.5 109.5t-85 155.5t-29.5 182.5q0 216 122 352.5t337 136.5q182 0 306 -120.5t124 -298.5q0 -66 -8 -117zM543 803q-118 0 -193 -67t-78 -183h533
q0 112 -74 181t-188 69zM166 1253q0 60 41 102t100 42q60 0 103 -42t43 -102t-43 -101.5t-103 -41.5q-59 0 -100 41.5t-41 101.5zM635 1253q0 60 41.5 102t101.5 42t102 -42t42 -102t-42 -101.5t-102 -41.5t-101.5 41.5t-41.5 101.5z" />
    <glyph glyph-name="igrave" unicode="&#xec;" horiz-adv-x="471" 
d="M147 0v930h179v-930h-179zM449 1061l-510 280l86 140l510 -281z" />
    <glyph glyph-name="iacute" unicode="&#xed;" horiz-adv-x="471" 
d="M147 0v930h179v-930h-179zM535 1341l-510 -280l-86 139l512 281z" />
    <glyph glyph-name="icircumflex" unicode="&#xee;" horiz-adv-x="471" 
d="M147 0v930h179v-930h-179zM-133 1198l366 297l371 -297l-110 -125l-258 207l-256 -207z" />
    <glyph glyph-name="idieresis" unicode="&#xef;" horiz-adv-x="471" 
d="M147 0v930h179v-930h-179zM-125 1253q0 60 41.5 103t101.5 43t102 -43t42 -103q0 -59 -42 -100t-102 -41t-101.5 41t-41.5 100zM346 1253q0 60 41.5 103t99.5 43q61 0 103.5 -43t42.5 -103q0 -59 -42.5 -100t-103.5 -41q-59 0 -100 41t-41 100z" />
    <glyph glyph-name="eth" unicode="&#xf0;" horiz-adv-x="1157" 
d="M580 -23q-109 0 -201.5 39.5t-155 106t-98 155.5t-35.5 187q0 132 59.5 243t173 178.5t257.5 67.5q21 0 45 -6.5t32 -17.5l-94 153l-231 -122v172l147 79l-135 222h215l80 -136l180 97v-172l-98 -54l262 -419q86 -136 86 -285q0 -132 -59.5 -242.5t-172.5 -178
t-257 -67.5zM580 137q139 0 226 95.5t87 232.5q0 138 -87 234t-226 96t-226.5 -96.5t-87.5 -233.5t87.5 -232.5t226.5 -95.5z" />
    <glyph glyph-name="ntilde" unicode="&#xf1;" horiz-adv-x="1157" 
d="M291 1214l-78 119q56 36 101.5 54.5t64.5 21t45 2.5q29 0 146 -27.5t143 -27.5q34 0 63 10t101 45l71 -115q-111 -84 -213 -84q-36 0 -147 27t-142 27q-36 0 -68.5 -11.5t-86.5 -40.5zM338 930v-164q41 87 128.5 137.5t213.5 50.5q336 0 336 -393v-561h-178v504
q0 56 -3.5 94.5t-16.5 79t-36.5 64.5t-64.5 39.5t-99 15.5q-71 0 -126 -26t-88 -71t-49.5 -101t-16.5 -120v-479h-178v930h178z" />
    <glyph glyph-name="ograve" unicode="&#xf2;" horiz-adv-x="1146" 
d="M571 -23q-108 0 -200 39.5t-154.5 106t-97.5 155.5t-35 187q0 132 59.5 243t172 178.5t255.5 67.5q145 0 259 -67.5t173.5 -178t59.5 -243.5q0 -98 -35.5 -186.5t-98 -155.5t-156 -106.5t-202.5 -39.5zM571 137q141 0 228.5 95t87.5 233t-87.5 234t-228.5 96
q-138 0 -224.5 -96.5t-86.5 -233.5t86.5 -232.5t224.5 -95.5zM801 1030l-510 281l84 139l510 -281z" />
    <glyph glyph-name="oacute" unicode="&#xf3;" horiz-adv-x="1146" 
d="M571 -23q-108 0 -200 39.5t-154.5 106t-97.5 155.5t-35 187q0 132 59.5 243t172 178.5t255.5 67.5q145 0 259 -67.5t173.5 -178t59.5 -243.5q0 -98 -35.5 -186.5t-98 -155.5t-156 -106.5t-202.5 -39.5zM571 137q141 0 228.5 95t87.5 233t-87.5 234t-228.5 96
q-138 0 -224.5 -96.5t-86.5 -233.5t86.5 -232.5t224.5 -95.5zM825 1311l-510 -281l-84 139l510 281z" />
    <glyph glyph-name="ocircumflex" unicode="&#xf4;" horiz-adv-x="1146" 
d="M571 -23q-108 0 -200 39.5t-154.5 106t-97.5 155.5t-35 187q0 132 59.5 243t172 178.5t255.5 67.5q145 0 259 -67.5t173.5 -178t59.5 -243.5q0 -98 -35.5 -186.5t-98 -155.5t-156 -106.5t-202.5 -39.5zM571 137q141 0 228.5 95t87.5 233t-87.5 234t-228.5 96
q-138 0 -224.5 -96.5t-86.5 -233.5t86.5 -232.5t224.5 -95.5zM207 1198l366 297l371 -297l-110 -125l-259 207l-256 -205z" />
    <glyph glyph-name="otilde" unicode="&#xf5;" horiz-adv-x="1146" 
d="M571 -23q-108 0 -200 39.5t-154.5 106t-97.5 155.5t-35 187q0 132 59.5 243t172 178.5t255.5 67.5q145 0 259 -67.5t173.5 -178t59.5 -243.5q0 -98 -35.5 -186.5t-98 -155.5t-156 -106.5t-202.5 -39.5zM260 465q0 -137 86.5 -232.5t224.5 -95.5q141 0 228.5 95t87.5 233
t-87.5 234t-228.5 96q-138 0 -224.5 -96.5t-86.5 -233.5zM285 1212l-78 119q56 36 101.5 54.5t64.5 21t45 2.5q29 0 146 -27.5t143 -27.5q33 0 61.5 9.5t101.5 45.5l72 -115q-111 -84 -213 -84q-36 0 -147 27t-142 27q-36 0 -68.5 -11.5t-86.5 -40.5z" />
    <glyph glyph-name="odieresis" unicode="&#xf6;" horiz-adv-x="1146" 
d="M571 -23q-108 0 -200 39.5t-154.5 106t-97.5 155.5t-35 187q0 132 59.5 243t172 178.5t255.5 67.5q145 0 259 -67.5t173.5 -178t59.5 -243.5q0 -98 -35.5 -186.5t-98 -155.5t-156 -106.5t-202.5 -39.5zM666 1253q0 60 41.5 103t99.5 43q60 0 102.5 -43t42.5 -103
q0 -58 -42.5 -99.5t-102.5 -41.5q-59 0 -100 41t-41 100zM195 1253q0 60 41.5 103t101.5 43t101.5 -43t41.5 -103q0 -59 -41.5 -100t-101.5 -41t-101.5 41t-41.5 100zM260 465q0 -137 86.5 -232.5t224.5 -95.5q141 0 228.5 95t87.5 233t-87.5 234t-228.5 96
q-138 0 -224.5 -96.5t-86.5 -233.5z" />
    <glyph glyph-name="divide" unicode="&#xf7;" horiz-adv-x="1187" 
d="M1008 401h-828v158h828v-158zM453 174q0 60 41 101.5t100 41.5q60 0 102.5 -41.5t42.5 -101.5t-42.5 -101.5t-102.5 -41.5q-59 0 -100 41.5t-41 101.5zM453 805q0 60 41 101.5t100 41.5q60 0 102.5 -41.5t42.5 -101.5t-42.5 -101.5t-102.5 -41.5q-59 0 -100 41.5
t-41 101.5z" />
    <glyph glyph-name="oslash" unicode="&#xf8;" horiz-adv-x="1146" 
d="M907 1057l-73 -174q107 -64 168 -175.5t61 -242.5q0 -98 -35.5 -186.5t-98 -155.5t-156 -106.5t-202.5 -39.5q-57 0 -120 17l-54 -123h-178l78 184q-100 66 -156.5 174.5t-56.5 235.5q0 132 59.5 243t172 178.5t255.5 67.5q39 0 109 -12l51 115h176zM571 137
q141 0 228.5 95t87.5 233q0 78 -32.5 145.5t-90.5 110.5l-248 -578q18 -6 55 -6zM260 465q0 -74 28 -139t79 -109l247 574q-20 4 -43 4q-138 0 -224.5 -96.5t-86.5 -233.5z" />
    <glyph glyph-name="ugrave" unicode="&#xf9;" horiz-adv-x="1157" 
d="M793 1030l-510 281l86 139l510 -281zM819 2v164q-37 -86 -123 -137.5t-198 -51.5q-179 0 -268 94.5t-89 295.5v565h178v-508q0 -149 47.5 -219t178.5 -70q137 0 205.5 90t68.5 248v459h178v-930h-178z" />
    <glyph glyph-name="uacute" unicode="&#xfa;" horiz-adv-x="1157" 
d="M868 1311l-510 -281l-84 139l510 281zM819 2v164q-37 -86 -123 -137.5t-198 -51.5q-179 0 -268 94.5t-89 295.5v565h178v-508q0 -149 47.5 -219t178.5 -70q137 0 205.5 90t68.5 248v459h178v-930h-178z" />
    <glyph glyph-name="ucircumflex" unicode="&#xfb;" horiz-adv-x="1157" 
d="M567 1280l-256 -205l-112 123l366 297l371 -297l-111 -125zM819 2v164q-37 -86 -123 -137.5t-198 -51.5q-179 0 -268 94.5t-89 295.5v565h178v-508q0 -149 47.5 -219t178.5 -70q137 0 205.5 90t68.5 248v459h178v-930h-178z" />
    <glyph glyph-name="udieresis" unicode="&#xfc;" horiz-adv-x="1157" 
d="M193 1253q0 60 41.5 103t101.5 43t101.5 -43t41.5 -103q0 -59 -41.5 -100t-101.5 -41t-101.5 41t-41.5 100zM664 1253q0 60 41.5 103t99.5 43q60 0 102.5 -43t42.5 -103q0 -58 -42.5 -99.5t-102.5 -41.5q-59 0 -100 41t-41 100zM819 2v164q-37 -86 -123 -137.5
t-198 -51.5q-179 0 -268 94.5t-89 295.5v565h178v-508q0 -149 47.5 -219t178.5 -70q137 0 205.5 90t68.5 248v459h178v-930h-178z" />
    <glyph glyph-name="yacute" unicode="&#xfd;" horiz-adv-x="1171" 
d="M889 1311l-510 -281l-84 139l510 281zM842 -66v230q-37 -86 -123.5 -137.5t-198.5 -51.5q-179 0 -267.5 94.5t-88.5 295.5v565h178v-508q0 -149 47 -219t178 -70q137 0 206 90t69 248v459h178v-996q0 -241 -116.5 -349.5t-348.5 -108.5q-189 0 -299 113t-113 290h174
q3 -115 65.5 -180.5t192.5 -65.5q137 0 202 70t65 231z" />
    <glyph glyph-name="thorn" unicode="&#xfe;" horiz-adv-x="1216" 
d="M338 -504h-178v1938h178v-664q44 84 133 134t191 50q140 0 250.5 -67.5t169.5 -178.5t59 -243q0 -131 -59 -242t-169.5 -178.5t-250.5 -67.5q-102 0 -191 50.5t-133 134.5v-666zM653 137q136 0 223 95.5t87 232.5t-87 233.5t-223 96.5q-141 0 -228 -96t-87 -234t87 -233
t228 -95z" />
    <glyph glyph-name="ydieresis" unicode="&#xff;" horiz-adv-x="1173" 
d="M233 1239q0 57 40.5 97t97.5 40t97 -40t40 -97t-40 -97t-97 -40t-97.5 40t-40.5 97zM705 1239q0 57 39 97t96 40q58 0 98.5 -40t40.5 -97t-40.5 -97t-98.5 -40q-57 0 -96 40t-39 97zM842 -66v230q-37 -86 -123.5 -137.5t-198.5 -51.5q-179 0 -267.5 94.5t-88.5 295.5v565
h178v-508q0 -149 47 -219t178 -70q137 0 206 90t69 248v459h178v-996q0 -241 -116.5 -349.5t-348.5 -108.5q-189 0 -299 113t-113 290h174q3 -115 65.5 -180.5t192.5 -65.5q137 0 202 70t65 231z" />
    <glyph glyph-name="dotlessi" unicode="&#x131;" horiz-adv-x="442" 
d="M137 0v930h178v-930h-178z" />
    <glyph glyph-name="Lslash" unicode="&#x141;" horiz-adv-x="870" 
d="M346 168h469v-168h-655v551l-101 -45v172l101 45v711h186v-633l336 151v-172l-336 -151v-461z" />
    <glyph glyph-name="lslash" unicode="&#x142;" horiz-adv-x="512" 
d="M160 0v586l-156 -84v172l156 84v676h192v-574l166 88v-170l-166 -90v-688h-192z" />
    <glyph glyph-name="Scaron" unicode="&#x160;" horiz-adv-x="1169" 
d="M279 457h-187q0 -148 67 -261t179 -171t250 -58t246.5 48.5t173.5 147.5t65 236q0 58 -16 108.5t-39 87.5t-64 71t-76.5 56t-91.5 45.5t-93 36.5t-97 32q-50 16 -81.5 27.5t-70.5 33t-61 45t-37.5 60t-15.5 81.5q0 99 72.5 157t191.5 58q120 0 189 -73t71 -197h186
q-1 197 -125 317.5t-321 120.5q-194 0 -322.5 -107t-128.5 -276q0 -48 8.5 -89.5t21 -74.5t36.5 -63t45.5 -51.5t58 -43.5t65 -36t74.5 -31.5t77.5 -28t84.5 -26.5q36 -11 55.5 -17.5t52.5 -20.5t52.5 -26t43.5 -32.5t37 -43t22.5 -53.5t9.5 -67q0 -111 -79.5 -177.5
t-205.5 -66.5q-147 0 -235 87.5t-88 234.5zM580 1565l-326 297l96 125l230 -215l233 215l96 -125z" />
    <glyph glyph-name="scaron" unicode="&#x161;" horiz-adv-x="925" 
d="M453 1061l-326 297l96 123l230 -215l233 215l96 -123zM549 522q54 -17 86.5 -28.5t73.5 -34.5t63.5 -49t38.5 -67t16 -93q0 -133 -100.5 -203t-265.5 -70q-77 0 -145.5 21.5t-122 62t-84.5 105.5t-31 147h174q0 -99 59 -145.5t158 -46.5q188 0 188 125q0 20 -5.5 36.5
t-13 29t-25 24t-32 19t-43.5 18t-49.5 16.5t-61 18t-67.5 21q-51 16 -84.5 29.5t-67.5 34.5t-52.5 46.5t-30.5 63t-12 86.5q0 125 98 195.5t250 70.5q151 0 253.5 -87.5t102.5 -225.5h-172q0 82 -48 126t-140 44q-76 0 -124 -33.5t-48 -89.5q0 -41 28.5 -68.5t63 -41
t124.5 -41.5q31 -10 48 -15z" />
    <glyph glyph-name="Ydieresis" unicode="&#x178;" horiz-adv-x="1193" 
d="M1200 1434l-721 -1434h-205l287 569l-541 865h218l419 -670l338 670h205zM276 1733q0 57 39.5 97t96.5 40q58 0 98.5 -40t40.5 -97t-40.5 -97.5t-98.5 -40.5q-57 0 -96.5 40.5t-39.5 97.5zM745 1733q0 57 40.5 97t97.5 40q58 0 97.5 -40t39.5 -97t-39.5 -97.5
t-97.5 -40.5q-57 0 -97.5 40.5t-40.5 97.5z" />
    <glyph glyph-name="Zcaron" unicode="&#x17d;" horiz-adv-x="1157" 
d="M596 1497l-326 297l97 125l229 -215l233 215l97 -125zM72 1266v168h1067l-797 -1266h803v-168h-1116l796 1266h-753z" />
    <glyph glyph-name="zcaron" unicode="&#x17e;" horiz-adv-x="888" 
d="M461 1032l-326 297l96 123l230 -215l231 215l99 -123zM66 930h782l-498 -770h500v-160h-801l498 772h-481v158z" />
    <glyph glyph-name="circumflex" unicode="&#x2c6;" horiz-adv-x="1146" 
d="M207 1198l366 297l371 -297l-110 -125l-259 207l-256 -205z" />
    <glyph glyph-name="tilde" unicode="&#x2dc;" horiz-adv-x="1157" 
d="M291 1214l-78 119q56 36 101.5 54.5t64.5 21t45 2.5q29 0 146 -27.5t143 -27.5q34 0 63 10t101 45l71 -115q-111 -84 -213 -84q-36 0 -147 27t-142 27q-36 0 -68.5 -11.5t-86.5 -40.5z" />
    <glyph glyph-name="endash" unicode="&#x2013;" horiz-adv-x="1030" 
d="M969 504h-908v160h908v-160z" />
    <glyph glyph-name="emdash" unicode="&#x2014;" horiz-adv-x="1550" 
d="M1489 504h-1428v160h1428v-160z" />
    <glyph glyph-name="quoteleft" unicode="&#x2018;" horiz-adv-x="540" 
d="M119 1221q0 156 75.5 224.5t219.5 70.5v-84q-172 -6 -172 -152q21 16 63 16q51 0 88 -39t37 -96q0 -59 -41 -99t-104 -40q-73 0 -119.5 55.5t-46.5 143.5z" />
    <glyph glyph-name="quoteright" unicode="&#x2019;" horiz-adv-x="540" 
d="M430 1317q0 -156 -75.5 -224.5t-219.5 -70.5v84q172 6 172 151q-21 -16 -63 -16q-51 0 -88 39t-37 96q0 59 41.5 99.5t103.5 40.5q73 0 119.5 -55.5t46.5 -143.5z" />
    <glyph glyph-name="quotesinglbase" unicode="&#x201a;" horiz-adv-x="540" 
d="M430 55q0 -156 -75.5 -224.5t-219.5 -70.5v84q172 6 172 152q-21 -16 -63 -16q-51 0 -88 39t-37 96q0 59 41 99t104 40q73 0 119.5 -55.5t46.5 -143.5z" />
    <glyph glyph-name="quotedblleft" unicode="&#x201c;" horiz-adv-x="899" 
d="M119 1221q0 156 75.5 224.5t219.5 70.5v-84q-172 -6 -172 -152q21 16 63 16q51 0 88 -39t37 -96q0 -59 -41 -99t-104 -40q-73 0 -119.5 55.5t-46.5 143.5zM475 1221q0 156 75.5 224.5t219.5 70.5v-84q-172 -6 -172 -152q21 16 64 16q51 0 87.5 -39t36.5 -96
q0 -59 -41 -99t-104 -40q-73 0 -119.5 55.5t-46.5 143.5z" />
    <glyph glyph-name="quotedblright" unicode="&#x201d;" horiz-adv-x="899" 
d="M430 1317q0 -156 -75.5 -224.5t-219.5 -70.5v84q172 6 172 151q-21 -16 -63 -16q-51 0 -88 39t-37 96q0 59 41.5 99.5t103.5 40.5q73 0 119.5 -55.5t46.5 -143.5zM786 1317q0 -156 -75 -224.5t-219 -70.5v84q172 6 172 151q-21 -16 -64 -16q-51 0 -88 39t-37 96
q0 59 41.5 99.5t104.5 40.5q73 0 119 -55.5t46 -143.5z" />
    <glyph glyph-name="quotedblbase" unicode="&#x201e;" horiz-adv-x="899" 
d="M430 55q0 -156 -75.5 -224.5t-219.5 -70.5v84q172 6 172 152q-21 -16 -63 -16q-51 0 -88 39t-37 96q0 59 41 99t104 40q73 0 119.5 -55.5t46.5 -143.5zM786 55q0 -156 -75 -224.5t-219 -70.5v84q172 6 172 152q-21 -16 -64 -16q-51 0 -88 39t-37 96q0 59 41.5 99
t104.5 40q73 0 119 -55.5t46 -143.5z" />
    <glyph glyph-name="dagger" unicode="&#x2020;" horiz-adv-x="909" 
d="M545 -373h-178v1149h-254v158h254v534h178v-534h252v-158h-252v-1149z" />
    <glyph glyph-name="daggerdbl" unicode="&#x2021;" horiz-adv-x="909" 
d="M367 1468h178v-534h252v-154h-252v-606h252v-156h-252v-391h-178v391h-254v156h254v606h-254v154h254v534z" />
    <glyph glyph-name="bullet" unicode="&#x2022;" horiz-adv-x="712" 
d="M119 639q0 100 69.5 170t167.5 70q100 0 170 -70t70 -170q0 -98 -70 -168t-170 -70q-98 0 -167.5 70t-69.5 168z" />
    <glyph glyph-name="perthousand" unicode="&#x2030;" horiz-adv-x="2525" 
d="M510 -25h-186l895 1543h186zM426 791q-149 0 -253.5 102.5t-104.5 247.5q0 146 104.5 249t253.5 103t253.5 -103t104.5 -249q0 -145 -104.5 -247.5t-253.5 -102.5zM426 940q79 0 134.5 59t55.5 142q0 85 -55.5 145t-134.5 60t-134.5 -60t-55.5 -145q0 -83 55.5 -142
t134.5 -59zM1313 6q-148 0 -253.5 102.5t-105.5 247.5q0 146 105 249.5t254 103.5q150 0 254 -103t104 -250q0 -145 -104.5 -247.5t-253.5 -102.5zM1313 156q81 0 135.5 58t54.5 142q0 86 -54.5 145.5t-135.5 59.5q-79 0 -135 -60t-56 -145q0 -83 55.5 -141.5t135.5 -58.5z
M2097 6q-148 0 -253 102.5t-105 247.5q0 146 104.5 249.5t253.5 103.5q150 0 254.5 -103t104.5 -250q0 -145 -105 -247.5t-254 -102.5zM2097 156q81 0 136 58t55 142q0 85 -55 145t-136 60q-79 0 -134.5 -60t-55.5 -145q0 -83 55.5 -141.5t134.5 -58.5z" />
    <glyph glyph-name="guilsinglleft" unicode="&#x2039;" horiz-adv-x="565" 
d="M483 375v-174l-401 342v108l401 342v-176l-258 -221z" />
    <glyph glyph-name="guilsinglright" unicode="&#x203a;" horiz-adv-x="565" 
d="M82 201v174l258 221l-258 221v176l401 -342v-108z" />
    <glyph glyph-name="Euro" unicode="&#x20ac;" horiz-adv-x="1214" 
d="M772 487h-432v-20q0 -134 84 -228t217 -94q136 0 221.5 94t85.5 228h187q0 -99 -35.5 -188t-98.5 -156t-156.5 -106.5t-203.5 -39.5q-143 0 -255.5 67.5t-172 179t-59.5 243.5v20h-129l32 138h97v182h-127l34 135h93v23q0 132 59 243.5t172 179.5t256 68q208 0 343 -129
t149 -319h-189q-11 119 -94 198.5t-209 79.5q-133 0 -217 -93.5t-84 -227.5v-23h469l-35 -135h-434v-182h465z" />
    <glyph glyph-name="trademark" unicode="&#x2122;" horiz-adv-x="1660" 
d="M778 600v834h178l228 -619l227 619h168v-834h-111v660l-243 -660h-82l-252 684v-684h-113zM82 1434h541v-103h-215v-731h-113v731h-213v103z" />
    <glyph glyph-name="minus" unicode="&#x2212;" horiz-adv-x="1187" 
d="M1008 506h-828v158h828v-158z" />
    <glyph glyph-name="notequal" unicode="&#x2260;" horiz-adv-x="1040" 
d="M934 336h-436l-105 -230h-196l102 230h-193v160h263l82 172h-345v157h414l105 230h196l-104 -230h217v-157h-287l-82 -172h369v-160z" />
    <glyph glyph-name="lessequal" unicode="&#x2264;" 
d="M997 684v-164l-817 295v129l817 297v-166l-561 -194zM997 49h-817v160h817v-160z" />
    <glyph glyph-name="greaterequal" unicode="&#x2265;" 
d="M180 520v164l561 197l-561 194v166l817 -297v-129zM997 49h-817v160h817v-160z" />
    <glyph glyph-name="apple" unicode="&#xf8ff;" horiz-adv-x="1482" 
d="M741 1434q94 0 173 -21.5t133.5 -57.5t98 -83.5t69.5 -99t44.5 -103.5t26.5 -99.5t12 -83.5t5 -57.5t2 -21.5q5 0 22.5 23.5t36.5 23.5q18 0 27.5 -57t9.5 -119q0 -55 -9 -116.5t-32 -61.5q-29 0 -43 28q-19 -104 -56 -188t-79 -138t-96 -94t-100 -60t-98.5 -31.5
t-83 -14t-63.5 -2.5t-63.5 2.5t-83 14t-98 31.5t-99.5 60t-96 94t-79 139t-56 189q-1 -3 -3.5 -8t-13.5 -13.5t-26 -8.5q-23 0 -32 61.5t-9 116.5q0 62 9.5 119t27.5 57q19 0 36.5 -23.5t22.5 -23.5q1 0 2 21.5t5 57.5t12 83.5t26.5 99.5t44 103.5t69 99t98 83.5t133.5 57.5
t173 21.5zM741 459q-63 0 -143 -45q-14 25 -14 59q0 49 20 72q6 4 6 14q0 11 -8 19t-18 8q-25 0 -40.5 -41t-15.5 -72q0 -47 19 -78q-49 -18 -96 -18q1 -4 2.5 -11.5t10.5 -29.5t21 -41.5t35.5 -44t52 -41.5t72.5 -29t96 -12q71 0 127 21.5t85.5 52t48.5 61.5t24 53l6 21
q-51 0 -100 18q22 42 22 78q0 32 -15 72.5t-40 40.5q-11 0 -19 -8t-8 -19q0 -9 5 -14q22 -22 22 -72q0 -34 -14 -59q-68 35 -102 41q-20 4 -42 4zM895 819q0 51 35 78q-36 -11 -64 -29t-38 -30l-11 -13q2 -5 6 -14t19 -31.5t33.5 -40t52 -31.5t71.5 -14q32 0 63 9.5
t51.5 23.5t37 28t23.5 23l8 10q-3 9 -10 23.5t-35 44t-64 41.5q31 -28 31 -78q0 -43 -30.5 -72.5t-74.5 -29.5t-74 29.5t-30 72.5zM588 819q0 -43 -30.5 -72.5t-74.5 -29.5t-74 29.5t-30 72.5q0 53 27 74q-35 -12 -61 -38.5t-35 -46.5l-9 -20q3 -4 8 -10t23 -22.5t37.5 -29
t50.5 -22.5t63 -10q38 0 71 13.5t52.5 33t33 38.5t18.5 33l6 13q-3 6 -11 15.5t-38 30.5t-68 32q41 -32 41 -84z" />
    <glyph glyph-name="Adieresis.001" horiz-adv-x="1144" 
d="M686 1782l-178 -266h-137l178 266h137zM928 1782l-178 -266h-138l179 266h137zM639 1434l496 -1434h-197l-76 219h-581l-74 -219h-197l494 1434h135zM573 1128l-235 -739h467z" />
    <glyph glyph-name="Odieresis.001" horiz-adv-x="1644" 
d="M901 1782l-178 -266h-139l178 266h139zM1143 1782l-178 -266h-140l179 266h139zM823 -33q-135 0 -253.5 40.5t-206.5 112t-151.5 166t-95.5 205t-32 226.5q0 146 51.5 281t144.5 239.5t234 166.5t309 62q167 0 308.5 -62.5t234.5 -166.5t145 -239t52 -281
q0 -116 -32.5 -226.5t-96.5 -205t-152 -166t-206.5 -112t-252.5 -40.5zM823 135q122 0 226 49t172.5 130t106.5 185.5t38 217.5q0 152 -64.5 283.5t-190.5 214.5t-288 83q-123 0 -227 -48.5t-172.5 -129.5t-106.5 -185.5t-38 -217.5t38 -217.5t106.5 -185.5t172.5 -130
t227 -49z" />
    <glyph glyph-name="Udieresis.001" horiz-adv-x="1288" 
d="M743 1782l-178 -266h-137l178 266h137zM985 1782l-178 -266h-137l178 266h137zM145 465v969h187v-969q0 -137 86.5 -233.5t222.5 -96.5q141 0 228 96t87 234v969h187v-969q0 -136 -60.5 -248.5t-176.5 -181t-265 -68.5q-145 0 -260 68.5t-175.5 181.5t-60.5 248z" />
    <glyph glyph-name="zero.plf" horiz-adv-x="1185" 
d="M102 463v508q0 132 59.5 242.5t172.5 177.5t256 67q146 0 260 -67t173.5 -177t59.5 -243v-508q0 -132 -59.5 -242.5t-173.5 -178t-260 -67.5q-143 0 -256 67.5t-172.5 178.5t-59.5 242zM897 463v508q0 134 -85.5 226.5t-221.5 92.5q-133 0 -217 -92.5t-84 -226.5v-508
q0 -133 84 -226.5t217 -93.5q136 0 221.5 93.5t85.5 226.5z" />
    <glyph glyph-name="one.plf" horiz-adv-x="706" 
d="M63 1047v149q77 0 130 8.5t88 25t54 46.5t26.5 66.5t7.5 91.5h178v-1434h-193v1047h-291z" />
    <glyph glyph-name="two.plf" horiz-adv-x="1079" 
d="M96 0q0 134 18.5 236.5t49.5 174t85 129t110.5 95.5t140.5 80q133 67 184 107q120 95 121 235q0 111 -68 171t-184 60q-121 0 -195.5 -73.5t-74.5 -206.5h-187q0 204 132.5 326t326.5 122q197 0 316.5 -109.5t119.5 -306.5q0 -42 -9.5 -82t-22.5 -72t-38 -65t-44 -55.5
t-53.5 -50.5t-53 -42t-57 -37t-51 -29.5t-47.5 -25.5q-7 -4 -11 -6q-124 -65 -186 -121.5t-85.5 -120t-23.5 -165.5h682v-168h-895z" />
    <glyph glyph-name="three.plf" horiz-adv-x="1144" 
d="M68 453h186q0 -140 87 -224t220 -84q128 0 205.5 74t77.5 182q0 121 -72 193t-219 72h-102v165h102q133 0 196.5 64t63.5 174q0 103 -68 161t-182 58q-134 0 -200 -69.5t-66 -190.5h-188q0 190 123.5 309t318.5 119q191 0 319.5 -107.5t128.5 -279.5q0 -122 -59 -205
t-162 -116q117 -37 185.5 -125.5t68.5 -221.5q0 -186 -137 -305t-340 -119q-133 0 -243 55.5t-177 165.5t-67 255z" />
    <glyph glyph-name="four.plf" horiz-adv-x="1130" 
d="M672 0v461h-533v973h187v-805h346v442h186v-442h215v-168h-215v-461h-186z" />
    <glyph glyph-name="five.plf" horiz-adv-x="1224" 
d="M166 610v824h844v-168h-676v-480q41 79 134 121.5t187 42.5q145 0 251.5 -67t159 -175.5t52.5 -242.5q0 -132 -60 -242.5t-174 -178t-259 -67.5q-143 0 -256 67.5t-172.5 178.5t-59.5 242h187q0 -133 84 -226.5t217 -93.5q137 0 221 93t84 227t-84 225.5t-221 91.5
q-190 0 -269 -172h-190z" />
    <glyph glyph-name="six.plf" horiz-adv-x="1138" 
d="M563 -23q-108 0 -200 39.5t-154.5 106t-97.5 155.5t-35 187q0 150 84 285l428 684h215l-328 -504q30 24 88 24q110 0 203.5 -39.5t156.5 -106t98.5 -155.5t35.5 -188q0 -98 -35.5 -186.5t-98.5 -155.5t-156.5 -106.5t-203.5 -39.5zM563 145q136 0 221.5 93.5t85.5 226.5
q0 134 -85.5 226.5t-221.5 92.5q-133 0 -217 -92.5t-84 -226.5q0 -133 84 -226.5t217 -93.5z" />
    <glyph glyph-name="seven.plf" horiz-adv-x="956" 
d="M78 1434h889l-637 -1434h-199l569 1266h-622v168z" />
    <glyph glyph-name="eight.plf" horiz-adv-x="1187" 
d="M594 -23q-219 0 -350 122t-131 304q0 121 61 218t176 129q-103 36 -155 120.5t-52 188.5q0 171 122.5 284t328.5 113q205 0 327.5 -114.5t122.5 -282.5q0 -104 -51.5 -188.5t-154.5 -120.5q115 -32 176 -130.5t61 -216.5q0 -179 -131.5 -302.5t-349.5 -123.5zM594 813
q121 0 191.5 68t70.5 170q0 101 -71 169t-191 68q-119 0 -190.5 -68t-71.5 -169q0 -103 71 -170.5t191 -67.5zM594 145q134 0 214.5 74.5t80.5 183.5t-79.5 184t-215.5 75t-215.5 -74.5t-79.5 -184.5t81 -184t214 -74z" />
    <glyph glyph-name="nine.plf" horiz-adv-x="1138" 
d="M575 1456q143 0 256 -67t172.5 -177.5t59.5 -242.5q0 -143 -86 -285l-426 -684h-215l328 504q-9 -11 -37.5 -17t-51.5 -6q-146 0 -260 67t-173.5 177.5t-59.5 243.5t59.5 243t173.5 177t260 67zM575 1288q-136 0 -221.5 -92.5t-85.5 -226.5t85.5 -227t221.5 -93
q133 0 217.5 93t84.5 227t-84 226.5t-218 92.5z" />
    <glyph glyph-name="sen" horiz-adv-x="1751" 
d="M555 784q16 54 49 109q25 -16 43 -21q-6 -162 19 -275.5t69 -177.5t117 -118q148 -86 254 -86h43q75 0 178 86l51 55q-27 -226 -190 -336q-65 -34 -128 -43.5t-104.5 -2.5t-91.5 24q-116 41 -198 143q-169 208 -142 482q3 75 31 161zM1616 989v68q78 -58 104 -125.5
t8.5 -122.5t-63.5 -100q-42 -42 -127 -72q-85 -31 -195 -37q-150 -9 -321 94q-68 43 -133 99q-37 31 -98 96q21 12 40 31q116 -56 218 -84q116 -39 198 -39h53q316 24 316 192zM143 627q52 89 157 190t230 162q4 -13 19 -35l-37 -31q-56 -54 -125 -127q-62 -68 -96 -116
q-47 -67 -69.5 -138t-12.5 -170q13 -119 123 -182l76 -41q-142 16 -219 45t-108 75t-32 124q0 82 94 244zM262 1055q52 26 139.5 48t135.5 9q-9 -16 -17 -51q-100 -14 -188.5 -67t-142.5 -118t-85.5 -127.5t-31.5 -103.5q-25 5 -39.5 39.5t-14.5 63.5q0 97 111 208
q61 61 133 99zM1278 1133q-11 -4 -51.5 -19t-74.5 -26.5t-67 -20.5q-137 -40 -206 -51q2 8 2 22q0 11 -2 17l102 24q158 45 235 89t111 100q14 39 -26 80.5t-82 46.5q94 -1 167.5 -42t73.5 -85q0 -73 -182 -135zM954 1174l-94 -56l-18 27q57 45 90 75.5t47 53t17 34.5t3 33
q0 57 -77 64l-86 8l131 21q57 14 88.5 -13t31.5 -69q-3 -112 -133 -178zM506 1249q53 0 123 -53q-22 -10 -41 -22q-67 0 -117.5 -4t-118.5 -23.5t-116 -54.5q109 157 270 157zM809 1286l-29 -94l-26 10q-5 49 -28 82.5t-64 34.5l-160 2l200 53q44 14 82 -15t25 -73z" />
    </font>
</defs>
</svg>
